<?xml version="1.0" encoding="utf-8"?>
<!-- Generator: Adobe Illustrator 16.0.0, SVG Export Plug-In . SVG Version: 6.00 Build 0)  -->
<!DOCTYPE svg PUBLIC "-//W3C//DTD SVG 1.0//EN" "http://www.w3.org/TR/2001/REC-SVG-20010904/DTD/svg10.dtd">
<svg version="1.0" id="Layer_1" xmlns="http://www.w3.org/2000/svg" xmlns:xlink="http://www.w3.org/1999/xlink" x="0px" y="0px"
	 width="1000px" height="1000px" viewBox="0 0 1000 1000" enable-background="new 0 0 1000 1000" xml:space="preserve">
<g>
	<g id="XMLID_1_">
		<g>
			<path fill="#EBEBEB" d="M103.61,583.01c-1.11,1.33-0.16,4.28-0.37,6.47c-0.55,5.74,4.5,6.68,7.72,9.18
				c7.96,6.18,16.51,10.89,27.44,10.22c0.3-1,0.27-2.43,0.93-2.89c8.43-5.9,7.92-12.61,1.78-18.75c-4.29-4.29-7.95-9.33-12.69-13.04
				c-3.1-2.43-7.98-4.87-11.41-4.15C110.55,571.39,107.62,578.19,103.61,583.01z M100.98,393.18c0.63,1.84,3.32,3.16,3.53,4.9
				c0.56,4.47,3.65,3.86,6.53,4.23c5.7,0.73,11.36,1.75,17.07,2.34c5.64,0.59,11.35,1.36,16.97,1.03c5.73-0.33,11.44-1.68,17.06-3
				c6.41-1.5,12.91-2.96,19.01-5.36c6.81-2.69,10.42-12.51,7.33-18.65c-2.51-5-5.32-9.87-8.32-14.59c-1.15-1.81-2.99-3.84-4.9-4.35
				c-4.1-1.1-11.2,4.23-11.45,8.59c-0.26,4.7-3.18,5.24-6.71,5.52c-2.13,0.17-4.25,0.38-6.37,0.68c-3.19,0.44-6.36,1.02-9.54,1.47
				c-1.95,0.27-3.92,0.34-5.86,0.6c-2.53,0.35-5.04,1.01-7.58,1.13c-1.79,0.09-3.61-0.5-5.41-0.79c-0.12-0.26-0.23-0.51-0.35-0.77
				c-5.39,1.94-10.92,3.58-16.15,5.91C102.38,383.61,99.82,389.8,100.98,393.18z M80.8,520.74c0.73,3.2,3.26,5.94,4.29,9.12
				c2.72,8.33,15.27,11.64,24.07,9.78c-0.83,4.19-0.75,8.06-2.37,10.98c-2.22,3.99-0.96,7.53,1.55,9.33
				c4.15,2.98,9.19,4.86,14.07,6.63c2.73,1,5.88,0.84,8.84,1.19c3.24,0.38,6.86,1.86,9.62,0.88c6.48-2.27,12.64-5.55,18.72-8.81
				c2.08-1.11,4.65-3.17,5.04-5.19c1.04-5.26,2.06-10.95,1.04-16.07c-0.71-3.56-4.3-7.11-7.47-9.52c-9.5-7.2-20.67-11.04-32.3-12.77
				c-12.06-1.79-24.29-2.4-36.44-3.61C85.58,512.29,79.94,516.98,80.8,520.74z M83.24,430.94c1.95,6.13,8.26,11.16,14.56,11.46
				c3.93,0.18,9.38-4.79,10.56-9.3c2.03-7.78-6.62-16.97-14.54-19.05c-2.24-0.59-4.92-1.48-6.87-0.78
				c-3.95,1.43-7.09,9.87-5.69,13.82C81.74,428.44,82.81,429.59,83.24,430.94z M75.17,456.22c0.2,4.84,6.12,6.97,5.04,12.57
				c-0.1,0.51,0.86,1.42,1.52,1.86c3.52,2.41,6.82,5.5,10.71,6.92c7.14,2.61,14.58,4.48,22,6.15c7.68,1.73,15.27,2.58,23.27-0.03
				c5.3-1.72,11.41-1.41,17.14-1.24c5.61,0.16,9.5-2.54,13.08-6.11c2.23-2.22,3.62-12.56,2.08-14.75
				c-4.14-5.89-8.35-11.72-12.64-17.5c-0.61-0.82-1.77-1.61-2.76-1.72c-4.99-0.58-10.38,2.72-11.51,7.64
				c-0.71,3.11-2.5,3.94-5.02,4.42c-6.4,1.22-12.78,2.8-19.24,3.45c-3.1,0.31-6.35-1.61-9.57-1.74c-6.97-0.28-13.07-2.18-17.62-7.73
				c-3.88-4.75-8.74-3.84-13.63-2.32c-0.7,0.22-1.4,1.39-1.58,2.23C75.88,450.92,75.57,453.58,75.17,456.22z M900.73,475.59
				c0.67,1.17,1.829,2.43,3.039,2.85c4.021,1.38,16.15-2.91,18.101-6.72c1.689-3.3,2.67-7.03,3.5-10.68
				c0.42-1.85-0.17-3.93-0.34-6.57c-2.311-2.1-5.15-4.86-8.19-7.38c-4.08-3.39-8.229-3.94-13.76-2.44
				c-5.13,1.39-7.44,3.75-8.63,8.37c-0.32,1.23-1.41,2.24-1.97,3.43c-0.391,0.84-0.95,2.08-0.62,2.72
				C894.69,464.71,897.65,470.19,900.73,475.59z M866.02,534.41c4.57,3.25,11.891,3.13,15.711-0.9
				c5.369-5.66,2.789-12.64,4.899-19.3c-2.31,0.22-3.7,0.36-5.87,0.57c1.86-3.28,1.09-7.76-0.99-9.3
				c-4.869-3.63-6.81-3.72-10.109-1.04c-1.84,1.5-4.43,2.2-5.98,3.9c-2.109,2.32-4.71,5.11-5.06,7.94
				C857.75,523.39,859.44,529.73,866.02,534.41z M825.74,430.65c1.3,7.24,7.01,10.47,12.31,14.39c5.2,3.84,11.061,2.71,16.66,3.42
				c3.01,0.37,6.521,0.44,9.18-0.74c7.32-3.27,8.011-10.3,8.811-17.27c0.439-3.82-1.69-5.51-3.98-7.8
				c-2.609-2.61-4.979-5.71-6.6-9.02c-3.03-6.19-7-11.4-12.55-15.38c-2.2,1.22-4.08,2.61-6.19,3.34c-3.93,1.37-7.67,2.6-7.96,7.76
				c-0.04,0.78-1.58,1.48-2.439,2.2c-2.58,2.17-5.671,3.96-7.601,6.6c-1.59,2.18-3.189,5.16-0.899,8.31
				C825.3,427.58,825.49,429.21,825.74,430.65z M767.37,643.9c0.2,0.6,0.46,1.24,0.42,1.84c-0.42,7.21,5.12,12.21,12.02,10.38
				c5.101-1.35,10.181-3.03,14.98-5.19c8.29-3.75,16.74-4.86,25.81-4.07c4.71,0.42,9.591-1.11,14.391-1.77
				c-0.25-0.44-0.51-0.88-0.771-1.31c0.86-1.81,1.511-3.77,2.63-5.4c3.65-5.29,1.08-11.95-5.26-13.58
				c-1.92-0.49-3.67-1.61-5.58-2.12c-8.3-2.19-16.38-7.35-25.31-2c-0.641,0.39-1.61,0.28-2.42,0.29c-8.11,0.06-13.38,7.16-21,8.51
				c-0.561,0.1-0.8,1.43-1.4,1.96c-1.64,1.45-3.22,3.1-5.13,4.07C767.08,637.37,765.98,639.66,767.37,643.9z M734.9,569.97
				c-3.45,4.17-2.87,6.88,0.96,8.7c2.09,1,4.25,2.05,6.5,2.48c3.05,0.6,4.649,2.29,6.46,4.76c2.35,3.22,5.46,7.16,8.939,8.05
				c10.29,2.63,20.92,3.93,31.42,5.71c3.24,0.54,6.82,0.23,9.67,1.55c6.9,3.21,14.16,4.53,21.54,5.66
				c3.021,0.47,13.67-5.41,13.851-8.19c0.279-4.32-0.181-8.69-0.521-13.03c-0.39-4.96-3.95-7.7-7.729-10.08
				c-2.59-1.63-5.221-3.6-8.101-4.26c-4.949-1.12-10.08,0.4-15.279-1.56c-4.63-1.74-10.03-1.54-15.11-1.98
				c-9.81-0.86-19.63-1.55-30.11-2.37c-0.14-0.66-0.34-2.29-0.87-3.8c-1.779-5.11-3.319-10.02-8.42-13.53
				c-6.279-4.33-9.659,0.08-13.489,3.13c-1.811,1.44-3.08,3.94-3.86,6.21c-0.73,2.12-0.49,4.58-0.67,6.89
				C729.84,567.32,729.01,570.71,734.9,569.97z M697.87,504.96c2.12,2.51,2.6,6.65,7.84,6.3c6.2-0.41,10,6.23,16.25,7.07
				c2.39,0.33,4.33,3.18,6.78,4.03c6.229,2.16,12.67,3.69,18.93,5.77c4.87,1.62,9.49,4.04,14.4,5.46
				c4.699,1.36,9.66,2.59,14.46,2.48c2.13-0.05,6.189,2.9,7.22-1.18c2.57-0.21,4.66,0.03,6.43-0.61c4.09-1.48,8.351-2.89,11.95-5.23
				c4.14-2.68,10.2-3.83,10.49-10.54c0.03-0.67,0.75-1.51,1.38-1.94c5.1-3.5,3.7-8.65,3.67-13.55c-0.05-5.63-4.21-9.13-6.479-13.63
				c-3.86-7.65-12.58-12.97-21.051-12.12c-4.029,0.4-7.319,6.78-5.39,10.44c3.94,7.49,1.85,11.59-6.03,13.48
				c-14.85,3.56-27.93-1.96-41.01-7.46c-1.15-0.48-2.47-3.38-2.01-4.4c2.3-5.13-0.48-9.63-2-13.81
				c-1.47-4.08-2.181-9.64-7.931-11.07c-0.51-0.13-1.05-0.89-1.239-1.47c-1.16-3.36-4.11-3.87-6.49-2.79
				c-3.49,1.59-9.04,1.41-9.18,6.95c-0.141,5.46-5.091,10.54-1.28,16.29c0.1,0.14-0.72,0.74-0.74,1.14
				c-0.17,4.88-4.5,5.42-7.55,7.15c-2.97,1.67-4.57,3.86-3.68,7.28C696.14,501.06,696.57,503.42,697.87,504.96z M662.87,413.75
				c0.3,5.28-2.42,11.73,4.85,14.9c1.12,0.48,1.71,2.08,2.79,2.77c1.66,1.06,3.46,2.06,5.34,2.59c5.23,1.49,10.7,2.26,15.761,4.15
				c11.39,4.26,23.14,6.61,35.18,7.97c7.01,0.8,14.01,1.91,20.91,3.38c11.43,2.43,19.12-3.74,24.49-12.87
				c1.949-3.3,0.56-6.36,0.449-9.56c-0.12-3.48-0.029-6.97-0.029-10.65c-2.641,0.44-3.98,0.66-5.771,0.96
				c4.01-5.13,4-5.13-0.29-10.37c-0.31-0.38-0.5-0.86-0.68-1.33c-0.95-2.54-2.851-2.92-4.72-1.46c-2.971,2.31-6.101,4.64-8.32,7.6
				c-3.83,5.08-5.32,5.75-11.36,4.47c-6.319-1.33-12.72-2.41-19.14-3.04c-7.64-0.76-8.99-3.3-4.94-10.05
				c1.17-1.95,2.551-4.24,2.521-6.36c-0.13-6.71-1.07-13.4-1.3-20.11c-0.141-4.06-0.98-7.75-5.341-8.34
				c-3.479-0.47-7.27,0.11-10.72,1.02c-5.729,1.52-5.95,6.62-6.62,11.43c-0.46,3.28-1.38,6.41,1.41,7.39
				c-0.76,3.15-1.6,5.63-1.92,8.18c-0.32,2.6,0.01,5.27-0.18,7.88c-0.19,2.52-1.76,3.45-4.181,2.89c-3.21-0.76-6.38-2.07-9.609-2.21
				c-3.7-0.16-7.851-0.15-11.04,1.38C667.4,407.8,662.6,408.95,662.87,413.75z M567.01,573.86c4.37,1.8,9.09,2.78,13.69,3.99
				c3.99,1.05,7.99,2.57,12.03,2.76c6.52,0.3,13.079-0.27,19.619-0.57c2.9-0.13,6.32-1.63,8.591-0.56
				c6.64,3.14,13.42,3.73,20.6,3.97c7.71,0.26,15.36,2.02,23.07,2.75c3.279,0.31,8.149,0.95,9.63-0.8c2.47-2.95,4.41-8,3.71-11.61
				c-1.45-7.56-4.021-15.16-11.391-19.34c-2.18-0.35-4.38-0.65-6.56-1.06c-2.43-0.45-4.83-1.16-7.28-1.49
				c-8.67-1.17-17.35-2.29-26.04-3.31c-6.27-0.74-12.47-1.5-18.279,2.42c-4.521,3.05-9.551,4.25-15.17,2.6
				c-2.58-0.76-5.551-0.01-8.32-0.27c-2.391-0.22-4.74-0.92-7.12-1.36c-1.09-0.2-2.22-0.2-3.3-0.43c-4.07-0.86-5.66,3.09-8.521,4.28
				c-6.79,2.82-3.91,8.44-4.01,12.85C561.91,570.42,564.88,572.98,567.01,573.86z M368.18,589.34c2.33,1.11,5.14,1.6,6.99,3.22
				c2.85,2.51,5.8,2.44,9.11,2c8.01-1.05,16.05-1.89,24.04-3.03c2.47-0.35,4.83-1.47,7.26-2.12c4.49-1.21,2.15-3.68,1.4-6.12
				c-0.261-0.83,0.72-2.1,1.239-3.11c1.57-3.02,0.5-9.63-2.43-11.08c-10.07-5.01-20.29-9.61-31.42-2.43
				c-0.97,0.62-2.53,0.33-3.14,0.39c-8.551-2.22-16.25,9.93-16.44,15.83C364.7,585.8,365.48,588.06,368.18,589.34z M347.92,489.67
				c4.43,0.43,4.44,4.24,5.58,7.12c1.36,0.12,2.79-0.11,3.79,0.44c1.16,0.63,1.94,1.96,2.77,2.86c2.93-1.26,1.94-6.72,7.12-5.16
				c-1.29,1.93-2.18,3.27-3.04,4.54c6.72,11.27,6.53,11.56,16.34,18c6.17,4.06,12.789,7.83,19.97,9.7
				c5.609,1.46,11.64,2.06,17.43,1.83c5.71-0.22,11.521-1.48,16.98-3.22c3.6-1.15,8.199-3.2,9.67-6.17
				c3.47-6.99,0.93-13.98-3.83-19.81c-2.95-3.61-12.04-5.39-16.2-3.17c-7.41,3.96-15.19,3.77-22.79,1.9
				c-10.72-2.63-21.22-6.2-32.11-9.45c-0.27-1.28-0.62-3.05-1.04-4.81c-1.29-5.33-0.86-10.06,4.17-13.48
				c0.88-0.59,1.659-1.84,1.819-2.89c0.97-6.7,3.73-13.17,2.09-20.22c-1.26-5.42-5.529-8.89-10.979-8.29
				c-8.63,0.94-13.54,6.59-16.83,13.82c-5,10.99-4.62,22.5-2.37,34.05C346.64,488.16,347.35,489.61,347.92,489.67z M344.81,556.75
				c1.99,4.49,6.12,6.33,9.57,6.43c6.32-0.06,12.33-8.47,11.15-14.17c-1.2-5.83-5.89-8.76-10.95-10.46
				c-4.53-1.52-7.17,1.08-9.81,5.15C341.62,548.56,342.99,552.63,344.81,556.75z M310.7,655.83c2.89,2.11,11.54-1,13.19-4.04
				c1.04-1.94,2.23-3.79,3.66-6.18c-0.25-0.36-1.82-1.83-1.55-2.39c2.54-5.16-1.6-5.61-4.53-7.37c-1.53-0.92-3.11-3.08-3.2-4.76
				c-0.13-2.49,1.04-5.05,1.65-7.59c-0.61,0.16-1.22,0.31-1.83,0.47c-2.12-3.23-5.18-6.2-6.15-9.74c-1.59-5.8-6.08-8.46-10.31-11.19
				c-4.83-3.12-10.48-4.95-15.46-7.86c-8.66-5.05-17.56-8.96-27.79-9.3c-10.55-0.35-20.93,0.55-31.05,3.68
				c-1.06,0.33-2.35,0.93-2.88,1.8c-2.73,4.48-5.67,8.92-7.7,13.73c-1.27,3.01-2.17,6.99-1.23,9.89c1.05,3.25,4.34,5.79,6.68,8.61
				c2.84,3.44,5.68,6.89,8.59,10.27c0.72,0.83,1.65,1.64,2.65,2.06c7.28,3.01,14.61,5.89,21.91,8.87c4.75,1.94,9.31,4.86,14.24,5.74
				c6.92,1.24,14.1,1.24,21.17,1.31C297.7,651.91,304.55,651.32,310.7,655.83z M528.12,397.56c-4.72,0.23-5.49,1.22-4.19,5.69
				c0.65,2.22,1.721,4.31,2.32,6.54c0.39,1.4,0.79,3.15,0.3,4.39c-2.729,6.91-0.37,12.77,3.641,18.16
				c5.699,7.66,14.649,9.28,23.1,10.57c8.21,1.26,16.67,0.67,24.87,2.8c3.43,0.89,6.81,0.17,9.54-2.82
				c2.149-2.36,4.859-4.22,7.359-6.25c1.921-1.56,4.16-2.79,5.79-4.58c3.051-3.34,5.94-6.86,8.521-10.56
				c1.26-1.8,2.16-4.13,2.41-6.31c0.819-7.06-2.74-12.85-7.04-17.69c-6.23-7.01-9.76-6.43-15.311,1.15
				c-0.68,0.94-1.609,1.77-2.04,2.81c-2.33,5.6-8.08,6.7-12.47,9.55c-1.3,0.84-3.18,1.32-4.729,1.18
				c-9.16-0.85-18.311-1.87-27.45-3.01c-1.391-0.17-2.681-1.22-4.25-1.98c1.88-2.16,3.25-3.74,4.55-5.23
				c-4.8-6.77-10.92-9.63-14.92-7.08C528.12,395.72,528.12,396.64,528.12,397.56z M523.3,504.37c3.021,2.33,6.061,4.65,9.28,6.68
				c2.5,1.59,5.65,2.39,4.37,6.58c-0.28,0.93,0.43,2.9,1.229,3.29c4.78,2.34,9.561,5.45,14.66,6.2c6.07,0.9,12.45-0.36,18.69-0.61
				c2.62-0.11,5.38,0.46,7.85-0.16c8.91-2.23,15.17-8.6,21.19-14.94c3.149-3.32,0.699-10.33-3.82-12.32c0.5-0.98,1-1.95,1.33-2.61
				c-4.271-6.57-10.83-6.11-16.01-3.81c-6.17,2.74-12.261,5.51-18.851,6.68c-5.66,1-11.68,4.19-17.27-0.92
				c3.859-8.16,5.41-16.31,0.6-24.67c-0.93-1.61-1.74-3.84-1.38-5.52c0.9-4.22-1.75-2.63-2.72-2.58c-0.74-2.39-0.8-5.08-1.86-5.56
				c-6.81-3.06-15.76,0.99-17.26,8.95c-2.08,10.98-1.72,21.99-0.87,33.02C522.52,502.87,522.75,503.94,523.3,504.37z M444.57,572.89
				c1.17,2.22,2.859,5.22,4.88,5.74c5.53,1.42,11.34,1.89,17.08,2.39c2.18,0.19,4.439-0.66,6.68-0.89
				c8.18-0.84,16.95,2.42,24.58-4.06c-0.31-1.47-1.07-3.08-0.92-4.61c0.899-9.29-3.24-14.71-12.311-16.42
				c-3.52-0.66-6.939-2.05-10.319-3.35c-3.34-1.28-6.5-2.12-9.891-0.07c-2.26,1.36-4.659,2.57-7.13,3.47
				c-5.47,1.99-12.18,2.44-12.05,10.69c0,0.13-0.17,0.31-0.3,0.38C441.08,568.21,443.48,570.85,444.57,572.89z M434.03,346.44
				c5.85,3.27,12.43,5.24,18.64,7.91c1.48,0.63,2.9,1.54,4.15,2.56c5.979,4.83,12.87,7.42,20.14,9.87
				c7.87,2.64,15.66,4.19,23.83,3.98c6.55-0.17,13.11-0.69,19.64-1.3c6.41-0.61,12.811-1.41,19.181-2.33
				c8.02-1.16,16.04-2.34,24-3.86c12.029-2.3,24.02-4.86,36.01-7.39c6.63-1.4,13.21-3,19.82-4.44c4.689-1.02,9.38-2.01,14.09-2.88
				c6.59-1.22,13.18-2.45,19.81-3.4c2.92-0.43,5.94-0.16,8.91-0.26c12.89-0.45,25.78-1.02,38.68-1.32
				c6.221-0.14,12.45,0.34,18.681,0.32c2.1-0.01,4.199-0.7,5.89-1c1.9,1.05,3.56,2.67,5.35,2.83c14.311,1.27,27.16,6.92,40.12,12.53
				c6.521,2.82,13.53,4.49,20.261,6.84c8.05,2.81,16.14,5.53,24.02,8.74c10.35,4.24,20.71,8.54,30.72,13.52
				c8.08,4.04,15.54,9.32,23.471,13.7c5.05,2.78,10.51,4.8,15.659,7.41c4.98,2.53,10.4,4.7,14.521,8.29
				c3.479,3.03,5.38,7.87,7.99,11.91c0.71,1.09,1.319,2.3,2.239,3.2c7.19,7.06,14.17,14.38,21.771,20.98
				c6.05,5.26,10.1,11.79,13.8,18.59c2.01,3.7,3.39,7.86,4.311,11.98c2.02,9.1,5.939,17.72,5.3,27.52
				c-0.4,6.3,1.39,12.75,2.29,19.12c1.35,9.5-0.9,18.36-4.301,27.12c-1.369,3.54-1.76,7.46-3.17,10.97
				c-1.5,3.72-3.43,7.33-5.659,10.66c-1.74,2.61-4.16,4.81-6.431,7.03c-0.75,0.73-2,0.93-3.109,1.41
				c-4.021-12.53-14.221-15.62-25.21-17.56c-5.671-1-10.95-1.74-16.381,2c-4.63,3.19-7.17,6.68-6.97,12.41
				c0.38,10.38,6.28,16.37,15.29,19.79c2.771,1.05,6.021,0.86,10.04,1.36c-4.28,3.74-7.25,6.59-12.78,4.26
				c-5.279-2.22-14.01,6.78-12.62,12.45c0.421,1.74,0.87,3.47,1.19,4.71c-2.29,0.2-4.479-0.13-6.19,0.62
				c-8.399,3.69-16.699,7.59-24.97,11.58c-5.64,2.72-10.93,6.42-16.81,8.37c-6.62,2.2-13.76,2.81-20.641,4.32
				c-10.989,2.41-21.97,4.86-32.899,7.53c-6.57,1.61-12.96,4.05-19.57,5.42c-6.42,1.34-13.02,1.73-19.53,2.65
				c-4.75,0.66-9.46,1.88-14.22,2.17c-6.189,0.39-12.41,0.1-18.97,0.1c0.14,1.29,0.27,2.39,0.39,3.48
				c-2.649-5.8-8.55-2.67-13.26-5.12c4.93-2.22,9.15-4.18,13.42-6.03c3.71-1.6,7.42-2.47,7.16-8.25c-0.14-3.03,3.38-6.35,0.63-9.62
				c-3.29-3.9-5.94-8.94-12.14-8.88c0.55-0.97,1.109-1.93,1.64-2.9c4.14-7.61,3.39-12.3-3.54-17.51
				c-5.92-4.45-11.99-8.81-18.44-12.42c-6.31-3.52-13.109-6.2-19.81-8.94c-5.85-2.4-11.35,0.53-16.94,1.75
				c-3.569,0.77-7.13,1.61-10.739,2.12c-6.07,0.86-12.681,6.45-14.03,12.42c-0.8,3.51-2.51,7.53-1.51,10.58
				c1.819,5.56,4.5,11.31,8.35,15.63c5.55,6.21,11.92,11.66,20.36,14.54c6.81,2.33,12.97,6.55,19.5,9.75
				c1.66,0.81,3.729,0.73,5.46,1.43c3.5,1.43,6.89,3.11,11.07,5.03c-1.48,0.8-1.931,1.27-2.261,1.19
				c-6.45-1.44-12.83-3.26-19.33-4.38c-9.54-1.63-18.56-4.18-27.29-8.74c-10.97-5.73-22.359-10.79-34.5-13.92
				c-5.72-1.47-11.5-2.87-16.319-6.9c-1.891-1.58-4.91-1.93-7.48-2.51c-5.47-1.24-10.97-2.38-16.5-3.35
				c-6.229-1.09-12.58-1.71-18.56,0.87c-5.771,2.48-11.45,3.88-17.771,2.51c-3.01-0.64-4.51,0.52-5.68,2.9
				c-2.17-2.79-11.06-3.2-18.06-0.36c0.46-1.96,0.739-3.3,1.1-4.62c0.68-2.47,1.85-4.89,2.02-7.39c0.25-3.63,0.87-7.85-0.619-10.84
				c-2.131-4.29-6-7.87-11.671-7.36c-5.489,0.49-10.5,2.05-13.5,7.26c-0.399,0.71-0.909,1.43-1.54,1.91
				c-6.52,5.03-6.979,8.7-1.88,15.42c1.771,2.31,3.49,4.68,5.221,7.02c-0.86,0.52-1.721,1.03-2.61,1.11
				c-7.86,0.69-14.61,4.5-21.73,7.31c-2.729,1.07-5.949,0.87-8.689,1.93c-3.07,1.18-5.69,3.52-8.76,4.64
				c-6.551,2.4-13.36,4.11-19.891,6.55c-4.449,1.67-8.58,4.14-12.899,6.17c-1.24,0.58-2.62,0.84-3.94,1.26
				c-0.25-0.42-0.49-0.84-0.729-1.26c1.71-1.24,3.47-2.43,5.12-3.75c4.229-3.4,8.77-6.52,12.539-10.39
				c4.75-4.89,4.91-9.95,1.961-15.99c-4.381-9-11.021-15.01-21.29-15.7c-11.11-0.74-22.48-3.4-33.301,1.04
				c-9.22,3.79-19.07,7.25-22.439,18.44c-0.31,1.03-1.67,1.87-2.7,2.54c-3.3,2.13-6.67,4.14-9.8,6.06
				c2.37,5.65,4.43,10.55,6.65,15.82c-4.58,1.32-9.32,2.69-14.34,4.14c-1.99,0-4.67-0.66-6.84,0.11
				c-9.66,3.43-19.63,2.42-29.53,2.82c-5.55,0.22-11.03,1.98-16.58,2.22c-7.25,0.32-14.55-0.35-21.82-0.26
				c-9.01,0.11-17.15-3.11-25.34-6.12c-12.05-4.42-24.12-8.79-36.02-13.58c-13.76-5.54-27.33-11.55-41.02-17.27
				c-8.38-3.51-17.28-6.07-25.11-10.52c-7.05-4-13.58-9.38-19.21-15.25c-7.6-7.9-13.2-17.94-22.88-23.6
				c-12.92-7.55-16.45-21.33-22.71-33.1c-4.62-8.66-6.99-18.56-10.06-28c-1.84-5.66-3.38-11.45-4.55-17.28
				c-0.88-4.37,0.37-5.16,4.77-4.76c1.52,0.13,3.13-0.85,4.72-1.24c1.67-0.4,3.34-0.91,5.03-1.03c5.22-0.36,9.16-2.75,9.98-6.25
				c1.24-5.29-1.42-12.68-5.9-14.88c-6.67-3.28-13.53-6.18-20.37-9.11c-2.22-0.94-4.12-1.37-3.63-4.76c0.33-2.24-1.2-4.71-1.76-7.1
				c-0.76-3.22-1.52-6.45-2-9.72c-0.36-2.45,0.22-5.13-0.49-7.44c-3.17-10.37,0.54-19.52,6.92-26.65
				c11.65-13.03,23.3-26.08,39.11-34.97c11.6-6.53,23.93-10.28,36.18-14.75c8.37-3.05,16.26-7.39,24.56-10.65
				c6.62-2.61,13.56-4.4,20.32-6.65c12.54-4.17,25.11-8.21,38.28-9.94c8.4-1.1,16.82-2.05,25.17-3.45
				c9.06-1.52,17.99-3.89,27.09-5.08c4.75-0.62,9.74,0.47,14.62,0.82c6.7,0.48,13.42,0.87,20.11,1.55c3.78,0.38,7.5,1.5,11.29,1.83
				c6.98,0.59,13.99,0.83,20.99,1.25c7.23,0.44,14.45,1.13,21.69,1.31c7.67,0.19,15.35-0.1,23.02-0.13
				c1.14-0.01,2.47-0.06,3.39,0.47c8.37,4.89,18.03,3.47,26.85,5.69C409.75,342.65,422.63,340.05,434.03,346.44z M426.52,392.73
				c0.591,0.62,0.87,1.96,0.69,2.84c-0.63,3.05,1.3,3.76,3.54,4.27c1.63,0.37,3.32,0.49,4.89,1.02c3.12,1.04,4.67,3.07,3.45,6.5
				c-0.49,1.38-0.95,2.77-1.439,4.2c-3.091-0.59-5.841-0.93-8.48-1.66c-6.47-1.78-13.07-3.3-19.28-5.77
				c-5.47-2.18-10.37-5.75-15.729-8.24c-2.42-1.13-3.37-2.76-3.16-4.94c0.28-2.94,0.51-6.17,1.88-8.66
				c3.08-5.6,4.82-11.04,2.67-17.44c-1.46-4.36-3.399-7.82-8.189-9.1c-1.54-0.41-2.811-1.76-4.341-2.27
				c-1.68-0.56-3.869-1.4-5.229-0.79c-5.46,2.46-12.75,13.19-8.13,19.73c-2.44-0.17-4.07,0.08-3.49,3.42
				c0.59,3.39,0.48,6.9,0.58,10.36c0.18,5.91-0.53,11.98,0.59,17.69c2.34,11.93,12.88,16.31,22.22,20.88
				c9.811,4.8,20.28,8.29,30.57,12.07c7.03,2.58,13.7,5.1,21.94,4.49c12.189-0.9,22.75-18.86,21.359-27.94
				c-1.149-7.51-2.71-14.91-6-22.11c-4.34-9.47-11.71-12.63-20.87-12.98c-3.34-0.12-7.649,1.08-9.93,3.31
				C423.71,384.47,422.83,388.92,426.52,392.73z M226.81,482.08c8.52,9.63,19.87,14.57,31.99,17.77c2.94,0.77,6.87,1.77,8.67-3.22
				c1.06,1.65,1.54,3.33,2.62,3.94c8.71,4.92,18.48,6.55,28.14,8.23c3.11,0.54,7.25,0.42,9.64-1.25c3.83-2.68,7.74-6.41,9.46-10.59
				c1.42-3.47,0.94-8.84-0.83-12.26c-3.71-7.18-6.76-15.14-16.37-17.59c-8.23-2.11-9.4-2.26-14.07,5.22
				c-0.61,0.98-2.65,1.84-3.77,1.59c-11.33-2.46-22.61-5.14-33.87-7.86c-1.02-0.25-2.26-1.02-2.71-1.91
				c-2.28-4.46-5.56-5.62-9.79-3.45c-3.19-2.65-4.03-4.51-0.56-8.02c2.27-2.29,3.47-7.16,2.87-10.46
				c-1.47-8.18-4.6-15.89-12.07-20.88c-2.8-1.88-8.22-1.96-10.39,0.32c0.14,1.22,0.29,2.58,0.44,3.86
				c-3.78,1.36-5.79,13.84-3.17,18.04c-4.06,4.01-4.68,7.61-2.85,16.48c0.99,4.84,2.97,6.34,8.09,6.48
				c0.83,0.02,2.04,0.63,2.37,1.31c0.99,2.01,1.54,4.23,2.42,6.31C224.21,476.84,224.95,479.97,226.81,482.08z M238.92,561.24
				c6.7,4.22,13.16,8.94,20.23,12.42c6.19,3.05,13.57,3.83,19.55,7.18c8.56,4.79,17.8,6.26,27.06,7.98
				c6.11,1.14,9.79-1.58,11.69-7.35c2.97-9.03-2.34-15.91-5.84-23.27c-0.22-0.46-1.07-0.82-1.67-0.88
				c-4.16-0.44-8.47-0.28-12.47-1.3c-5.99-1.52-11.77-3.86-17.64-5.85c0.13-0.59,0.25-1.17,0.37-1.75c1.38-0.49,2.79-0.92,4.14-1.48
				c5.89-2.48,6.96-7.75,2.42-12.18c-4.01-3.9-8.1-7.7-12.21-11.5c-0.59-0.53-1.43-0.86-2.22-1.1c-11.23-3.43-22.36-6.82-34.45-6.2
				c-8.67,0.44-12.89,5.81-16.71,12.15c-1.52,2.51-3.22,5.29-3.53,8.08c-0.79,7.2,2.94,12.66,8.45,16.78
				C230.16,556,234.61,558.53,238.92,561.24z M245.9,368.34c0.09,1.05,1.26,2.63,2.21,2.87c3.5,0.9,3.91,3.47,4.42,6.54
				c-1.62,0.82-3.04,1.67-4.56,2.25c-2.73,1.05-6.26,1.18-8.17,3.02c-6.92,6.72-5.88,14.36-0.08,19.51
				c6.6,5.86,15.15,6.17,23.13,7.9c12.68,2.76,25.96,2.56,38.17,7.87c2.08,0.9,5.3,1.18,7.18,0.2c5.4-2.84,10.48-6.34,15.51-9.83
				c3.56-2.48,5.06-12.51,3.05-16.27c-2.98-5.57-5.56-11.35-8.53-16.93c-1.14-2.14-2.46-4.7-4.41-5.8
				c-4.47-2.53-9.33-4.41-14.14-6.24c-1.17-0.45-3.32-0.23-4.1,0.57c-2.26,2.34-4.23,5.01-5.92,7.8c-0.54,0.91-0.33,2.97,0.37,3.82
				c3.4,4.17,7.09,8.11,10.9,12.38c-13.03-2.89-25.5-5.66-38.22-8.48c0.38-0.92,0.57-1.96,1.14-2.68c5.94-7.39,8.46-15.79,5.1-24.73
				c-2.25-5.99-6.24-11.34-9.54-16.92c-0.24-0.41-1.16-0.55-1.77-0.59c-9.76-0.67-16.71,8.84-12.96,17.7
				c0.24,0.57,0.55,1.15,0.58,1.74C245.47,358.81,245.5,363.59,245.9,368.34z"/>
			<path d="M903.08,444.65c5.53-1.5,9.68-0.95,13.76,2.44c3.04,2.52,5.88,5.28,8.19,7.38c0.17,2.64,0.76,4.72,0.34,6.57
				c-0.83,3.65-1.811,7.38-3.5,10.68c-1.95,3.81-14.08,8.1-18.101,6.72c-1.21-0.42-2.369-1.68-3.039-2.85
				c-3.08-5.4-6.04-10.88-8.87-16.42c-0.33-0.64,0.229-1.88,0.62-2.72c0.56-1.19,1.649-2.2,1.97-3.43
				C895.64,448.4,897.95,446.04,903.08,444.65z"/>
			<path d="M881.73,533.51c-3.82,4.03-11.141,4.15-15.711,0.9c-6.579-4.68-8.27-11.02-7.399-18.13c0.35-2.83,2.95-5.62,5.06-7.94
				c1.551-1.7,4.141-2.4,5.98-3.9c3.3-2.68,5.24-2.59,10.109,1.04c2.08,1.54,2.851,6.02,0.99,9.3c2.17-0.21,3.561-0.35,5.87-0.57
				C884.52,520.87,887.1,527.85,881.73,533.51z"/>
			<path d="M863.89,447.72c-2.659,1.18-6.17,1.11-9.18,0.74c-5.6-0.71-11.46,0.42-16.66-3.42c-5.3-3.92-11.01-7.15-12.31-14.39
				c-0.25-1.44-0.44-3.07-1.26-4.19c-2.29-3.15-0.69-6.13,0.899-8.31c1.93-2.64,5.021-4.43,7.601-6.6
				c0.859-0.72,2.399-1.42,2.439-2.2c0.29-5.16,4.03-6.39,7.96-7.76c2.11-0.73,3.99-2.12,6.19-3.34c5.55,3.98,9.52,9.19,12.55,15.38
				c1.62,3.31,3.99,6.41,6.6,9.02c2.29,2.29,4.42,3.98,3.98,7.8C871.9,437.42,871.21,444.45,863.89,447.72z"/>
			<path d="M798.28,620.97c0.81-0.01,1.779,0.1,2.42-0.29c8.93-5.35,17.01-0.19,25.31,2c1.91,0.51,3.66,1.63,5.58,2.12
				c6.34,1.63,8.91,8.29,5.26,13.58c-1.119,1.63-1.77,3.59-2.63,5.4c0.261,0.43,0.521,0.87,0.771,1.31
				c-4.8,0.66-9.681,2.19-14.391,1.77c-9.069-0.79-17.52,0.32-25.81,4.07c-4.8,2.16-9.88,3.84-14.98,5.19
				c-6.899,1.83-12.439-3.17-12.02-10.38c0.04-0.6-0.22-1.24-0.42-1.84c-1.39-4.24-0.29-6.53,3.38-8.39
				c1.91-0.97,3.49-2.62,5.13-4.07c0.601-0.53,0.84-1.86,1.4-1.96C784.9,628.13,790.17,621.03,798.28,620.97z"/>
			<path d="M734.61,551.21c3.83-3.05,7.21-7.46,13.489-3.13c5.101,3.51,6.641,8.42,8.42,13.53c0.53,1.51,0.73,3.14,0.87,3.8
				c10.48,0.82,20.301,1.51,30.11,2.37c5.08,0.44,10.48,0.24,15.11,1.98c5.199,1.96,10.33,0.44,15.279,1.56
				c2.88,0.66,5.511,2.63,8.101,4.26c3.779,2.38,7.34,5.12,7.729,10.08c0.34,4.34,0.8,8.71,0.521,13.03
				c-0.181,2.78-10.83,8.66-13.851,8.19c-7.38-1.13-14.64-2.45-21.54-5.66c-2.85-1.32-6.43-1.01-9.67-1.55
				c-10.5-1.78-21.13-3.08-31.42-5.71c-3.479-0.89-6.59-4.83-8.939-8.05c-1.811-2.47-3.41-4.16-6.46-4.76
				c-2.25-0.43-4.41-1.48-6.5-2.48c-3.83-1.82-4.41-4.53-0.96-8.7c-5.891,0.74-5.061-2.65-4.82-5.66c0.18-2.31-0.061-4.77,0.67-6.89
				C731.53,555.15,732.8,552.65,734.61,551.21z"/>
			<path d="M705.71,511.26c-5.24,0.35-5.72-3.79-7.84-6.3c-1.3-1.54-1.73-3.9-2.26-5.96c-0.891-3.42,0.71-5.61,3.68-7.28
				c3.05-1.73,7.38-2.27,7.55-7.15c0.021-0.4,0.84-1,0.74-1.14c-3.811-5.75,1.14-10.83,1.28-16.29c0.14-5.54,5.689-5.36,9.18-6.95
				c2.38-1.08,5.33-0.57,6.49,2.79c0.189,0.58,0.729,1.34,1.239,1.47c5.75,1.43,6.461,6.99,7.931,11.07c1.52,4.18,4.3,8.68,2,13.81
				c-0.46,1.02,0.859,3.92,2.01,4.4c13.08,5.5,26.16,11.02,41.01,7.46c7.88-1.89,9.971-5.99,6.03-13.48
				c-1.93-3.66,1.36-10.04,5.39-10.44c8.471-0.85,17.19,4.47,21.051,12.12c2.27,4.5,6.43,8,6.479,13.63
				c0.03,4.9,1.43,10.05-3.67,13.55c-0.63,0.43-1.35,1.27-1.38,1.94c-0.29,6.71-6.351,7.86-10.49,10.54
				c-3.6,2.34-7.86,3.75-11.95,5.23c-1.77,0.64-3.859,0.4-6.43,0.61c-1.03,4.08-5.09,1.13-7.22,1.18
				c-4.8,0.11-9.761-1.12-14.46-2.48c-4.91-1.42-9.53-3.84-14.4-5.46c-6.26-2.08-12.7-3.61-18.93-5.77
				c-2.45-0.85-4.391-3.7-6.78-4.03C715.71,517.49,711.91,510.85,705.71,511.26z"/>
			<path d="M670.41,406.36c3.189-1.53,7.34-1.54,11.04-1.38c3.229,0.14,6.399,1.45,9.609,2.21c2.421,0.56,3.99-0.37,4.181-2.89
				c0.189-2.61-0.141-5.28,0.18-7.88c0.32-2.55,1.16-5.03,1.92-8.18c-2.79-0.98-1.87-4.11-1.41-7.39
				c0.67-4.81,0.891-9.91,6.62-11.43c3.45-0.91,7.24-1.49,10.72-1.02c4.36,0.59,5.2,4.28,5.341,8.34c0.229,6.71,1.17,13.4,1.3,20.11
				c0.03,2.12-1.351,4.41-2.521,6.36c-4.05,6.75-2.699,9.29,4.94,10.05c6.42,0.63,12.82,1.71,19.14,3.04
				c6.04,1.28,7.53,0.61,11.36-4.47c2.22-2.96,5.35-5.29,8.32-7.6c1.869-1.46,3.77-1.08,4.72,1.46c0.18,0.47,0.37,0.95,0.68,1.33
				c4.29,5.24,4.3,5.24,0.29,10.37c1.79-0.3,3.13-0.52,5.771-0.96c0,3.68-0.091,7.17,0.029,10.65c0.11,3.2,1.5,6.26-0.449,9.56
				c-5.37,9.13-13.061,15.3-24.49,12.87c-6.9-1.47-13.9-2.58-20.91-3.38c-12.04-1.36-23.79-3.71-35.18-7.97
				c-5.061-1.89-10.53-2.66-15.761-4.15c-1.88-0.53-3.68-1.53-5.34-2.59c-1.08-0.69-1.67-2.29-2.79-2.77
				c-7.27-3.17-4.55-9.62-4.85-14.9C662.6,408.95,667.4,407.8,670.41,406.36z"/>
			<path d="M523.93,403.25c-1.3-4.47-0.529-5.46,4.19-5.69c0-0.92,0-1.84,0-2.67c4-2.55,10.12,0.31,14.92,7.08
				c-1.3,1.49-2.67,3.07-4.55,5.23c1.569,0.76,2.859,1.81,4.25,1.98c9.14,1.14,18.29,2.16,27.45,3.01
				c1.55,0.14,3.43-0.34,4.729-1.18c4.39-2.85,10.14-3.95,12.47-9.55c0.431-1.04,1.36-1.87,2.04-2.81
				c5.551-7.58,9.08-8.16,15.311-1.15c4.3,4.84,7.859,10.63,7.04,17.69c-0.25,2.18-1.15,4.51-2.41,6.31
				c-2.58,3.7-5.47,7.22-8.521,10.56c-1.63,1.79-3.869,3.02-5.79,4.58c-2.5,2.03-5.21,3.89-7.359,6.25
				c-2.73,2.99-6.11,3.71-9.54,2.82c-8.2-2.13-16.66-1.54-24.87-2.8c-8.45-1.29-17.4-2.91-23.1-10.57
				c-4.011-5.39-6.37-11.25-3.641-18.16c0.49-1.24,0.09-2.99-0.3-4.39C525.65,407.56,524.58,405.47,523.93,403.25z"/>
			<path d="M574.49,551.55c1.08,0.23,2.21,0.23,3.3,0.43c2.38,0.44,4.729,1.14,7.12,1.36c2.77,0.26,5.74-0.49,8.32,0.27
				c5.619,1.65,10.649,0.45,15.17-2.6c5.81-3.92,12.01-3.16,18.279-2.42c8.69,1.02,17.37,2.14,26.04,3.31
				c2.45,0.33,4.851,1.04,7.28,1.49c2.18,0.41,4.38,0.71,6.56,1.06c7.37,4.18,9.94,11.78,11.391,19.34
				c0.7,3.61-1.24,8.66-3.71,11.61c-1.48,1.75-6.351,1.11-9.63,0.8c-7.71-0.73-15.36-2.49-23.07-2.75
				c-7.18-0.24-13.96-0.83-20.6-3.97c-2.271-1.07-5.69,0.43-8.591,0.56c-6.54,0.3-13.1,0.87-19.619,0.57
				c-4.04-0.19-8.04-1.71-12.03-2.76c-4.601-1.21-9.32-2.19-13.69-3.99c-2.13-0.88-5.1-3.44-5.05-5.18
				c0.1-4.41-2.78-10.03,4.01-12.85C568.83,554.64,570.42,550.69,574.49,551.55z"/>
			<path d="M523.33,469.05c1.5-7.96,10.45-12.01,17.26-8.95c1.061,0.48,1.12,3.17,1.86,5.56c0.97-0.05,3.62-1.64,2.72,2.58
				c-0.36,1.68,0.45,3.91,1.38,5.52c4.811,8.36,3.26,16.51-0.6,24.67c5.59,5.11,11.609,1.92,17.27,0.92
				c6.59-1.17,12.681-3.94,18.851-6.68c5.18-2.3,11.739-2.76,16.01,3.81c-0.33,0.66-0.83,1.63-1.33,2.61
				c4.52,1.99,6.97,9,3.82,12.32c-6.021,6.34-12.28,12.71-21.19,14.94c-2.47,0.62-5.229,0.05-7.85,0.16
				c-6.24,0.25-12.62,1.51-18.69,0.61c-5.1-0.75-9.88-3.86-14.66-6.2c-0.8-0.39-1.51-2.36-1.229-3.29c1.28-4.19-1.87-4.99-4.37-6.58
				c-3.22-2.03-6.26-4.35-9.28-6.68c-0.55-0.43-0.78-1.5-0.84-2.3C521.61,491.04,521.25,480.03,523.33,469.05z"/>
			<path d="M464.35,551.62c3.391-2.05,6.551-1.21,9.891,0.07c3.38,1.3,6.8,2.69,10.319,3.35c9.07,1.71,13.21,7.13,12.311,16.42
				c-0.15,1.53,0.61,3.14,0.92,4.61c-7.63,6.48-16.4,3.22-24.58,4.06c-2.24,0.23-4.5,1.08-6.68,0.89
				c-5.74-0.5-11.55-0.97-17.08-2.39c-2.021-0.52-3.71-3.52-4.88-5.74c-1.09-2.04-3.49-4.68,0.3-6.73c0.13-0.07,0.3-0.25,0.3-0.38
				c-0.13-8.25,6.58-8.7,12.05-10.69C459.69,554.19,462.09,552.98,464.35,551.62z"/>
			<path d="M384.28,594.56c-3.311,0.44-6.261,0.51-9.11-2c-1.85-1.62-4.66-2.11-6.99-3.22c-2.7-1.28-3.48-3.54-3.39-6.45
				c0.19-5.9,7.89-18.05,16.44-15.83c0.609-0.06,2.17,0.23,3.14-0.39c11.13-7.18,21.35-2.58,31.42,2.43c2.93,1.45,4,8.06,2.43,11.08
				c-0.52,1.01-1.5,2.28-1.239,3.11c0.75,2.44,3.09,4.91-1.4,6.12c-2.43,0.65-4.79,1.77-7.26,2.12
				C400.33,592.67,392.29,593.51,384.28,594.56z"/>
			<path d="M409.89,404.13c6.21,2.47,12.811,3.99,19.28,5.77c2.64,0.73,5.39,1.07,8.48,1.66c0.489-1.43,0.949-2.82,1.439-4.2
				c1.22-3.43-0.33-5.46-3.45-6.5c-1.569-0.53-3.26-0.65-4.89-1.02c-2.24-0.51-4.17-1.22-3.54-4.27c0.18-0.88-0.1-2.22-0.69-2.84
				c-3.689-3.81-2.81-8.26,0.11-11.12c2.28-2.23,6.59-3.43,9.93-3.31c9.16,0.35,16.53,3.51,20.87,12.98c3.29,7.2,4.851,14.6,6,22.11
				c1.391,9.08-9.17,27.04-21.359,27.94c-8.24,0.61-14.91-1.91-21.94-4.49c-10.29-3.78-20.76-7.27-30.57-12.07
				c-9.34-4.57-19.879-8.95-22.22-20.88c-1.12-5.71-0.41-11.78-0.59-17.69c-0.1-3.46,0.01-6.97-0.58-10.36
				c-0.58-3.34,1.05-3.59,3.49-3.42c-4.62-6.54,2.67-17.27,8.13-19.73c1.36-0.61,3.55,0.23,5.229,0.79
				c1.53,0.51,2.801,1.86,4.341,2.27c4.79,1.28,6.729,4.74,8.189,9.1c2.15,6.4,0.41,11.84-2.67,17.44c-1.37,2.49-1.6,5.72-1.88,8.66
				c-0.21,2.18,0.74,3.81,3.16,4.94C399.52,398.38,404.42,401.95,409.89,404.13z"/>
			<path d="M424.5,496.63c4.16-2.22,13.25-0.44,16.2,3.17c4.76,5.83,7.3,12.82,3.83,19.81c-1.471,2.97-6.07,5.02-9.67,6.17
				c-5.46,1.74-11.271,3-16.98,3.22c-5.79,0.23-11.82-0.37-17.43-1.83c-7.181-1.87-13.8-5.64-19.97-9.7
				c-9.811-6.44-9.621-6.73-16.34-18c0.86-1.27,1.75-2.61,3.04-4.54c-5.18-1.56-4.19,3.9-7.12,5.16c-0.83-0.9-1.61-2.23-2.77-2.86
				c-1-0.55-2.43-0.32-3.79-0.44c-1.14-2.88-1.15-6.69-5.58-7.12c-0.57-0.06-1.28-1.51-1.46-2.41c-2.25-11.55-2.63-23.06,2.37-34.05
				c3.29-7.23,8.2-12.88,16.83-13.82c5.45-0.6,9.72,2.87,10.979,8.29c1.641,7.05-1.12,13.52-2.09,20.22
				c-0.16,1.05-0.939,2.3-1.819,2.89c-5.03,3.42-5.46,8.15-4.17,13.48c0.42,1.76,0.77,3.53,1.04,4.81
				c10.89,3.25,21.39,6.82,32.11,9.45C409.31,500.4,417.09,500.59,424.5,496.63z"/>
			<path d="M354.38,563.18c-3.45-0.1-7.58-1.94-9.57-6.43c-1.82-4.12-3.19-8.19-0.04-13.05c2.64-4.07,5.28-6.67,9.81-5.15
				c5.06,1.7,9.75,4.63,10.95,10.46C366.71,554.71,360.7,563.12,354.38,563.18z"/>
			<path d="M364.36,657.32c3.27,0.51,6.17,0.96,9.96,1.55c-1.96-6.72,4.01-8.48,5.649-12.53c0.44-1.07,1.53-2.06,2.57-2.65
				c2.08-1.17,4.32-2.03,6.5-3.02c-0.3-0.66-0.6-1.32-0.91-1.97c-4.1,1.74-8.81,2.72-12.149,5.41
				C371.76,647.51,368.66,652.3,364.36,657.32z M426.73,632.78c2.949,6.04,2.789,11.1-1.961,15.99
				c-3.77,3.87-8.31,6.99-12.539,10.39c-1.65,1.32-3.41,2.51-5.12,3.75c0.239,0.42,0.479,0.84,0.729,1.26
				c1.32-0.42,2.7-0.68,3.94-1.26c4.319-2.03,8.45-4.5,12.899-6.17c6.53-2.44,13.34-4.15,19.891-6.55
				c3.069-1.12,5.689-3.46,8.76-4.64c2.74-1.06,5.96-0.86,8.689-1.93c7.12-2.81,13.87-6.62,21.73-7.31
				c0.89-0.08,1.75-0.59,2.61-1.11c0.02,0.02,0.029,0.03,0.04,0.05c0.399-0.25,0.81-0.5,1.22-0.75c-0.42,0.2-0.84,0.45-1.26,0.7
				c-1.73-2.34-3.45-4.71-5.221-7.02c-5.1-6.72-4.64-10.39,1.88-15.42c0.631-0.48,1.141-1.2,1.54-1.91c3-5.21,8.011-6.77,13.5-7.26
				c5.671-0.51,9.54,3.07,11.671,7.36c1.489,2.99,0.869,7.21,0.619,10.84c-0.17,2.5-1.34,4.92-2.02,7.39
				c-0.36,1.32-0.64,2.66-1.1,4.62c7-2.84,15.89-2.43,18.06,0.36c1.17-2.38,2.67-3.54,5.68-2.9c6.32,1.37,12-0.03,17.771-2.51
				c5.979-2.58,12.33-1.96,18.56-0.87c5.53,0.97,11.03,2.11,16.5,3.35c2.57,0.58,5.59,0.93,7.48,2.51
				c4.819,4.03,10.6,5.43,16.319,6.9c12.141,3.13,23.53,8.19,34.5,13.92c8.73,4.56,17.75,7.11,27.29,8.74
				c6.5,1.12,12.88,2.94,19.33,4.38c0.33,0.08,0.78-0.39,2.261-1.19c-4.181-1.92-7.57-3.6-11.07-5.03c-1.73-0.7-3.8-0.62-5.46-1.43
				c-6.53-3.2-12.69-7.42-19.5-9.75c-8.44-2.88-14.811-8.33-20.36-14.54c-3.85-4.32-6.53-10.07-8.35-15.63
				c-1-3.05,0.71-7.07,1.51-10.58c1.35-5.97,7.96-11.56,14.03-12.42c3.609-0.51,7.17-1.35,10.739-2.12
				c5.591-1.22,11.091-4.15,16.94-1.75c6.7,2.74,13.5,5.42,19.81,8.94c6.45,3.61,12.521,7.97,18.44,12.42
				c6.93,5.21,7.68,9.9,3.54,17.51c-0.53,0.97-1.09,1.93-1.64,2.9c-0.07,0-0.141,0-0.221,0c0.011,0.04,0.021,0.08,0.04,0.12
				c-3.08-0.45-6.34-1.72-9.18-1.09c-4.68,1.04-7.58-1.7-10.85-3.63c-5.101-3-9.75-6.81-14.98-9.56c-4.14-2.19-8.78-3.5-13.33-4.78
				c-1.62-0.46-3.59,0.33-5.46,0.55c1.12,1.84,1.71,3.17,2.62,4.22c1.03,1.18,2.47,3.1,3.52,2.97c4.101-0.5,7.87-1.03,10.171,3.51
				c0.149,0.29,1.22,0.05,1.819,0.21c1.91,0.5,4.01,0.72,5.65,1.71c2.68,1.62,4.84,4.23,7.63,5.54c3.42,1.61,7.22,2.96,10.95,3.23
				c3.109,0.23,6.359-1.25,9.51-1.96c0.95,1.73,1.7,3.1,2.46,4.46c0.31-0.15,0.63-0.31,0.94-0.47c-0.49-1.63-0.99-3.27-1.471-4.91
				c0.03,0.01,0.07,0.02,0.101,0.02c0.029-0.05,0.05-0.09,0.08-0.14c6.199-0.06,8.85,4.98,12.14,8.88c2.75,3.27-0.77,6.59-0.63,9.62
				c0.26,5.78-3.45,6.65-7.16,8.25c-4.27,1.85-8.49,3.81-13.42,6.03c4.71,2.45,10.61-0.68,13.26,5.12
				c-0.12-1.09-0.25-2.19-0.39-3.48c6.56,0,12.78,0.29,18.97-0.1c4.76-0.29,9.47-1.51,14.22-2.17c6.511-0.92,13.11-1.31,19.53-2.65
				c6.61-1.37,13-3.81,19.57-5.42c10.93-2.67,21.91-5.12,32.899-7.53c6.881-1.51,14.021-2.12,20.641-4.32
				c5.88-1.95,11.17-5.65,16.81-8.37c8.271-3.99,16.57-7.89,24.97-11.58c1.711-0.75,3.9-0.42,6.19-0.62
				c-0.32-1.24-0.77-2.97-1.19-4.71c-1.39-5.67,7.341-14.67,12.62-12.45c5.53,2.33,8.5-0.52,12.78-4.26
				c-4.02-0.5-7.27-0.31-10.04-1.36c-9.01-3.42-14.91-9.41-15.29-19.79c-0.2-5.73,2.34-9.22,6.97-12.41c5.431-3.74,10.71-3,16.381-2
				c10.989,1.94,21.189,5.03,25.21,17.56c1.109-0.48,2.359-0.68,3.109-1.41c2.271-2.22,4.69-4.42,6.431-7.03
				c2.229-3.33,4.159-6.94,5.659-10.66c1.41-3.51,1.801-7.43,3.17-10.97c3.4-8.76,5.65-17.62,4.301-27.12
				c-0.9-6.37-2.69-12.82-2.29-19.12c0.64-9.8-3.28-18.42-5.3-27.52c-0.921-4.12-2.301-8.28-4.311-11.98
				c-3.7-6.8-7.75-13.33-13.8-18.59c-7.601-6.6-14.58-13.92-21.771-20.98c-0.92-0.9-1.529-2.11-2.239-3.2
				c-2.61-4.04-4.511-8.88-7.99-11.91c-4.12-3.59-9.54-5.76-14.521-8.29c-5.149-2.61-10.609-4.63-15.659-7.41
				c-7.931-4.38-15.391-9.66-23.471-13.7c-10.01-4.98-20.37-9.28-30.72-13.52c-7.88-3.21-15.97-5.93-24.02-8.74
				c-6.73-2.35-13.74-4.02-20.261-6.84c-12.96-5.61-25.81-11.26-40.12-12.53c-1.79-0.16-3.449-1.78-5.35-2.83
				c-1.69,0.3-3.79,0.99-5.89,1c-6.23,0.02-12.46-0.46-18.681-0.32c-12.899,0.3-25.79,0.87-38.68,1.32
				c-2.97,0.1-5.99-0.17-8.91,0.26c-6.63,0.95-13.22,2.18-19.81,3.4c-4.71,0.87-9.4,1.86-14.09,2.88
				c-6.61,1.44-13.19,3.04-19.82,4.44c-11.99,2.53-23.98,5.09-36.01,7.39c-7.96,1.52-15.98,2.7-24,3.86
				c-6.37,0.92-12.771,1.72-19.181,2.33c-6.529,0.61-13.09,1.13-19.64,1.3c-8.17,0.21-15.96-1.34-23.83-3.98
				c-7.27-2.45-14.16-5.04-20.14-9.87c-1.25-1.02-2.67-1.93-4.15-2.56c-6.21-2.67-12.79-4.64-18.64-7.91
				c-11.4-6.39-24.28-3.79-36.25-6.79c-8.82-2.22-18.48-0.8-26.85-5.69c-0.92-0.53-2.25-0.48-3.39-0.47
				c-7.67,0.03-15.35,0.32-23.02,0.13c-7.24-0.18-14.46-0.87-21.69-1.31c-7-0.42-14.01-0.66-20.99-1.25
				c-3.79-0.33-7.51-1.45-11.29-1.83c-6.69-0.68-13.41-1.07-20.11-1.55c-4.88-0.35-9.87-1.44-14.62-0.82
				c-9.1,1.19-18.03,3.56-27.09,5.08c-8.35,1.4-16.77,2.35-25.17,3.45c-13.17,1.73-25.74,5.77-38.28,9.94
				c-6.76,2.25-13.7,4.04-20.32,6.65c-8.3,3.26-16.19,7.6-24.56,10.65c-12.25,4.47-24.58,8.22-36.18,14.75
				c-15.81,8.89-27.46,21.94-39.11,34.97c-6.38,7.13-10.09,16.28-6.92,26.65c0.71,2.31,0.13,4.99,0.49,7.44
				c0.48,3.27,1.24,6.5,2,9.72c0.56,2.39,2.09,4.86,1.76,7.1c-0.49,3.39,1.41,3.82,3.63,4.76c6.84,2.93,13.7,5.83,20.37,9.11
				c4.48,2.2,7.14,9.59,5.9,14.88c-0.82,3.5-4.76,5.89-9.98,6.25c-1.69,0.12-3.36,0.63-5.03,1.03c-1.59,0.39-3.2,1.37-4.72,1.24
				c-4.4-0.4-5.65,0.39-4.77,4.76c1.17,5.83,2.71,11.62,4.55,17.28c3.07,9.44,5.44,19.34,10.06,28c6.26,11.77,9.79,25.55,22.71,33.1
				c9.68,5.66,15.28,15.7,22.88,23.6c5.63,5.87,12.16,11.25,19.21,15.25c7.83,4.45,16.73,7.01,25.11,10.52
				c13.69,5.72,27.26,11.73,41.02,17.27c11.9,4.79,23.97,9.16,36.02,13.58c8.19,3.01,16.33,6.23,25.34,6.12
				c7.27-0.09,14.57,0.58,21.82,0.26c5.55-0.24,11.03-2,16.58-2.22c9.9-0.4,19.87,0.61,29.53-2.82c2.17-0.77,4.85-0.11,6.84-0.11
				c5.02-1.45,9.76-2.82,14.34-4.14c-2.22-5.27-4.28-10.17-6.65-15.82c3.13-1.92,6.5-3.93,9.8-6.06c1.03-0.67,2.39-1.51,2.7-2.54
				c3.37-11.19,13.22-14.65,22.439-18.44c10.82-4.44,22.19-1.78,33.301-1.04C415.71,617.77,422.35,623.78,426.73,632.78z
				 M975.76,492.8c0.24,6.25,3.33,9.19,8.41,12.36c-2.09,1.76-3.97,3.34-6.57,5.52c0.24,4.86,0.23,10.82,0.891,16.7
				c1.279,11.28,0.89,22.34-2.601,33.23c-2.05,6.42-3.81,12.93-5.8,19.37c-4.07,13.14-12.33,23.57-22.33,32.49
				c-7.59,6.77-15.939,12.72-24.3,18.56c-8.72,6.09-17.74,11.78-26.83,17.31c-4.18,2.55-8.95,4.09-13.26,6.45
				c-8.39,4.59-16.8,9.18-24.91,14.24c-5.24,3.27-11.08,3.79-16.76,5.25c-12.8,3.28-25.54,6.8-38.34,10.08
				c-5.95,1.52-11.99,2.69-17.98,4.06c-5.77,1.33-12.03,1.73-17.2,4.3c-8.34,4.14-17.26,5.08-26.06,6.81
				c-3.7,0.73-7.62,0.35-11.43,0.59c-18.2,1.17-36.051-1.16-53.71-5.39c-1.461-0.34-2.921-0.88-4.391-0.94
				c-14.31-0.54-25.84-8.26-38.07-14.36c-7.939-3.95-16.329-7.06-24.64-10.23c-6.81-2.61-13.66-5.41-20.75-6.95
				c-11.52-2.49-22.8-7.22-35.07-4.59c-2.97,0.64-6.189,0.05-9.29,0.06c-12.899,0.04-25.84-0.47-38.68,0.38
				c-6.93,0.46-13.92,2.69-20.5,5.16c-6.57,2.47-13.09,4-20.09,3.96c-1.33,0-2.58,1.7-4.01,2.24c-4.311,1.63-8.601,3.39-13.05,4.48
				c-2.4,0.58-5.25-0.68-7.66-0.1c-6.36,1.53-12.521,3.94-18.9,5.37c-6.21,1.38-12.6,1.93-18.89,2.92
				c-5.76,0.91-11.431,1.25-17.271,0.02c-5.25-1.1-10.68-1.39-16.05-1.81c-1.73-0.13-3.61,0.17-5.25,0.74
				c-10.02,3.47-19.9,7.38-30.82,6.81c-1.05-0.06-2.21,0.6-3.2,1.14c-9.36,5.15-19.04,8.72-30.06,7.18
				c-9.01-1.25-17.49,2.54-26.31,3.16c-4.55,0.31-9.16-0.39-13.73-0.15c-17,0.88-31.6-7.98-47.38-11.93
				c-13.87-3.47-26.82-10.58-40.17-16.12c-13.12-5.45-26.06-11.24-39.68-15.61c-14.96-4.8-29.39-11.12-40.04-23.85
				c-7.7-9.21-16.47-17.53-24.45-26.51c-3.6-4.06-7.2-7.9-9.49-13.37c-3.63-8.69-9.94-16.22-14.21-24.69
				c-4.22-8.39-7.71-17.22-10.81-26.1c-3.1-8.89-5.65-18.02-7.8-27.19c-1.54-6.54-1.68-13.41-3.06-20
				c-1.11-5.27-3.26-10.32-4.72-15.53c-0.56-2.02-1.46-4.94-0.53-6.19c2.39-3.19,1.26-6.12,0.93-9.34
				c-0.65-6.22-0.05-12.68-1.52-18.66c-3.7-15-0.43-28.34,6.52-41.75c6.56-12.64,16.97-21.48,26.84-31
				c3.19-3.08,6.39-6.15,9.44-9.36c5.61-5.9,11.88-10.48,19.76-13.22c6.78-2.35,13.02-6.21,19.64-9.09
				c3.61-1.56,7.56-2.32,11.26-3.7c5.91-2.22,12.35-3.04,17.21-7.99c1.67-1.7,5.32-1.32,7.92-2.27c6.81-2.48,13.49-5.29,20.32-7.69
				c1.77-0.62,3.89-0.25,5.96-0.34c1.43-1.1,2.77-2.81,4.45-3.27c5.22-1.45,10.8-1.85,15.85-3.7c13.29-4.88,27.17-4.79,40.96-5.91
				c6.38-0.52,12.67-2.26,19.05-2.94c9.77-1.06,19.58-2.09,29.39-2.32c4.83-0.11,9.69,1.66,14.55,2.45
				c2.05,0.34,4.17,0.31,6.25,0.52c5.56,0.57,11.11,1.45,16.69,1.7c8.41,0.38,16.84,0.07,25.24,0.51c8.47,0.44,16.9,1.53,25.36,2.16
				c7.51,0.56,15.76-0.92,22.38,1.75c10.109,4.08,20.37,3.31,30.56,4.63c3.74,0.48,7.721-0.32,11.34,0.53
				c6.08,1.45,12.061,3.47,17.891,5.75c10.16,3.99,21.02,7.05,29.979,12.95c8.41,5.54,17.32,8.23,26.601,10.16
				c5.3,1.1,11.1-0.15,16.67-0.31c1.95-0.05,3.89-0.01,6.29-0.01c1.79-5.08,6.96-2.72,10.72-3.2c7.19-0.92,14.58-0.21,21.75-1.19
				c7.6-1.04,15.021-3.34,22.55-4.95c11.12-2.38,22.28-4.57,33.4-6.98c3.359-0.72,6.66-1.8,9.939-2.85
				c8.11-2.61,16.5-2.45,24.86-3.02c6.75-0.45,13.39-2.17,20.13-2.95c3.41-0.4,6.92,0.15,10.391,0.09
				c12.76-0.2,25.52-0.78,38.27-0.63c13.26,0.16,26.53,1,39.33,4.89c6.71,2.04,13.31,4.46,19.84,7.03
				c6.771,2.67,13.26,6.06,20.1,8.53c5.74,2.08,11.79,3.35,17.73,4.89c9.46,2.45,18.58,5.44,27.13,10.56
				c5.86,3.5,12.86,5.04,19.271,7.66c2.979,1.22,5.85,2.79,8.64,4.42c7.14,4.16,14.56,7.96,21.18,12.85
				c4.391,3.25,9.311,4.35,14.03,6.39c8.28,3.59,16.72,7.6,21.75,15.44c2.83,4.41,6.15,8.93,5.09,15.46
				c-0.43,2.61,3.86,6.77,6.91,8.92c2.5,1.77,4.4,3.53,5.9,6.11c5.069,8.69,12.21,15.89,18.01,23.91
				c4.64,6.43,11.91,11.86,12.25,21.53C971.11,481.17,975.53,486.91,975.76,492.8z"/>
			<path d="M254.16,618.31c7.04,3.16,13.82,7.17,22.06,6.44c4.5-0.41,9.04-0.37,13.57-0.48c2.33-0.06,4.66-0.01,6.98-0.01
				c0.01-0.54,0.01-1.07,0.01-1.61c-0.91-0.2-1.87-0.26-2.71-0.61c-11.27-4.73-22.52-9.52-33.79-14.24
				c-0.54-0.23-1.27-0.03-1.91,0.03c-2.06,0.16-4.12,0.46-6.19,0.51c-3.73,0.08-7.46,0.02-11.19,0.02
				c-0.21,0.48-0.41,0.96-0.61,1.44c1.68,1.3,3.26,2.77,5.07,3.87C248.27,615.36,251.17,616.96,254.16,618.31z M311.94,614.23
				c0.97,3.54,4.03,6.51,6.15,9.74c0.61-0.16,1.22-0.31,1.83-0.47c-0.61,2.54-1.78,5.1-1.65,7.59c0.09,1.68,1.67,3.84,3.2,4.76
				c2.93,1.76,7.07,2.21,4.53,7.37c-0.27,0.56,1.3,2.03,1.55,2.39c-1.43,2.39-2.62,4.24-3.66,6.18c-1.65,3.04-10.3,6.15-13.19,4.04
				c-6.15-4.51-13-3.92-19.94-3.99c-7.07-0.07-14.25-0.07-21.17-1.31c-4.93-0.88-9.49-3.8-14.24-5.74
				c-7.3-2.98-14.63-5.86-21.91-8.87c-1-0.42-1.93-1.23-2.65-2.06c-2.91-3.38-5.75-6.83-8.59-10.27c-2.34-2.82-5.63-5.36-6.68-8.61
				c-0.94-2.9-0.04-6.88,1.23-9.89c2.03-4.81,4.97-9.25,7.7-13.73c0.53-0.87,1.82-1.47,2.88-1.8c10.12-3.13,20.5-4.03,31.05-3.68
				c10.23,0.34,19.13,4.25,27.79,9.3c4.98,2.91,10.63,4.74,15.46,7.86C305.86,605.77,310.35,608.43,311.94,614.23z"/>
			<path d="M237.88,515.96c12.09-0.62,23.22,2.77,34.45,6.2c0.79,0.24,1.63,0.57,2.22,1.1c4.11,3.8,8.2,7.6,12.21,11.5
				c4.54,4.43,3.47,9.7-2.42,12.18c-1.35,0.56-2.76,0.99-4.14,1.48c-0.12,0.58-0.24,1.16-0.37,1.75c5.87,1.99,11.65,4.33,17.64,5.85
				c4,1.02,8.31,0.86,12.47,1.3c0.6,0.06,1.45,0.42,1.67,0.88c3.5,7.36,8.81,14.24,5.84,23.27c-1.9,5.77-5.58,8.49-11.69,7.35
				c-9.26-1.72-18.5-3.19-27.06-7.98c-5.98-3.35-13.36-4.13-19.55-7.18c-7.07-3.48-13.53-8.2-20.23-12.42
				c-4.31-2.71-8.76-5.24-12.83-8.27c-5.51-4.12-9.24-9.58-8.45-16.78c0.31-2.79,2.01-5.57,3.53-8.08
				C224.99,521.77,229.21,516.4,237.88,515.96z"/>
			<path d="M313.82,369.67c1.95,1.1,3.27,3.66,4.41,5.8c2.97,5.58,5.55,11.36,8.53,16.93c2.01,3.76,0.51,13.79-3.05,16.27
				c-5.03,3.49-10.11,6.99-15.51,9.83c-1.88,0.98-5.1,0.7-7.18-0.2c-12.21-5.31-25.49-5.11-38.17-7.87
				c-7.98-1.73-16.53-2.04-23.13-7.9c-5.8-5.15-6.84-12.79,0.08-19.51c1.91-1.84,5.44-1.97,8.17-3.02c1.52-0.58,2.94-1.43,4.56-2.25
				c-0.51-3.07-0.92-5.64-4.42-6.54c-0.95-0.24-2.12-1.82-2.21-2.87c-0.4-4.75-0.43-9.53-0.64-14.3c-0.03-0.59-0.34-1.17-0.58-1.74
				c-3.75-8.86,3.2-18.37,12.96-17.7c0.61,0.04,1.53,0.18,1.77,0.59c3.3,5.58,7.29,10.93,9.54,16.92c3.36,8.94,0.84,17.34-5.1,24.73
				c-0.57,0.72-0.76,1.76-1.14,2.68c12.72,2.82,25.19,5.59,38.22,8.48c-3.81-4.27-7.5-8.21-10.9-12.38
				c-0.7-0.85-0.91-2.91-0.37-3.82c1.69-2.79,3.66-5.46,5.92-7.8c0.78-0.8,2.93-1.02,4.1-0.57
				C304.49,365.26,309.35,367.14,313.82,369.67z"/>
			<path d="M245.71,464.15c0.45,0.89,1.69,1.66,2.71,1.91c11.26,2.72,22.54,5.4,33.87,7.86c1.12,0.25,3.16-0.61,3.77-1.59
				c4.67-7.48,5.84-7.33,14.07-5.22c9.61,2.45,12.66,10.41,16.37,17.59c1.77,3.42,2.25,8.79,0.83,12.26
				c-1.72,4.18-5.63,7.91-9.46,10.59c-2.39,1.67-6.53,1.79-9.64,1.25c-9.66-1.68-19.43-3.31-28.14-8.23
				c-1.08-0.61-1.56-2.29-2.62-3.94c-1.8,4.99-5.73,3.99-8.67,3.22c-12.12-3.2-23.47-8.14-31.99-17.77
				c-1.86-2.11-2.6-5.24-3.74-7.94c-0.88-2.08-1.43-4.3-2.42-6.31c-0.33-0.68-1.54-1.29-2.37-1.31c-5.12-0.14-7.1-1.64-8.09-6.48
				c-1.83-8.87-1.21-12.47,2.85-16.48c-2.62-4.2-0.61-16.68,3.17-18.04c-0.15-1.28-0.3-2.64-0.44-3.86
				c2.17-2.28,7.59-2.2,10.39-0.32c7.47,4.99,10.6,12.7,12.07,20.88c0.6,3.3-0.6,8.17-2.87,10.46c-3.47,3.51-2.63,5.37,0.56,8.02
				C240.15,458.53,243.43,459.69,245.71,464.15z"/>
			<path d="M122.34,376.93c1.8,0.29,3.62,0.88,5.41,0.79c2.54-0.12,5.05-0.78,7.58-1.13c1.94-0.26,3.91-0.33,5.86-0.6
				c3.18-0.45,6.35-1.03,9.54-1.47c2.12-0.3,4.24-0.51,6.37-0.68c3.53-0.28,6.45-0.82,6.71-5.52c0.25-4.36,7.35-9.69,11.45-8.59
				c1.91,0.51,3.75,2.54,4.9,4.35c3,4.72,5.81,9.59,8.32,14.59c3.09,6.14-0.52,15.96-7.33,18.65c-6.1,2.4-12.6,3.86-19.01,5.36
				c-5.62,1.32-11.33,2.67-17.06,3c-5.62,0.33-11.33-0.44-16.97-1.03c-5.71-0.59-11.37-1.61-17.07-2.34
				c-2.88-0.37-5.97,0.24-6.53-4.23c-0.21-1.74-2.9-3.06-3.53-4.9c-1.16-3.38,1.4-9.57,4.86-11.11c5.23-2.33,10.76-3.97,16.15-5.91
				C122.11,376.42,122.22,376.67,122.34,376.93z"/>
			<path d="M109.16,539.64c-8.8,1.86-21.35-1.45-24.07-9.78c-1.03-3.18-3.56-5.92-4.29-9.12c-0.86-3.76,4.78-8.45,8.66-8.06
				c12.15,1.21,24.38,1.82,36.44,3.61c11.63,1.73,22.8,5.57,32.3,12.77c3.17,2.41,6.76,5.96,7.47,9.52c1.02,5.12,0,10.81-1.04,16.07
				c-0.39,2.02-2.96,4.08-5.04,5.19c-6.08,3.26-12.24,6.54-18.72,8.81c-2.76,0.98-6.38-0.5-9.62-0.88
				c-2.96-0.35-6.11-0.19-8.84-1.19c-4.88-1.77-9.92-3.65-14.07-6.63c-2.51-1.8-3.77-5.34-1.55-9.33
				C108.41,547.7,108.33,543.83,109.16,539.64z"/>
			<path d="M138.4,608.88c-10.93,0.67-19.48-4.04-27.44-10.22c-3.22-2.5-8.27-3.44-7.72-9.18c0.21-2.19-0.74-5.14,0.37-6.47
				c4.01-4.82,6.94-11.62,13.4-12.96c3.43-0.72,8.31,1.72,11.41,4.15c4.74,3.71,8.4,8.75,12.69,13.04
				c6.14,6.14,6.65,12.85-1.78,18.75C138.67,606.45,138.7,607.88,138.4,608.88z"/>
			<path d="M86.95,413.27c1.95-0.7,4.63,0.19,6.87,0.78c7.92,2.08,16.57,11.27,14.54,19.05c-1.18,4.51-6.63,9.48-10.56,9.3
				c-6.3-0.3-12.61-5.33-14.56-11.46c-0.43-1.35-1.5-2.5-1.98-3.85C79.86,423.14,83,414.7,86.95,413.27z"/>
			<path d="M78.02,446.09c4.89-1.52,9.75-2.43,13.63,2.32c4.55,5.55,10.65,7.45,17.62,7.73c3.22,0.13,6.47,2.05,9.57,1.74
				c6.46-0.65,12.84-2.23,19.24-3.45c2.52-0.48,4.31-1.31,5.02-4.42c1.13-4.92,6.52-8.22,11.51-7.64c0.99,0.11,2.15,0.9,2.76,1.72
				c4.29,5.78,8.5,11.61,12.64,17.5c1.54,2.19,0.15,12.53-2.08,14.75c-3.58,3.57-7.47,6.27-13.08,6.11
				c-5.73-0.17-11.84-0.48-17.14,1.24c-8,2.61-15.59,1.76-23.27,0.03c-7.42-1.67-14.86-3.54-22-6.15
				c-3.89-1.42-7.19-4.51-10.71-6.92c-0.66-0.44-1.62-1.35-1.52-1.86c1.08-5.6-4.84-7.73-5.04-12.57c0.4-2.64,0.71-5.3,1.27-7.9
				C76.62,447.48,77.32,446.31,78.02,446.09z"/>
		</g>
	</g>
</g>
</svg>
