<?xml version="1.0" encoding="utf-8"?>
<!-- Generator: Adobe Illustrator 16.0.0, SVG Export Plug-In . SVG Version: 6.00 Build 0)  -->
<!DOCTYPE svg PUBLIC "-//W3C//DTD SVG 1.0//EN" "http://www.w3.org/TR/2001/REC-SVG-20010904/DTD/svg10.dtd">
<svg version="1.0" id="Layer_1" xmlns="http://www.w3.org/2000/svg" xmlns:xlink="http://www.w3.org/1999/xlink" x="0px" y="0px"
	 width="1000px" height="1000px" viewBox="0 0 1000 1000" enable-background="new 0 0 1000 1000" xml:space="preserve">
<g>
	<g id="XMLID_2_">
		<g>
			<path fill="#EBEBEB" d="M495.7,535.58c0.53,3.85-0.5,8.34-2.09,11.97c-6.971,15.88-19.07,27.021-33.561,36.24
				c-12.39,7.89-25.66,13.06-39.96,15.52c-11,1.891-22.12,3.12-33.229,4.271c-6.2,0.65-12.591,1.35-18.71,0.58
				c-7.46-0.94-14.84-3.061-22.06-5.3c-8.16-2.54-15.62-6.49-23.09-10.87c-9.66-5.66-18.51-12.37-27.89-18.34
				c-1.05-0.67-1.81-1.811-2.65-2.79c-0.53-0.63-1.09-2.021-1.39-1.95c-5.44,1.21-4.66-4.22-6.89-6.37
				c-4.38-4.24-8.81-8.44-12.91-12.94c-2.6-2.859-3.96-7.449-7.04-9.14c-7.77-4.28-10.28-11.89-14.09-18.79
				c-4.33-7.85-6.4-16.34-7.14-25.189c-0.5-5.95-1-11.891-1.32-17.851c-0.46-8.95,3.45-16.54,9.02-22.86
				c3.19-3.609,8.35-5.5,12.65-8.119c4.47-2.71,9.7-4.641,13.32-8.21c8.78-8.66,19.96-8.04,29.04-9.601
				c9.57,0,17.47-0.09,25.36,0.021c7.87,0.109,15.61,0.909,23.08,3.83c2.67,1.04,5.94,1.67,8.7,1.189
				c13.66-2.39,26.5,0.37,39.08,5.311c7.061,2.77,13.88,6.25,21.11,8.46c7.83,2.39,14.29,6.83,21.06,11.09
				c5.16,3.25,8.391,8.68,14.23,11.149c1.939,0.83,2.52,4.521,4.13,6.58c4.88,6.25,10.85,11.83,14.79,18.61
				C485.19,505.75,493.48,519.52,495.7,535.58z"/>
			<path fill="#EBEBEB" d="M302.09,176.54c2.14-5.04,1.28-13.42-2.22-17.41c-3.81-4.34-11.16-6.52-16.63-3.88
				c-3.81,1.83-7.42,4.7-10.19,7.9c-1.95,2.25-2.55,5.79-3.38,8.859c-0.75,2.811-1.15,5.73-1.42,8.641
				c-0.25,2.699-1.09,5.939,0.02,8.05c2.26,4.26,6.09,7.68,8.46,11.899c2.13,3.801,5.17,3.601,8.5,3.681c1.37,0,3.1,0.54,4.05-0.101
				c3.64-2.439,8.19-4.6,10.16-8.109c1.9-3.391,0.96-8.34,1.4-12.58C301.08,181.15,301.19,178.65,302.09,176.54z M340.07,229.09
				c1.38-4.92,4.35-9.63,0.22-15.08c-1.33-1.75-0.32-5.31-3.63-6.6c-2.64-1.03-5.16-2.4-8.28-3.88
				c-2.09,1.689-4.11,2.989-5.71,4.689c-3.62,3.851-3.99,8.891-4.28,13.78c-0.26,4.51,0.38,8.38,3.68,12.52
				c5.49,6.891,10.25,2.45,15.07,0.471C338.68,234.36,339.47,231.23,340.07,229.09z M369.88,214.17c0.4,0.91-0.24,2.92-1.07,3.6
				c-4.3,3.49-9.12,6.381-13.19,10.11c-5.21,4.78-10.72,9.601-14.58,15.42c-5.18,7.84-10.4,14.98-19.56,17.21
				c-1.92-1.41-3.81-2.569-5.43-4.029c-2.52-2.301-4.63-5.101-7.32-7.171c-10.01-7.71-20.58-14.75-30.18-22.939
				c-7.14-6.101-13.26-13.43-19.52-20.5c-3.43-3.88-5.92-8.601-9.36-12.47c-4.88-5.5-8.66-5.49-13.84-0.07
				c-3.18,3.32-5.41,7.56-8.69,10.75c-8.42,8.18-17.18,16.01-25.81,23.979c-0.55-0.17-1.11-0.35-1.66-0.52
				c-1.23-3.98-2.26-8.021-3.71-11.91c-2.51-6.72-2.96-14.17-7.82-20.11c-1.23-1.5-0.44-4.649-0.6-7.46
				c-0.62-0.14-1.78-0.399-3.84-0.869c2.12-1.44,3.44-2.74,5.01-3.32c7-2.561,10.63-11.75,7.04-18.14
				c-0.56-1.011-1.51-2.141-1.4-3.12c0.58-5.46-3.82-6.101-7.17-7.101c-4.41-1.31-10.21-0.3-11.52,3.44
				c-1.42,4.06-6.49,8.03-2.99,13.35c0.07,0.101-0.02,0.33-0.07,0.48c-2.09,6.319,2.41,9.71,6.39,13.91
				c-3.03,3.56-6.1,7.18-9.19,10.779c-1.08,1.25-2.51,2.311-3.24,3.74c-1.85,3.6-3.55,4.68-7.73,2.34
				c-2.63-1.47-6.66-0.53-10.05-0.439c-0.81,0.02-1.86,0.77-2.35,1.479c-1.41,2.04-2.19,4.66-3.93,6.28
				c-4.07,3.76-2.58,7.96-1.57,11.96c-2.34,2-4.45,3.81-6.57,5.61c-0.51,0.43-1.05,1.13-1.6,1.14c-6.93,0.229-10.32,6.43-15.71,9.22
				c-3.24,1.681-6.45,3.54-9.87,4.73c-4.89,1.7-7.66-0.681-6.52-5.58c0.96-4.11,2.24-8.23,4.01-12.05
				c4.03-8.7,7.98-17.511,12.91-25.71c2.54-4.21,7.14-7.16,10.75-10.74c3.62-3.58,6.88-7.59,10.79-10.8
				c6.51-5.341,13.46-10.15,20.16-15.261c7.06-5.37,13.97-10.939,21.1-16.22c5.5-4.07,6.46-10.65,9.46-16.1
				c2.6-4.721,4.83-9.66,7.48-14.36c0.58-1.03,2.18-1.88,3.43-2.08c4.5-0.71,9.05-1.41,13.6-1.53c3.36-0.09,6.86,0.28,10.08,1.2
				c9.86,2.811,19.63,5.97,29.42,9.021c4.85,1.52,9.71,3.04,14.51,4.72c1.81,0.64,3.46,1.72,5.18,2.62
				c12.12,6.39,24.23,12.81,36.36,19.18c6.05,3.18,12.37,5.93,18.13,9.561c2.78,1.76,4.51,5.159,6.8,7.729
				c2.32,2.59,4.31,5.92,7.21,7.47c10.34,5.511,15.67,14.9,20.6,24.75C365.1,204.27,367.66,209.15,369.88,214.17z"/>
			<path d="M929.66,462.66c0.13,0.609,0.07,1.35-0.15,1.939c-3,8.19-3.359,17.37-8.979,24.57c-4.09,5.23-8.38,10.311-12.65,15.53
				c-4.04-1.91-7.11-3.95-10.479-4.851c-7.091-1.88-11.08-7.38-15.67-12.25c-0.53-0.55-0.78-1.439-0.99-2.22
				c-2.65-9.83-5.391-19.63-7.8-29.52c-0.601-2.44-0.091-5.141-0.091-7.601c11.82-5.609,24.08-4.85,35.931-6.27
				c1.85-0.221,3.97,1.279,5.89,2.16C922.71,447.84,927.8,453.96,929.66,462.66z"/>
			<path d="M858.27,646.26c1.181,1.42,0.721,4.311,0.75,6.53c0.021,1.53-0.42,3.07-0.789,5.46c-5.23,4.58-11.69,3.47-17.54-2.19
				c-2.57-2.47-6.69-3.25-9.9-5.17c-7.56-4.52-9.1-15.569-2.96-21.189c1-0.91,2.86-1.46,4.22-1.3
				C843.81,629.83,851.27,637.86,858.27,646.26z"/>
			<path d="M855.98,548.09c0.789,4.25-4.761,12.44-8.99,13.391c-6.971,1.55-9.521,4.029-9.66,14.239
				c-0.1,7.761-6.08,15.21-13.811,15.75c-1.22,0.09-3.029-0.35-3.659-1.2c-2.261-3.119-5.11-6.289-5.95-9.869
				c-1.59-6.74-1.891-13.78-2.83-20.681c-0.71-5.239,1.189-9.62,3.92-13.91c1.21-1.89,1.81-4.18,2.53-5.899
				c3.27-1.771,5.81-3.8,8.68-4.521c3-0.76,6.6-1.109,9.44-0.149c5.739,1.96,12.38,1.96,17.01,6.479
				C854.31,543.33,855.56,545.82,855.98,548.09z"/>
			<path d="M753.91,440.92c6.33-0.51,12.83-1.04,17.939-6.36c-0.79-1.3-1.369-2.71-2.34-3.77c-3.689-4.05-6.45-8.73-12.31-10.91
				c-4.87-1.81-8.851-6.01-13.141-9.27c-0.699-0.53-1-1.66-1.359-2.561c-1.86-4.67-4.67-5.91-9.4-4.47
				c-4.229,1.29-8.43,1.58-10.979-1.03c-3.101,0-5.431,0.601-7.23-0.12c-4.33-1.76-9-3.449-12.46-6.42
				c-5.1-4.38-8.16-10.52-8.5-17.37c-0.27-5.39,0.17-10.87,0.82-16.239c0.5-4.2-1.34-4.551-4.811-4.67
				c-6.17-0.211-10.38,3.939-15.25,6.359c-8.37,4.17-16.279,8.87-26.01,3.95c-1.35-0.68-3.899-0.32-5.229,0.57
				c-4.99,3.33-9.771,7.01-14.5,10.72c-1.931,1.51-2.16,3.11,0.47,4.57c4,2.239,7.689,5.069,11.79,7.1
				c4.34,2.14,8.49,4.44,9.22,9.58c0.61,4.24,4.29,8.37,0.93,12.92c-0.079,0.11,0.28,0.54,0.7,1.31
				c7.721-1.38,15.57-3.01,23.49-4.14c8.81-1.26,17.81-3.47,26.08,2.1c2.21,1.5,4.14,3.431,6.37,4.881
				c6.319,4.1,6.58,12.569,0.42,16.76c-6.43,4.39-10.22,10.47-12.36,19.49c4.74-1.051,8.44-1.631,12-2.71
				c7.561-2.29,15.04-4.82,22.55-7.28c3.091-1.01,6.091-2.68,9.24-3C744.62,440.44,749.32,441.3,753.91,440.92z M823.19,461.75
				c0.05,1.84-0.091,3.94-0.99,5.42c-0.48,0.79-2.72,0.5-4.66,0.771c-0.26,4.17-2.79,6.069-7.76,4.819
				c0.1-4.92-3.07-6.54-8.38-7.069c1.35,4.68-0.45,6.75-4.21,8.029c-3.9,1.33-6.98,1.08-9.811-2.189
				c-3.7-4.29-7.67-8.34-11.81-12.811c-2.91,1.03-6.67,2.641-10.58,3.66c-7.25,1.89-14.62,3.33-21.891,5.18
				c-2,0.511-3.75,1.921-5.699,2.73c-6.65,2.77-13.341,5.45-20.021,8.16c-0.46,0.189-1.11,0.24-1.36,0.58
				c-3.09,4.149-8.029,2.63-12.05,3.899c-4.029,1.28-8.2,2.61-12.359,2.771c-2.62,0.1-5.471-1.63-7.96-3.021
				c-2.391-1.34-4.471-3.239-6.62-4.979c-2.8-2.25-6.75-3.62-6.28-8.46c0.06-0.641-1.62-1.46-2.4-2.13
				c1.25-7.801,2.5-15.521,3.87-24.04c-3.899,0.89-7.35,1.68-10.8,2.47c-6.08,1.4-12.33,1.62-17.81-1.29
				c-8.801-4.65-15.25-11.76-15.37-22.27c-0.07-5.051-3.23-9.04-2.681-13.101c-7.89-1.92-15.3-3.37-22.46-5.62
				c-3.52-1.1-6.899-3.29-9.75-5.7c-2.54-2.149-4.55-2.54-7.55-1.21c-4.51,2-8.88,0.46-11.59-3.55c-2.13-3.16-0.95-6.75,1.59-10.859
				c3.25-5.29,9-6.61,13.5-9.811c8.67-6.18,17.891-11.59,26.98-17.17c6.8-4.17,13.67-8.24,20.649-12.08
				c2.721-1.49,5.48-2.21,8.84-0.09c3.551,2.26,7.551,1.79,12.11,0.82c5.78-1.221,9.07-5.391,13.83-7.5
				c1.91-0.841,4.13-1.301,6.22-1.341c7.2-0.149,14.75-1.39,21.5,0.351c6.46,1.67,13.511,4.92,17,11.399
				c1.82,3.36,1.88,7.83,2.141,11.83c0.33,5.19,0.08,10.431,0.08,15.7c6.02,1.04,12.35,1.181,17.899,3.32
				c6.59,2.54,12.891,5.78,17.96,11.56c5.13,5.84,12.07,10.08,18.13,15.12c2,1.66,3.63,3.79,5.641,5.45
				c3.87,3.2,7.779,6.39,11.89,9.28c5.35,3.75,10.91,7.2,16.38,10.779c0.141,0.091,0.38,0.101,0.45,0.21
				c4.96,9.25,15.18,15.641,14.94,27.74C821.92,458.92,823.15,460.33,823.19,461.75z"/>
			<path d="M770.97,854.53c0.45,1.569-2.12,4.52-3.939,6.149c-4.3,3.84-9.601,3.9-14.98,2.891c-4.78-0.9-6.069-3.37-4.71-8.12
				c0.63-2.17,0.53-4.561,0.88-8.061c4.46-3.38,10.33-3.949,16.79-2.569C770.62,846.01,769.95,851.01,770.97,854.53z"/>
			<path d="M514.14,856.96c1.46-1.4,2.98-2.74,4.471-4.11c-0.33-0.43-0.66-0.859-0.99-1.29c-8.18,3.54-15.79,7.931-22.79,14.221
				c6.99,4.239,8.689,3.66,12.16-1.58C508.82,861.42,511.7,859.33,514.14,856.96z M753.51,759.58c3.63,0.6,7.36,0.58,11.05,0.84
				c-4.689-6.84-8.119-12.54-4.89-20.41c1.16-2.83,0.48-6.42,0.63-9.49c-5.399,0.721-9.6,1.11-13.72,1.881
				c-5.96,1.109-11.82,3.119-17.811,3.54c-3.939,0.279-5.63,1.659-6.859,5c-1.601,4.369-3.54,8.619-5.66,13.699
				c4.03,0.54,8.26,4.08,13.5,1.54c0.98-0.47,2.3-0.68,3.36-0.489C739.92,756.93,746.68,758.46,753.51,759.58z M778.52,760.1
				c6.66,6.12,29.75,0.891,35.591-12.01C801.5,749.98,790.41,755.09,778.52,760.1z M898.11,654.73
				c0.069,5.34-1.141,10.72-1.971,16.05c-0.67,4.239-1.25,8.58-2.63,12.609c-1.2,3.511-3.01,7.021-5.34,9.9
				c-4.18,5.18-7.54,10.62-10.36,16.74c-4.739,10.29-11.029,19.479-20.17,27.029c-8.649,7.15-17.01,14.86-23.54,24.521
				c-6.439,9.55-14.06,18.76-25.06,23.67c-4.1,1.82-9.18,1.47-13.24,3.34c-7.09,3.271-14.3,1.59-21.45,1.69
				c-3.83,0.05-7.659-1.19-11.52-1.54c-5.61-0.521-11.25-0.71-16.86-1.17c-1-0.08-1.96-0.75-3.989-1.58
				c-0.641,7.38-1.2,14.14-1.83,20.899c-0.17,1.891-0.03,4.03-0.87,5.61c-5.66,10.59-13.45,19.46-23.17,27.51
				c1.67,3.16,2.989,6.99,5.399,9.91c4.15,5.021,2.44,10.021,0.51,14.78c-1.869,4.609-7.22,4.76-10.76,4.22
				c-8.85-1.32-16.2,1.7-22.59,6.68c-10.08,7.86-21.9,12.431-32.729,18.811c-2.44,1.43-4.9,2.81-7.4,4.13
				c-2.1,1.12-3.9,1.39-6.67,0.84c-3.64-0.729-7.95,1.03-11.79,2.271c-6.39,2.05-12.63,4.59-18.96,6.83
				c-1.271,0.449-14.29-1.19-15.7-1.75c-7.47-2.99-15.29-2.591-23.08-2.33c-5.2,0.17-10.109,0.54-15.35-1.7
				c-5.69-2.431-12.11-2.17-18.601-1.92c-8.68,0.34-17.949,3.02-26.33-1.62c-8.38-4.65-18.84-3.78-26.5-9.19
				c-6.199-4.39-13.27-1.95-19.329-4.96c-1.12-0.56-2.91,0.2-4.381,0.41c-5.619,0.83-9.689-2.4-12.06-7.65
				c-1.67-3.68-1.771-6.699-0.54-10.329c0.5-1.44-0.3-3.33,0.22-4.58c1.141-1.79,1.971-3.91,3.49-5.271
				c1.87-1.67,4.18-3.359,6.54-3.859c3.24-0.681,5.57-2.03,8.1-4.221c4.42-3.83,9.521-6.93,14.49-10.09
				c3.73-2.37,7.9-4.06,11.53-6.56c8.53-5.87,18.8-6.12,28.16-9.25c3.7-1.24,7.42-2.641,10.819-4.53
				c4.881-2.73,9.36-6.19,14.261-8.87c1.56-0.85,3.939-0.229,5.939-0.26c1.76-0.021,3.51,0,5.51-0.92
				c-7.76-1.891-11.25-8.431-16.02-13.311c-3.48-3.55-6.2-7.85-9.74-11.33c-1.92-1.89-4.7-3.489-7.319-3.96
				c-6.61-1.199-9.86-6.26-13.641-10.739c-3.67-4.341-6.5-9.57-10.7-13.261c-7.569-6.64-10.899-15.46-14.159-24.35
				c-3-8.19-3.631-16.92-3.19-25.55c0.14-2.82,2.68-5.561,4.21-8.28c5.09-9.06,9.29-18.82,15.62-26.9
				c5.12-6.529,11.26-12.729,19.77-16c10.32-3.97,20.181-9.119,30.21-13.81c7.431-3.48,14.58-7.79,22.311-10.36
				c6.229-2.069,13.13-2.14,19.74-3.01c2.46-0.33,5.029-0.1,7.399-0.68c7.96-1.971,15.49,0.39,23.05,2.05
				c6.681,1.47,13.261,3.43,19.86,5.26c4.08,1.141,16.22,9.931,19.01,13.641c-1.1,2.52-1.819,5.369-3.47,7.51
				c-0.9,1.16-3.34,1.38-5.13,1.54c-2.36,0.21-4.78-0.21-7.16-0.08c-4.63,0.25-8.979-0.101-13.52-1.74
				c-5.051-1.83-10.66-2.06-15.971-3.229c-9.47-2.07-18.83-1.921-28.359-0.011c-3.25,0.65-6.94-0.83-10.28-1.319
				c-1.93,1.01-4.04,1.949-5.97,3.159c-3.851,2.421-7.601,5.011-11.4,7.5c-3.86,2.53-7.54,5.421-11.64,7.471
				c-6.431,3.21-13.12,5.95-19.761,8.71c-10.659,4.42-16.96,13.109-22.46,22.6c-1.97,3.4-3.859,6.86-5.54,10.41
				c-0.579,1.22-0.729,2.86-0.529,4.23c1.569,10.699,5.54,20.43,12.359,28.869c3.891,4.811,7.99,9.45,12.12,14.051
				c0.721,0.79,2.07,1,3.11,1.51c4.01,1.939,8.21,3.59,11.939,5.96c1.721,1.09,2.641,3.52,3.771,5.439
				c6.29,10.62,15.32,15.811,27,16.74c9.67,0.771,19.2,3.141,28.8,4.74c1.73,0.29,3.51,0.37,5.26,0.47
				c0.811,0.05,1.69-0.34,2.41-0.109c14.811,4.71,29.03,2.029,43.11-3.221c6.29-2.35,12.72-4.29,19.05-6.51
				c1.11-0.39,2.06-1.229,3.49-2.13c-3.32-1.89-6.04-3.36-8.67-4.97c-3.73-2.29-4.4-5.351-2.45-9.15c1.34-2.61,2.25-5.45,3.5-8.12
				c0.75-1.62,1.439-3.529,2.75-4.58c6.02-4.8,11.7-10.09,19.32-12.569c4.989-1.63,5.5-4.841,6.729-10.091
				c1.29-5.539,1.75-11.34,6.771-16.27c5.46-5.36,10.8-7.09,17.899-7.02c5.26,0.039,10.58-0.891,15.78-1.851
				c4.57-0.85,4.88-2.76,2.17-6.58c-3.53-4.97-8.2-9.81-9.64-15.41c-1.57-6.14-5.28-12.63-1.61-19.659
				c1.68-3.221,1.2-7.66,3.09-10.65c2.26-3.561,5.82-6.41,9.21-9.061c1.63-1.27,4.181-1.369,6.76-2.13
				c-4.85-7.479-9.3-14.68-14.069-21.659c-6.59-9.631-4.38-22.381,4.92-30.021c6.09-5,12.439-4.82,18.89-5.55
				c16.45-1.891,32.73,0.58,48.96,3.08c1.021,0.16,2.55,1.72,2.601,2.7c0.189,3.21,1.67,4.489,5.319,4
				c-0.62,3.159-0.979,5.93-1.75,8.569c-0.609,2.08-1.52,4.271-4.58,2.771c-0.35-0.17-1.21,0.47-1.71,0.88
				c-1.56,1.28-3.06,2.62-4.779,4.109c-1.221-1.75-2.03-2.899-2.841-4.05c-0.21,0.08-0.42,0.17-0.619,0.261
				c0.239,1.189,0.479,2.369,0.64,3.159c-6.05,0-12.09,0.16-18.11-0.149c-1.069-0.061-2.029-2.13-2.989-3.21
				c-1.04,2.27-5.921,3.84-9.181,2.899c-0.96-0.279-2.06-0.069-3.09-0.08c0.021,1.11-0.37,2.49,0.14,3.29
				c5.07,7.851,10.29,15.601,15.49,23.37c0.641,0.95,2.13,2.021,1.96,2.74c-1.6,6.88,3.29,14.9-3.67,20.88
				c-1.02,0.89-1.38,2.55-2.189,4.15c-6.33,1.02-12.851,2.069-20.311,3.279c2.16,4.471,3.811,8.33,5.82,11.99
				c2.22,4.03,4.729,7.91,7.2,11.8c2.25,3.57,4.02,7.15,3.55,11.62c-0.55,5.29-0.67,10.62-1.021,16.65
				c1.25-0.09,3.261-0.09,5.23-0.37c6.11-0.9,12.31-3.22,18.37-1.21c7.67,2.55,15.939,5.05,18.899,13.93
				c1.16,3.5,1.061,7.41,1.7,12.471c2.25-1.99,4.16-3.28,5.54-5c2.99-3.721,5.38-7.96,8.64-11.4c3.141-3.31,7.061-5.89,11.49-9.49
				c-1.54-1.12-3.02-3.09-4.55-3.13c-4.49-0.12-6.34-3.28-8.28-6.27c-2.229-3.45-3.939-7.25-6.18-10.69
				c-0.7-1.07-2.39-2.06-3.65-2.1c-4.29-0.13-8.6,0.12-12.899,0.33c-7.22,0.34-16.681-6.37-17.891-13.551
				c-0.439-2.649,0.71-5.909,2.03-8.42c1.26-2.38,3.57-4.569,6.811-2.14c9.52-4.23,18.239,1.939,27.359,2.689
				c6.42,0.53,13.811,4.721,16.79,11.99c2.98,7.26,5.09,14.87,7.96,23.45c2.03-1.89,5.05-3.43,6-5.8
				c4.271-10.641,11.17-19.45,17.95-28.47c2.07-2.75,2.45-7.08,2.771-10.761c0.289-3.399-0.41-6.93-0.95-10.35
				c-0.24-1.561-0.891-4.12-1.811-4.34c-4.81-1.17-6.42-5.471-9.39-8.45c-3.13-3.14-6.811-5.72-10.16-8.65
				c-1.11-0.97-1.93-2.26-3.33-3.949c0.05,0-1.76,0.449-2.13-0.08c-2.78-4.061-6.11-8.091-4.57-13.57
				c0.29-1.021,1.38-1.99,2.341-2.63c1.619-1.09,3.72-1.58,5.1-2.88c3.93-3.73,3.01-8.75-2.2-12.13
				c-5.83-3.78-8.43-8.641-7.05-15.78c1-5.2,1.28-10.561,5.76-14.17c2.42-1.94,5.11-3.59,7.88-4.98c0.86-0.439,2.79-0.06,3.511,0.67
				c4.59,4.63,9.17,9.301,13.34,14.29c2.04,2.44,3,5.74,4.8,8.41C890.94,608.09,897.8,630.44,898.11,654.73z M623.18,873.79
				c-0.05-0.35-0.1-0.7-0.149-1.04c-2.34-1.02-4.681-2.04-6.54-2.85c-2.04,2.34-3.91,4.489-5.79,6.64c0.1,0.29,0.189,0.59,0.28,0.89
				C615.05,876.21,619.12,875,623.18,873.79z M577.15,812.79c-0.141-0.43-0.28-0.86-0.42-1.29c-2.53-0.28-5.061-0.57-8.15-0.91
				c-0.23,2.48-0.42,4.63-0.72,7.98C571.68,816.19,574.42,814.49,577.15,812.79z"/>
			<path d="M709.4,645.59c0.729,0.76,1.149,1.53,1.79,1.82c7.3,3.37,7.489,3.76,6.029,11.29c-0.31,1.609,0.03,4.55-0.51,4.7
				c-4.229,1.14-8.16,4.489-13.08,1.5c-6.41-3.9-13.24-7.08-18.5-12.71c-2.43-2.61-5.71-4.46-7.96-7.2
				c-3.25-3.96-5.91-8.42-8.76-12.57c5.04-4.7,10.14-5.78,15.42-4.76c5.11,0.99,10.17,1.91,14.24,6.26
				c3.97,4.271,6.88,10.44,14.76,9.79c-0.25,0.58-0.51,1.16-0.76,1.74C711.33,645.49,710.6,645.53,709.4,645.59z"/>
			<path d="M623.97,582.98c0.88,4,0.561,8.56-0.35,12.6c-1.45,6.4-6.13,6.35-12.84,4.84c-3.99-0.89-8.03-1.7-12.101-2.11
				c-8.02-0.81-16.069-1.39-24.109-1.909c-3.261-0.21-6.59,0.39-9.801-0.03c-7.569-0.99-13.409-4.63-13.18-12.44
				c0.101-3.27,0.851-6.63,2-9.689c0.351-0.91,3.07-1.41,4.65-1.29c4.59,0.319,9.149,1.49,13.729,1.5
				c5.19,0.02,10.38-0.84,15.57-1.33c0.04-0.42,0.07-0.851,0.1-1.271c-2.68-1.14-5.319-2.39-8.05-3.38
				c-6.18-2.239-10.14-9.22-7.54-15.109c1.16-2.62,4.47-4.41,7.03-6.271c1.99-1.43,4.28-2.46,6.51-3.52
				c1.17-0.551,2.59-1.25,3.75-1.051c8.811,1.511,17.05,3.271,22.58,12.061C617.55,563.52,621.74,572.84,623.97,582.98z"/>
			<path d="M430.26,709.66c0.5,0.53,0.971,1.53,0.82,2.14c-1.64,6.48-1.97,13.07-5.7,19.28c-4.75,7.89-7.62,16.939-11.16,25.54
				c-3.05,7.42-11.12,10.33-18.109,8.5c-0.79-0.21-1.471-0.78-2.261-1.021c-5.97-1.819-8.21-6.04-8.939-12.05
				c-1.17-9.569-3.01-19.05-4.76-28.54c-0.381-2.05-1.11-4.569-2.58-5.71c-1.09-0.84-3.65,0.41-5.551,0.38
				c-2.729-0.05-5.459-0.41-8.479-0.67c-0.86-8.26,1.28-11.74,7.84-15.33c2.74-1.489,5.11-4.14,7.57-5.87
				c4.46-3.149,9.85-5.92,15.91-5.159c5.72,0.72,11.5,1.3,17.109,2.59c2.521,0.58,4.971,2.43,6.94,4.26
				C422.89,701.68,426.54,705.71,430.26,709.66z"/>
			<path d="M340.29,214.01c4.13,5.45,1.16,10.16-0.22,15.08c-0.6,2.141-1.39,5.271-2.93,5.9c-4.82,1.979-9.58,6.42-15.07-0.471
				c-3.3-4.14-3.94-8.01-3.68-12.52c0.29-4.89,0.66-9.93,4.28-13.78c1.6-1.7,3.62-3,5.71-4.689c3.12,1.479,5.64,2.85,8.28,3.88
				C339.97,208.7,338.96,212.26,340.29,214.01z"/>
			<path d="M368.15,604.16c6.12,0.77,12.51,0.07,18.71-0.58c11.109-1.15,22.229-2.38,33.229-4.271c14.3-2.46,27.57-7.63,39.96-15.52
				c14.49-9.22,26.59-20.36,33.561-36.24c1.59-3.63,2.62-8.12,2.09-11.97c-2.22-16.061-10.51-29.83-18.45-43.5
				c-3.94-6.78-9.91-12.36-14.79-18.61c-1.61-2.06-2.19-5.75-4.13-6.58c-5.84-2.47-9.07-7.899-14.23-11.149
				c-6.77-4.26-13.229-8.7-21.06-11.09c-7.23-2.21-14.05-5.69-21.11-8.46c-12.58-4.94-25.42-7.7-39.08-5.311
				c-2.76,0.48-6.03-0.149-8.7-1.189c-7.47-2.921-15.21-3.721-23.08-3.83c-7.89-0.11-15.79-0.021-25.36-0.021
				c-9.08,1.561-20.26,0.94-29.04,9.601c-3.62,3.569-8.85,5.5-13.32,8.21c-4.3,2.619-9.46,4.51-12.65,8.119
				c-5.57,6.32-9.48,13.91-9.02,22.86c0.32,5.96,0.82,11.9,1.32,17.851c0.74,8.85,2.81,17.34,7.14,25.189
				c3.81,6.9,6.32,14.51,14.09,18.79c3.08,1.69,4.44,6.28,7.04,9.14c4.1,4.5,8.53,8.7,12.91,12.94c2.23,2.15,1.45,7.58,6.89,6.37
				c0.3-0.07,0.86,1.32,1.39,1.95c0.84,0.979,1.6,2.12,2.65,2.79c9.38,5.97,18.23,12.68,27.89,18.34
				c7.47,4.38,14.93,8.33,23.09,10.87C353.31,601.1,360.69,603.22,368.15,604.16z M519.84,530.3c1.87,8.33-0.25,16.23-3.62,23.66
				c-4.439,9.771-9.09,19.51-14.52,28.75c-3.21,5.47-7.73,10.32-12.32,14.78c-9.76,9.49-20.28,18.16-32.79,23.859
				c-4.13,1.881-8.74,2.7-13.12,4.021c-5.2,1.56-10.31,3.53-15.6,4.63c-9.91,2.04-19.9,3.86-29.93,5.17
				c-2.73,0.35-5.471-0.03-8.341,0.79c-2.47,0.71-5.439-0.31-8.859-0.62c-1.351,2.311-3.61,3.25-7.25,2.061
				c-2.65-0.87-6.03,0.569-8.73-0.23c-7.93-2.37-15.56-5.81-23.56-7.88c-4.1-1.06-7.98-2.38-11.75-4.14
				c-5.69-2.66-11.44-5.21-16.94-8.221c-6.45-3.54-13-7.05-18.88-11.42c-7.04-5.24-13.53-11.26-20.06-17.149
				c-5.69-5.12-11.45-10.23-16.57-15.9c-8.06-8.94-15.69-18.29-23.33-27.6c-1.19-1.45-1.56-3.62-2.2-5.49
				c-1.67-4.9-4.53-9.79-4.66-14.75c-0.27-10.32-2.61-20.32-3.95-30.41c-1.35-10.13-1.13-20.12-0.35-30.04
				c0.38-4.89,4.05-9.58,6.48-14.229c1.12-2.15,3.31-3.801,4.15-6.011c2.81-7.42,10.48-8.37,15.79-12.439
				c2.51-1.92,5.16-3.71,7.43-5.891c2.82-2.72,5.25-5.85,8.03-8.619c0.53-0.53,1.91-0.19,2.5-0.23c2.01-2.22,3.72-5.1,6.25-6.72
				c6.68-4.271,14.01-8.771,22.01-6.69c4.1,1.07,8.39,1.15,12.2,2.51c7.23,2.591,13.63-0.609,20.39-1.42
				c8.5-1.01,17-2.189,25.54-2.739c7.03-0.45,14.29-1.011,21.14,0.22c6.061,1.08,12.35,0.43,18.38,3.649
				c6.19,3.32,13.72,4.03,20.42,6.54c4.011,1.49,7.5,4.311,11.32,6.37c2.14,1.16,4.42,2.66,6.72,2.83
				c5.86,0.45,8.87,5.07,12.99,8.04c0.32,0.24,0.09,1.23,0.12,1.87c0.35-0.29,0.7-0.57,1.05-0.86c4.64,2.08,9.68,3.58,13.83,6.391
				c4.54,3.09,8.31,7.33,12.33,11.17c6.14,5.85,12.479,11.53,18.189,17.78c2.99,3.27,4.851,7.59,7.171,11.46
				c4.09,6.81,8.649,13.409,12.069,20.54c3.25,6.779,5.391,14.1,7.8,21.26C518.06,522.65,518.98,526.48,519.84,530.3z"/>
			<path d="M299.87,159.13c3.5,3.99,4.36,12.37,2.22,17.41c-0.9,2.11-1.01,4.61-1.25,6.95c-0.44,4.24,0.5,9.189-1.4,12.58
				c-1.97,3.51-6.52,5.67-10.16,8.109c-0.95,0.641-2.68,0.101-4.05,0.101c-3.33-0.08-6.37,0.12-8.5-3.681
				c-2.37-4.22-6.2-7.64-8.46-11.899c-1.11-2.11-0.27-5.351-0.02-8.05c0.27-2.91,0.67-5.83,1.42-8.641
				c0.83-3.069,1.43-6.609,3.38-8.859c2.77-3.2,6.38-6.07,10.19-7.9C288.71,152.61,296.06,154.79,299.87,159.13z"/>
			<path d="M270.14,755.95c3.03,10.7,11.06,16.54,18.31,24c4.29-4.771,9.7-8.15,10.34-14.22c-4.6-2.24-8.7-4.421-12.95-6.25
				C281.03,757.42,276.19,755.13,270.14,755.95z M335.64,758.62c1.66,10.89-0.81,14.13-13.05,13.17c-3.6,11.88-8,23.66-6.95,36.46
				c0.29,3.46-0.1,5.78-4.07,6.5c-1.01,0.19-1.77,1.79-3.01,3.14c-6.99-3.37-14.59-5.79-20.69-10.26
				c-8.31-6.08-15.94-13.27-22.99-20.81c-7.39-7.91-13.88-16.69-20.47-25.311c-2.33-3.04-3.99-6.649-5.53-10.189
				c-0.41-0.971,0.73-2.63,1.19-3.95c0.87-2.5,1.76-4.99,2.64-7.48c-0.44-0.279-0.88-0.56-1.33-0.85c1.31-0.61,2.57-1.4,3.94-1.79
				c4.71-1.35,9.45-2.58,14.19-3.82c3.75-0.979,7.26-0.779,11.03,0.69c2.26,0.88,5.35-0.61,7.86-0.08
				c5.91,1.24,11.65,3.25,17.54,4.55c2.79,0.61,4.73,1.38,7.04,3.57c5.36,5.08,12.62,6.96,19.98,6.74
				C328.43,748.74,334.82,753.26,335.64,758.62z"/>
			<path d="M316.05,256.48c1.62,1.46,3.51,2.619,5.43,4.029c9.16-2.229,14.38-9.37,19.56-17.21c3.86-5.819,9.37-10.64,14.58-15.42
				c4.07-3.729,8.89-6.62,13.19-10.11c0.83-0.68,1.47-2.689,1.07-3.6c-2.22-5.02-4.78-9.9-7.24-14.82
				c-4.93-9.85-10.26-19.239-20.6-24.75c-2.9-1.55-4.89-4.88-7.21-7.47c-2.29-2.57-4.02-5.97-6.8-7.729
				c-5.76-3.631-12.08-6.381-18.13-9.561c-12.13-6.37-24.24-12.79-36.36-19.18c-1.72-0.9-3.37-1.98-5.18-2.62
				c-4.8-1.68-9.66-3.2-14.51-4.72c-9.79-3.051-19.56-6.21-29.42-9.021c-3.22-0.92-6.72-1.29-10.08-1.2
				c-4.55,0.12-9.1,0.82-13.6,1.53c-1.25,0.2-2.85,1.05-3.43,2.08c-2.65,4.7-4.88,9.64-7.48,14.36c-3,5.449-3.96,12.029-9.46,16.1
				c-7.13,5.28-14.04,10.85-21.1,16.22c-6.7,5.11-13.65,9.92-20.16,15.261c-3.91,3.21-7.17,7.22-10.79,10.8
				c-3.61,3.58-8.21,6.53-10.75,10.74c-4.93,8.199-8.88,17.01-12.91,25.71c-1.77,3.819-3.05,7.939-4.01,12.05
				c-1.14,4.899,1.63,7.28,6.52,5.58c3.42-1.19,6.63-3.05,9.87-4.73c5.39-2.79,8.78-8.99,15.71-9.22c0.55-0.01,1.09-0.71,1.6-1.14
				c2.12-1.801,4.23-3.61,6.57-5.61c-1.01-4-2.5-8.2,1.57-11.96c1.74-1.62,2.52-4.24,3.93-6.28c0.49-0.71,1.54-1.46,2.35-1.479
				c3.39-0.091,7.42-1.03,10.05,0.439c4.18,2.34,5.88,1.26,7.73-2.34c0.73-1.43,2.16-2.49,3.24-3.74c3.09-3.6,6.16-7.22,9.19-10.779
				c-3.98-4.2-8.48-7.591-6.39-13.91c0.05-0.15,0.14-0.38,0.07-0.48c-3.5-5.319,1.57-9.29,2.99-13.35
				c1.31-3.74,7.11-4.75,11.52-3.44c3.35,1,7.75,1.641,7.17,7.101c-0.11,0.979,0.84,2.109,1.4,3.12
				c3.59,6.39-0.04,15.579-7.04,18.14c-1.57,0.58-2.89,1.88-5.01,3.32c2.06,0.47,3.22,0.729,3.84,0.869
				c0.16,2.811-0.63,5.96,0.6,7.46c4.86,5.94,5.31,13.391,7.82,20.11c1.45,3.89,2.48,7.93,3.71,11.91c0.55,0.17,1.11,0.35,1.66,0.52
				c8.63-7.97,17.39-15.8,25.81-23.979c3.28-3.19,5.51-7.43,8.69-10.75c5.18-5.42,8.96-5.43,13.84,0.07
				c3.44,3.869,5.93,8.59,9.36,12.47c6.26,7.07,12.38,14.399,19.52,20.5c9.6,8.189,20.17,15.229,30.18,22.939
				C311.42,251.38,313.53,254.18,316.05,256.48z M394.36,214.12c1.17,2.93-1.7,7.41-2.561,11.229c-0.31,1.4,0.17,2.98-0.17,4.37
				c-0.56,2.28-0.93,5.03-2.439,6.511c-1.271,1.26-2.62,4.59-6.051,2.289c-0.87-0.579-4.51,0.921-4.979,2.181
				c-2.69,7.08-9.79,9.04-14.66,13.53c-1.42,1.3-3.18,2.579-3.86,4.239c-2.68,6.57-4.59,13.471-7.53,19.9
				c-4.61,10.08-12,17.32-23.22,19.91c-1.92,0.439-3.78,1.37-5.71,1.54c-1.66,0.14-3.87,0.08-5-0.87
				c-5.37-4.561-10.33-9.601-15.69-14.181c-4.35-3.71-9.03-7.039-13.61-10.47c-2.08-1.56-4.34-2.87-6.4-4.46
				c-2.55-1.96-5-4.06-7.44-6.17c-5.16-4.45-10.87-8.45-15.3-13.55c-6.1-7.021-11.22-14.9-16.78-22.4
				c-1.67-2.25-3.43-2.6-4.93,0.101c-2.13,3.819-4.45,7.6-6.07,11.64c-2.77,6.93-8.44,10.9-14.15,14.89
				c-3.27,2.28-6.6,4.511-10.08,6.45c-1.71,0.94-3.83,1.11-5.72,1.75c-0.77,0.26-1.51,0.74-2.14,1.28
				c-3.25,2.74-6.97,4.08-11.04,2.65c-3.93-1.37-6.62-4.351-7.56-8.49c-1.61-7.16-2.81-14.41-6.84-20.8
				c-0.64-1.011-0.49-2.511-0.84-4.601c-3.29,4.11-5.12,8.13-9.98,9.59c-2.04,0.61-3.17,3.83-5.07,5.431
				c-7.33,6.159-15.12,11.81-22.14,18.3c-6.88,6.359-15.21,10.18-23.8,11.75c-6.5,1.18-13.37,1.66-20.06,2.58
				c-5.67,0.779-9.48-2.92-11.93-6.83c-3.38-5.38-4.78-11.61-5.43-18.25c-1.27-12.92,1.75-24.65,7.18-36.04
				c0.94-1.96,2.83-3.47,3.83-5.43c0.68-1.351,0.38-3.171,0.86-4.671c5.54-17.35,16.05-31.239,29.66-43.079
				c5.49-4.79,10.22-10.46,15.76-15.181c9.22-7.819,18.32-15.939,28.4-22.5c7.88-5.13,11.54-12.18,14.32-20.31
				c2.3-6.73,7.89-10.62,12.79-15.07c1.08-0.99,3.11-1.25,4.71-1.26c9.06-0.11,18.13-0.37,27.17,0.09c4.62,0.24,9.15,2,13.77,2.79
				c1.76,0.3,3.68-0.48,5.47-0.26c13.19,1.63,25.04,7.49,37.09,12.45c14.73,6.05,28.61,13.829,41.62,23.119
				c7.24,5.171,14.85,9.82,22.21,14.82c2.46,1.68,4.61,3.8,6.98,5.62c6.73,5.17,14.18,9.62,20.07,15.61
				c5.71,5.81,10.01,13.05,14.581,19.899c2.46,3.681,3.689,8.23,6.359,11.721C391.81,202.47,392.17,208.64,394.36,214.12z"/>
			<path d="M149.25,579.21c2.95,0.78,4.47-0.6,4.23-3.68c-0.15-1.971-0.21-3.99-0.69-5.91c-1.98-7.95-4.06-15.89-6.21-23.8
				c-0.35-1.301-1.25-2.45-1.89-3.681c-0.35,0.16-0.7,0.32-1.05,0.48c0,0.939-0.01,1.89,0.01,2.83c0.09,7.56-2.67,11.93-8.78,13.41
				c-2.01,0.479-4.37-0.16-6.21,0.59c-5.75,2.33-11.33,5.08-16.98,7.66c-0.02,0.649-0.04,1.3-0.06,1.96
				C124.16,572.46,136.69,575.89,149.25,579.21z M181.42,574.81c3.6,7.48,3.05,15.36,1.79,23.051c-0.44,2.71-3.37,5.199-5.56,7.399
				c-2.36,2.351-5.12,1.71-8.25,0.811c-4.48-1.28-9.38-1.03-13.92-2.17c-12.18-3.04-24.29-6.4-36.38-9.78
				c-8.22-2.311-16.4-4.8-24.55-7.34c-3.96-1.23-6.91-5.03-6.67-8.16c-1.04,0.149-2.81,0.72-2.99,0.399
				c-1.71-3.02-4.45-6.25-4.33-9.319c0.16-3.75,2.03-8.04,4.48-10.98c9.56-11.46,22.93-17.17,36.32-22.72
				c3.7-1.53,8.2,0.36,11.54-3.01c0.47-0.471,2.9,0.87,4.33,1.55c0.87,0.41,1.57,1.16,2.34,1.76c0.24-0.29,0.47-0.569,0.7-0.859
				c-2.97-4.421-3.25-8.12,0.8-10.12c3.53-1.74,8.26-1.5,12.42-1.351c2.13,0.08,4.43,1.58,6.23,2.98c2.25,1.74,4.57,3.76,5.98,6.17
				c5.58,9.56,10.23,19.46,11.51,30.75C177.64,567.63,179.72,571.28,181.42,574.81z"/>
			<path d="M103.54,427.14c2.4,5.08-0.48,8.94-1.52,13.16c-0.62,2.561-7.33,2.72-10.49,0.87c-1.76-1.02-3.69-1.83-5.64-2.439
				c-5.72-1.801-15.38-13.431-15.62-19.48c-0.05-1.21,1.35-2.88,2.52-3.66c2.42-1.6,2.84-1.37,4.84,0.23
				c1.86-0.971,3.28-2.351,4.62-2.28c2.75,0.13,5.81,0.43,8.11,1.76C95.51,418.26,100.7,421.12,103.54,427.14z"/>
		</g>
	</g>
</g>
</svg>
