<?xml version="1.0" encoding="utf-8"?>
<!-- Generator: Adobe Illustrator 16.0.0, SVG Export Plug-In . SVG Version: 6.00 Build 0)  -->
<!DOCTYPE svg PUBLIC "-//W3C//DTD SVG 1.0//EN" "http://www.w3.org/TR/2001/REC-SVG-20010904/DTD/svg10.dtd">
<svg version="1.0" id="Layer_1" xmlns="http://www.w3.org/2000/svg" xmlns:xlink="http://www.w3.org/1999/xlink" x="0px" y="0px"
	 width="902.422px" height="857.957px" viewBox="0 0 902.422 857.957" enable-background="new 0 0 902.422 857.957"
	 xml:space="preserve">
<g>
	<g id="XMLID_4_">
		<g>
			<path fill="#FFED66" d="M881.343,391.636c0.129,0.609,0.07,1.35-0.15,1.939c-3,8.19-3.359,17.37-8.98,24.57
				c-4.09,5.23-8.379,10.311-12.65,15.529c-4.039-1.91-7.109-3.949-10.479-4.85c-7.092-1.88-11.08-7.38-15.67-12.25
				c-0.531-0.55-0.781-1.439-0.99-2.22c-2.65-9.83-5.391-19.63-7.801-29.52c-0.6-2.44-0.09-5.141-0.09-7.601
				c11.82-5.609,24.08-4.85,35.93-6.27c1.85-0.221,3.971,1.279,5.891,2.16C874.392,376.816,879.481,382.936,881.343,391.636z"/>
			<path fill="#FFED66" d="M849.792,583.707c0.07,5.34-1.141,10.719-1.971,16.049c-0.67,4.24-1.25,8.58-2.629,12.609
				c-1.201,3.512-3.01,7.021-5.34,9.9c-4.18,5.18-7.541,10.621-10.361,16.74c-4.738,10.291-11.029,19.48-20.17,27.029
				c-8.648,7.15-17.01,14.861-23.539,24.521c-6.439,9.549-14.061,18.76-25.061,23.67c-4.1,1.82-9.18,1.469-13.24,3.34
				c-7.09,3.27-14.299,1.59-21.449,1.689c-3.83,0.051-7.66-1.189-11.521-1.539c-5.61-0.521-11.25-0.711-16.86-1.17
				c-1-0.08-1.96-0.75-3.989-1.58c-0.641,7.379-1.2,14.139-1.83,20.898c-0.17,1.891-0.03,4.031-0.87,5.611
				c-5.66,10.59-13.45,19.459-23.17,27.51c1.67,3.16,2.989,6.99,5.399,9.91c4.15,5.02,2.44,10.02,0.51,14.779
				c-1.869,4.609-7.22,4.76-10.76,4.221c-8.85-1.32-16.2,1.699-22.59,6.68c-10.08,7.859-21.9,12.43-32.729,18.811
				c-2.44,1.43-4.9,2.809-7.4,4.129c-2.1,1.121-3.9,1.391-6.67,0.84c-3.64-0.729-7.95,1.031-11.79,2.271
				c-6.39,2.049-12.63,4.59-18.96,6.83c-1.271,0.449-14.29-1.191-15.7-1.75c-7.47-2.99-15.29-2.592-23.08-2.33
				c-5.2,0.17-10.109,0.539-15.35-1.701c-5.69-2.43-12.11-2.17-18.601-1.92c-8.68,0.34-17.949,3.02-26.33-1.619
				c-8.38-4.65-18.84-3.781-26.5-9.191c-6.199-4.389-13.27-1.949-19.329-4.959c-1.12-0.561-2.91,0.199-4.381,0.41
				c-5.619,0.83-9.689-2.4-12.06-7.65c-1.67-3.68-1.771-6.699-0.54-10.33c0.5-1.439-0.3-3.33,0.22-4.58
				c1.141-1.789,1.971-3.91,3.49-5.27c1.87-1.67,4.18-3.359,6.54-3.859c3.24-0.682,5.57-2.031,8.1-4.221
				c4.42-3.83,9.521-6.93,14.49-10.09c3.73-2.371,7.9-4.061,11.53-6.561c8.53-5.869,18.8-6.119,28.16-9.25
				c3.7-1.24,7.42-2.641,10.819-4.529c4.881-2.73,9.36-6.191,14.261-8.871c1.56-0.85,3.939-0.229,5.939-0.26
				c1.76-0.02,3.51,0,5.51-0.92c-7.76-1.891-11.25-8.43-16.02-13.311c-3.48-3.549-6.2-7.85-9.74-11.33
				c-1.92-1.889-4.7-3.488-7.319-3.959c-6.61-1.199-9.86-6.26-13.641-10.74c-3.67-4.34-6.5-9.57-10.7-13.26
				c-7.569-6.641-10.899-15.461-14.159-24.35c-3-8.191-3.631-16.92-3.19-25.551c0.14-2.82,2.68-5.561,4.21-8.279
				c5.09-9.061,9.29-18.82,15.62-26.9c5.12-6.529,11.26-12.73,19.77-16c10.32-3.971,20.181-9.119,30.21-13.811
				c7.431-3.48,14.58-7.789,22.311-10.359c6.229-2.07,13.13-2.141,19.74-3.01c2.46-0.33,5.029-0.1,7.399-0.68
				c7.96-1.971,15.49,0.389,23.05,2.049c6.681,1.471,13.261,3.43,19.86,5.26c4.08,1.141,16.22,9.932,19.01,13.641
				c-1.1,2.52-1.819,5.369-3.47,7.51c-0.9,1.16-3.34,1.381-5.13,1.541c-2.36,0.209-4.78-0.211-7.16-0.08
				c-4.63,0.25-8.979-0.102-13.52-1.74c-5.051-1.83-10.66-2.061-15.971-3.23c-9.47-2.07-18.83-1.92-28.359-0.01
				c-3.25,0.65-6.94-0.83-10.28-1.32c-1.93,1.01-4.04,1.949-5.97,3.16c-3.851,2.42-7.601,5.01-11.4,7.5
				c-3.86,2.529-7.54,5.42-11.64,7.471c-6.431,3.209-13.12,5.949-19.761,8.709c-10.659,4.42-16.96,13.109-22.46,22.6
				c-1.97,3.4-3.859,6.861-5.54,10.41c-0.579,1.221-0.729,2.861-0.529,4.23c1.569,10.699,5.54,20.43,12.359,28.869
				c3.891,4.811,7.99,9.451,12.12,14.051c0.721,0.791,2.07,1,3.11,1.51c4.01,1.939,8.21,3.59,11.939,5.961
				c1.721,1.09,2.641,3.52,3.771,5.439c6.29,10.619,15.32,15.811,27,16.74c9.67,0.77,19.2,3.141,28.8,4.74
				c1.73,0.289,3.51,0.369,5.26,0.469c0.811,0.051,1.69-0.34,2.41-0.109c14.811,4.711,29.03,2.029,43.11-3.221
				c6.29-2.35,12.72-4.289,19.05-6.51c1.11-0.389,2.06-1.229,3.49-2.129c-3.32-1.891-6.04-3.361-8.67-4.971
				c-3.73-2.289-4.4-5.35-2.45-9.15c1.34-2.609,2.25-5.449,3.5-8.119c0.75-1.621,1.439-3.529,2.75-4.58
				c6.02-4.801,11.7-10.09,19.32-12.57c4.989-1.629,5.5-4.84,6.729-10.09c1.29-5.539,1.75-11.34,6.771-16.27
				c5.46-5.361,10.8-7.09,17.899-7.02c5.26,0.039,10.58-0.891,15.78-1.852c4.57-0.85,4.88-2.76,2.17-6.58
				c-3.53-4.969-8.2-9.809-9.64-15.41c-1.57-6.139-5.28-12.629-1.61-19.658c1.68-3.221,1.2-7.66,3.09-10.65
				c2.26-3.561,5.82-6.41,9.21-9.061c1.63-1.27,4.181-1.369,6.76-2.131c-4.85-7.479-9.3-14.68-14.069-21.658
				c-6.59-9.631-4.38-22.381,4.92-30.021c6.09-5,12.439-4.82,18.89-5.549c16.451-1.891,32.73,0.58,48.961,3.08
				c1.02,0.16,2.549,1.719,2.6,2.699c0.189,3.211,1.67,4.49,5.32,4c-0.621,3.16-0.98,5.93-1.75,8.57
				c-0.609,2.08-1.52,4.27-4.58,2.77c-0.35-0.17-1.211,0.471-1.711,0.881c-1.559,1.279-3.059,2.619-4.779,4.109
				c-1.221-1.75-2.029-2.9-2.84-4.051c-0.211,0.08-0.42,0.17-0.619,0.262c0.238,1.189,0.479,2.369,0.639,3.158
				c-6.049,0-12.09,0.16-18.109-0.148c-1.07-0.061-2.029-2.131-2.99-3.211c-1.039,2.27-5.92,3.84-9.18,2.9
				c-0.961-0.279-2.061-0.07-3.091-0.08c0.021,1.109-0.37,2.49,0.14,3.289c5.07,7.852,10.291,15.602,15.49,23.371
				c0.641,0.949,2.131,2.02,1.961,2.74c-1.6,6.879,3.289,14.9-3.67,20.879c-1.02,0.891-1.381,2.551-2.189,4.15
				c-6.33,1.02-12.852,2.07-20.312,3.279c2.16,4.471,3.811,8.33,5.82,11.99c2.22,4.031,4.729,7.91,7.2,11.801
				c2.25,3.57,4.02,7.15,3.551,11.619c-0.551,5.291-0.67,10.621-1.021,16.65c1.25-0.09,3.262-0.09,5.23-0.369
				c6.111-0.9,12.311-3.221,18.371-1.211c7.67,2.551,15.939,5.051,18.898,13.93c1.16,3.5,1.061,7.41,1.701,12.471
				c2.25-1.99,4.16-3.279,5.539-5c2.99-3.721,5.381-7.959,8.641-11.4c3.141-3.309,7.061-5.889,11.49-9.49
				c-1.541-1.119-3.02-3.09-4.551-3.129c-4.49-0.121-6.34-3.281-8.279-6.27c-2.23-3.451-3.939-7.25-6.18-10.691
				c-0.701-1.07-2.391-2.059-3.65-2.1c-4.291-0.129-8.6,0.121-12.9,0.33c-7.219,0.34-16.68-6.369-17.891-13.551
				c-0.439-2.648,0.711-5.908,2.031-8.42c1.26-2.379,3.57-4.568,6.811-2.139c9.52-4.23,18.238,1.939,27.359,2.689
				c6.42,0.529,13.811,4.721,16.789,11.99c2.98,7.26,5.09,14.869,7.961,23.449c2.029-1.889,5.049-3.43,6-5.799
				c4.27-10.641,11.17-19.451,17.949-28.471c2.07-2.75,2.451-7.08,2.771-10.76c0.289-3.4-0.41-6.93-0.951-10.35
				c-0.24-1.561-0.891-4.121-1.811-4.34c-4.809-1.17-6.42-5.471-9.389-8.451c-3.131-3.139-6.811-5.719-10.16-8.65
				c-1.111-0.969-1.93-2.26-3.33-3.949c0.049,0-1.76,0.449-2.131-0.08c-2.779-4.061-6.109-8.09-4.57-13.57
				c0.291-1.02,1.381-1.99,2.342-2.629c1.619-1.09,3.719-1.58,5.1-2.881c3.93-3.73,3.01-8.75-2.201-12.129
				c-5.83-3.781-8.43-8.641-7.049-15.781c1-5.199,1.279-10.561,5.76-14.17c2.42-1.94,5.109-3.59,7.879-4.981
				c0.861-0.439,2.791-0.059,3.512,0.67c4.59,4.631,9.17,9.301,13.34,14.292c2.039,2.439,3,5.74,4.799,8.41
				C842.622,537.066,849.481,559.416,849.792,583.707z M765.792,677.066c-12.609,1.891-23.699,7-35.59,12.01
				C736.862,695.195,759.952,689.967,765.792,677.066z M711.352,668.986c1.16-2.83,0.48-6.42,0.63-9.49
				c-5.399,0.721-9.6,1.109-13.72,1.881c-5.96,1.109-11.82,3.119-17.811,3.539c-3.939,0.279-5.63,1.66-6.859,5
				c-1.601,4.369-3.54,8.619-5.66,13.699c4.03,0.541,8.26,4.08,13.5,1.541c0.98-0.471,2.3-0.68,3.36-0.49
				c6.81,1.24,13.569,2.77,20.399,3.891c3.63,0.6,7.36,0.58,11.05,0.84C711.552,682.557,708.122,676.855,711.352,668.986z
				 M574.861,802.766c-0.05-0.35-0.1-0.699-0.149-1.039c-2.34-1.02-4.681-2.041-6.54-2.85c-2.04,2.34-3.91,4.488-5.79,6.639
				c0.1,0.291,0.189,0.59,0.28,0.891C566.731,805.186,570.802,803.977,574.861,802.766z M528.832,741.766
				c-0.141-0.43-0.28-0.859-0.42-1.289c-2.53-0.281-5.061-0.57-8.15-0.91c-0.23,2.48-0.42,4.629-0.72,7.98
				C523.361,745.166,526.102,743.467,528.832,741.766z M470.292,781.826c-0.33-0.43-0.66-0.859-0.99-1.291
				c-8.18,3.541-15.79,7.932-22.79,14.221c6.99,4.24,8.689,3.66,12.16-1.58c1.83-2.779,4.71-4.869,7.149-7.24
				C467.281,784.535,468.802,783.195,470.292,781.826z"/>
			<path fill="#FFED66" d="M809.952,575.236c1.18,1.42,0.721,4.311,0.75,6.529c0.02,1.531-0.42,3.07-0.789,5.461
				c-5.23,4.58-11.691,3.469-17.541-2.191c-2.57-2.469-6.689-3.25-9.9-5.17c-7.559-4.52-9.1-15.568-2.959-21.189
				c1-0.91,2.859-1.459,4.219-1.299C795.491,558.807,802.952,566.836,809.952,575.236z"/>
			<path fill="#FFED66" d="M807.663,477.066c0.789,4.25-4.762,12.439-8.99,13.391c-6.971,1.549-9.521,4.029-9.66,14.239
				c-0.1,7.762-6.08,15.211-13.811,15.75c-1.221,0.09-3.029-0.35-3.66-1.199c-2.26-3.119-5.109-6.289-5.949-9.869
				c-1.59-6.74-1.891-13.782-2.83-20.682c-0.711-5.238,1.189-9.619,3.92-13.91c1.209-1.889,1.809-4.18,2.529-5.898
				c3.27-1.771,5.811-3.801,8.68-4.521c3-0.76,6.6-1.109,9.441-0.148c5.738,1.959,12.379,1.959,17.01,6.479
				C805.991,472.306,807.241,474.796,807.663,477.066z"/>
			<path fill="#FFED66" d="M774.872,390.726c0.051,1.84-0.09,3.94-0.99,5.42c-0.48,0.79-2.719,0.5-4.66,0.771
				c-0.26,4.17-2.789,6.069-7.76,4.819c0.1-4.92-3.07-6.54-8.379-7.069c1.35,4.68-0.451,6.75-4.211,8.029
				c-3.9,1.33-6.98,1.08-9.811-2.189c-3.699-4.29-7.67-8.34-11.809-12.811c-2.91,1.03-6.67,2.641-10.581,3.66
				c-7.25,1.89-14.62,3.33-21.891,5.18c-2,0.511-3.75,1.921-5.699,2.73c-6.65,2.77-13.341,5.45-20.021,8.16
				c-0.46,0.189-1.11,0.24-1.36,0.58c-3.09,4.149-8.029,2.63-12.05,3.899c-4.029,1.28-8.2,2.61-12.359,2.771
				c-2.62,0.1-5.471-1.63-7.96-3.021c-2.391-1.34-4.471-3.239-6.62-4.979c-2.8-2.25-6.75-3.62-6.28-8.46
				c0.06-0.641-1.62-1.46-2.4-2.13c1.25-7.801,2.5-15.521,3.87-24.04c-3.899,0.89-7.35,1.68-10.8,2.47
				c-6.08,1.4-12.33,1.62-17.81-1.29c-8.801-4.65-15.25-11.76-15.37-22.27c-0.07-5.051-3.23-9.04-2.681-13.101
				c-7.89-1.92-15.3-3.37-22.46-5.62c-3.52-1.1-6.899-3.29-9.75-5.7c-2.54-2.149-4.55-2.54-7.55-1.21c-4.51,2-8.88,0.46-11.59-3.55
				c-2.13-3.16-0.95-6.75,1.59-10.859c3.25-5.29,9-6.61,13.5-9.811c8.67-6.18,17.891-11.59,26.98-17.17
				c6.8-4.17,13.67-8.24,20.649-12.08c2.721-1.49,5.48-2.21,8.84-0.09c3.551,2.26,7.551,1.79,12.11,0.82
				c5.78-1.221,9.07-5.391,13.83-7.5c1.91-0.841,4.13-1.301,6.22-1.341c7.2-0.149,14.75-1.39,21.5,0.351
				c6.46,1.67,13.511,4.92,17,11.399c1.82,3.36,1.88,7.83,2.141,11.83c0.33,5.19,0.08,10.431,0.08,15.7
				c6.02,1.04,12.35,1.181,17.899,3.32c6.59,2.54,12.891,5.78,17.96,11.56c5.13,5.84,12.071,10.08,18.13,15.12
				c2,1.66,3.631,3.79,5.641,5.45c3.871,3.2,7.779,6.39,11.891,9.28c5.35,3.75,10.91,7.2,16.379,10.779
				c0.141,0.091,0.381,0.101,0.451,0.21c4.959,9.25,15.18,15.641,14.939,27.74C773.603,387.896,774.833,389.306,774.872,390.726z
				 M723.532,363.536c-0.791-1.3-1.369-2.71-2.34-3.77c-3.69-4.05-6.451-8.73-12.311-10.91c-4.87-1.81-8.851-6.01-13.141-9.27
				c-0.699-0.53-1-1.66-1.359-2.561c-1.86-4.67-4.67-5.91-9.4-4.47c-4.229,1.29-8.43,1.58-10.979-1.03
				c-3.101,0-5.431,0.601-7.23-0.12c-4.33-1.76-9-3.449-12.46-6.42c-5.1-4.38-8.16-10.52-8.5-17.37
				c-0.27-5.39,0.17-10.87,0.82-16.239c0.5-4.2-1.34-4.551-4.811-4.67c-6.17-0.211-10.38,3.939-15.25,6.359
				c-8.37,4.17-16.279,8.87-26.01,3.95c-1.35-0.68-3.899-0.32-5.229,0.57c-4.99,3.33-9.771,7.01-14.5,10.72
				c-1.931,1.51-2.16,3.11,0.47,4.57c4,2.239,7.689,5.069,11.79,7.1c4.34,2.14,8.49,4.44,9.22,9.58c0.61,4.24,4.29,8.37,0.93,12.92
				c-0.079,0.11,0.28,0.54,0.7,1.31c7.721-1.38,15.57-3.01,23.49-4.14c8.81-1.26,17.81-3.47,26.08,2.1
				c2.21,1.5,4.14,3.431,6.37,4.881c6.319,4.1,6.58,12.569,0.42,16.76c-6.43,4.39-10.22,10.47-12.36,19.49
				c4.74-1.051,8.44-1.631,12-2.71c7.561-2.29,15.04-4.82,22.55-7.28c3.091-1.01,6.091-2.68,9.24-3c4.57-0.47,9.271,0.39,13.86,0.01
				C711.922,369.386,718.423,368.856,723.532,363.536z"/>
			<path fill="#FFED66" d="M722.651,783.506c0.451,1.57-2.119,4.52-3.939,6.15c-4.3,3.84-9.601,3.9-14.98,2.891
				c-4.78-0.9-6.069-3.371-4.71-8.121c0.63-2.17,0.53-4.561,0.88-8.061c4.46-3.379,10.33-3.949,16.79-2.568
				C722.302,774.986,721.632,779.986,722.651,783.506z"/>
			<path fill="#FFED66" d="M662.872,576.387c7.3,3.369,7.489,3.76,6.029,11.289c-0.31,1.609,0.03,4.551-0.51,4.701
				c-4.229,1.139-8.16,4.488-13.08,1.5c-6.41-3.9-13.24-7.08-18.5-12.711c-2.43-2.609-5.71-4.459-7.96-7.199
				c-3.25-3.961-5.91-8.42-8.76-12.57c5.04-4.701,10.14-5.781,15.42-4.76c5.11,0.99,10.17,1.91,14.24,6.26
				c3.97,4.27,6.88,10.439,14.76,9.789c-0.25,0.58-0.51,1.16-0.76,1.74c-0.74,0.041-1.471,0.08-2.67,0.141
				C661.812,575.326,662.231,576.096,662.872,576.387z"/>
			<path fill="#FFED66" d="M575.651,511.957c0.88,4,0.561,8.559-0.35,12.6c-1.45,6.4-6.13,6.35-12.84,4.84
				c-3.99-0.891-8.03-1.701-12.101-2.111c-8.02-0.809-16.069-1.389-24.109-1.908c-3.261-0.211-6.59,0.389-9.801-0.031
				c-7.569-0.99-13.409-4.629-13.18-12.439c0.101-3.27,0.851-6.631,2-9.689c0.351-0.91,3.07-1.41,4.65-1.291
				c4.59,0.32,9.149,1.49,13.729,1.5c5.19,0.02,10.38-0.84,15.57-1.33c0.04-0.42,0.07-0.85,0.1-1.27
				c-2.68-1.141-5.319-2.391-8.05-3.381c-6.18-2.239-10.14-9.219-7.54-15.11c1.16-2.619,4.47-4.41,7.03-6.27
				c1.99-1.43,4.28-2.461,6.51-3.52c1.17-0.551,2.59-1.25,3.75-1.051c8.811,1.51,17.05,3.27,22.58,12.061
				C569.231,492.496,573.422,501.816,575.651,511.957z"/>
			<path fill="#FFED66" d="M471.521,459.275c1.87,8.33-0.25,16.23-3.62,23.66c-4.439,9.771-9.09,19.51-14.52,28.75
				c-3.21,5.471-7.73,10.32-12.32,14.781c-9.76,9.49-20.28,18.16-32.79,23.859c-4.13,1.881-8.74,2.699-13.12,4.02
				c-5.2,1.561-10.31,3.531-15.6,4.631c-9.91,2.039-19.9,3.859-29.93,5.17c-2.73,0.35-5.471-0.031-8.341,0.789
				c-2.47,0.711-5.439-0.309-8.859-0.619c-1.351,2.311-3.61,3.25-7.25,2.061c-2.65-0.871-6.03,0.568-8.73-0.23
				c-7.93-2.371-15.56-5.811-23.56-7.881c-4.101-1.059-7.98-2.379-11.75-4.139c-5.69-2.66-11.44-5.211-16.94-8.221
				c-6.45-3.541-13-7.051-18.88-11.42c-7.04-5.24-13.53-11.26-20.06-17.15c-5.69-5.119-11.45-10.23-16.57-15.9
				c-8.06-8.94-15.69-18.29-23.33-27.6c-1.189-1.449-1.56-3.619-2.2-5.49c-1.67-4.9-4.529-9.789-4.66-14.75
				c-0.27-10.32-2.609-20.32-3.949-30.409c-1.351-10.13-1.13-20.12-0.351-30.04c0.38-4.89,4.05-9.58,6.48-14.229
				c1.12-2.15,3.31-3.801,4.149-6.011c2.811-7.42,10.48-8.37,15.79-12.439c2.511-1.92,5.16-3.71,7.431-5.891
				c2.819-2.72,5.25-5.85,8.029-8.619c0.53-0.53,1.91-0.19,2.5-0.23c2.011-2.22,3.721-5.1,6.25-6.72
				c6.681-4.271,14.011-8.771,22.011-6.69c4.1,1.07,8.39,1.15,12.199,2.51c7.23,2.591,13.631-0.609,20.391-1.42
				c8.5-1.01,17-2.189,25.54-2.739c7.029-0.45,14.29-1.011,21.14,0.22c6.061,1.08,12.35,0.43,18.38,3.649
				c6.19,3.32,13.72,4.03,20.42,6.54c4.011,1.49,7.5,4.311,11.32,6.37c2.14,1.16,4.42,2.66,6.72,2.83
				c5.86,0.45,8.87,5.07,12.99,8.04c0.32,0.24,0.09,1.23,0.12,1.87c0.35-0.29,0.7-0.57,1.05-0.86c4.64,2.08,9.68,3.58,13.83,6.391
				c4.54,3.09,8.31,7.33,12.33,11.17c6.14,5.85,12.479,11.53,18.189,17.78c2.99,3.27,4.851,7.59,7.171,11.46
				c4.09,6.81,8.649,13.409,12.069,20.54c3.25,6.778,5.391,14.099,7.8,21.259C469.741,451.626,470.662,455.457,471.521,459.275z
				 M445.292,476.525c1.59-3.629,2.62-8.119,2.09-11.969c-2.22-16.061-10.51-29.83-18.45-43.5c-3.94-6.78-9.91-12.36-14.79-18.61
				c-1.61-2.06-2.19-5.75-4.13-6.58c-5.84-2.47-9.07-7.899-14.23-11.149c-6.77-4.26-13.229-8.7-21.06-11.09
				c-7.23-2.21-14.05-5.69-21.11-8.46c-12.58-4.94-25.42-7.7-39.08-5.311c-2.76,0.48-6.029-0.149-8.699-1.189
				c-7.471-2.921-15.21-3.721-23.08-3.83c-7.891-0.11-15.79-0.021-25.36-0.021c-9.08,1.561-20.26,0.94-29.04,9.601
				c-3.62,3.569-8.85,5.5-13.32,8.21c-4.3,2.619-9.46,4.51-12.649,8.119c-5.57,6.32-9.48,13.91-9.021,22.86
				c0.32,5.96,0.82,11.9,1.32,17.851c0.74,8.85,2.81,17.34,7.14,25.189c3.811,6.9,6.32,14.51,14.091,18.789
				c3.079,1.691,4.439,6.281,7.039,9.141c4.101,4.5,8.53,8.699,12.91,12.939c2.23,2.15,1.45,7.58,6.891,6.371
				c0.3-0.07,0.859,1.32,1.39,1.949c0.84,0.98,1.6,2.122,2.65,2.792c9.38,5.969,18.229,12.68,27.89,18.34
				c7.47,4.379,14.93,8.33,23.09,10.869c7.22,2.24,14.601,4.359,22.061,5.301c6.119,0.77,12.51,0.07,18.71-0.58
				c11.109-1.15,22.229-2.381,33.229-4.271c14.3-2.459,27.57-7.629,39.96-15.52C426.222,503.547,438.321,492.406,445.292,476.525z"
				/>
			<path fill="#FFED66" d="M381.941,638.637c0.5,0.529,0.971,1.529,0.82,2.139c-1.64,6.48-1.97,13.07-5.7,19.281
				c-4.75,7.889-7.62,16.939-11.16,25.539c-3.05,7.42-11.12,10.33-18.109,8.5c-0.79-0.209-1.471-0.779-2.261-1.02
				c-5.97-1.82-8.21-6.041-8.939-12.051c-1.17-9.568-3.01-19.049-4.76-28.539c-0.381-2.051-1.11-4.57-2.58-5.711
				c-1.09-0.84-3.65,0.41-5.551,0.381c-2.729-0.051-5.46-0.41-8.479-0.67c-0.86-8.26,1.28-11.74,7.84-15.33
				c2.74-1.49,5.11-4.141,7.57-5.871c4.46-3.148,9.85-5.92,15.91-5.158c5.72,0.719,11.5,1.299,17.109,2.59
				c2.521,0.58,4.971,2.43,6.94,4.26C374.571,630.656,378.222,634.686,381.941,638.637z"/>
			<path fill="#FFED66" d="M346.042,143.096c1.17,2.93-1.7,7.41-2.561,11.229c-0.31,1.4,0.17,2.98-0.17,4.37
				c-0.56,2.28-0.93,5.03-2.439,6.511c-1.271,1.26-2.62,4.59-6.051,2.289c-0.87-0.579-4.51,0.921-4.979,2.181
				c-2.69,7.08-9.79,9.04-14.66,13.53c-1.42,1.3-3.18,2.579-3.86,4.239c-2.68,6.57-4.59,13.471-7.529,19.9
				c-4.61,10.08-12,17.32-23.221,19.91c-1.92,0.439-3.779,1.37-5.71,1.54c-1.66,0.14-3.87,0.08-5-0.87
				c-5.37-4.561-10.33-9.601-15.689-14.181c-4.351-3.71-9.03-7.039-13.61-10.47c-2.08-1.56-4.34-2.87-6.399-4.46
				c-2.551-1.96-5-4.06-7.44-6.17c-5.16-4.45-10.87-8.45-15.3-13.55c-6.101-7.021-11.221-14.9-16.78-22.4
				c-1.67-2.25-3.43-2.6-4.93,0.101c-2.13,3.819-4.45,7.6-6.07,11.64c-2.77,6.93-8.44,10.9-14.15,14.89
				c-3.27,2.28-6.6,4.511-10.079,6.45c-1.711,0.94-3.83,1.11-5.721,1.75c-0.77,0.26-1.51,0.74-2.14,1.28
				c-3.25,2.74-6.97,4.08-11.04,2.65c-3.93-1.37-6.62-4.351-7.561-8.49c-1.609-7.16-2.81-14.41-6.84-20.8
				c-0.64-1.011-0.489-2.511-0.84-4.601c-3.29,4.11-5.12,8.13-9.979,9.59c-2.04,0.61-3.17,3.83-5.07,5.431
				c-7.33,6.159-15.12,11.81-22.14,18.3c-6.881,6.359-15.21,10.18-23.801,11.75c-6.5,1.18-13.369,1.66-20.06,2.58
				c-5.67,0.779-9.48-2.92-11.93-6.83c-3.38-5.38-4.78-11.61-5.431-18.25c-1.27-12.92,1.75-24.65,7.181-36.04
				c0.939-1.96,2.83-3.47,3.83-5.43c0.68-1.351,0.38-3.171,0.859-4.671c5.54-17.35,16.05-31.239,29.66-43.079
				c5.49-4.79,10.22-10.46,15.76-15.181c9.221-7.819,18.32-15.939,28.4-22.5c7.88-5.13,11.54-12.18,14.32-20.31
				c2.3-6.73,7.89-10.62,12.79-15.07c1.079-0.99,3.109-1.25,4.71-1.26c9.06-0.11,18.13-0.37,27.17,0.09
				c4.62,0.24,9.149,2,13.77,2.79c1.76,0.3,3.68-0.48,5.47-0.26c13.19,1.63,25.04,7.49,37.091,12.45
				c14.729,6.05,28.609,13.829,41.619,23.119c7.24,5.171,14.851,9.82,22.21,14.82c2.461,1.68,4.61,3.8,6.98,5.62
				c6.73,5.17,14.18,9.62,20.07,15.61c5.71,5.81,10.01,13.05,14.58,19.899c2.46,3.681,3.689,8.23,6.359,11.721
				C343.491,131.446,343.852,137.616,346.042,143.096z M320.491,146.746c0.83-0.68,1.471-2.689,1.07-3.6
				c-2.22-5.02-4.78-9.9-7.24-14.82c-4.93-9.85-10.26-19.239-20.6-24.75c-2.9-1.55-4.89-4.88-7.21-7.47
				c-2.29-2.57-4.021-5.97-6.8-7.729c-5.761-3.631-12.08-6.381-18.13-9.561c-12.131-6.37-24.24-12.79-36.36-19.18
				c-1.72-0.9-3.37-1.98-5.18-2.62c-4.801-1.68-9.66-3.2-14.511-4.72c-9.79-3.051-19.56-6.21-29.42-9.021
				c-3.22-0.92-6.72-1.29-10.08-1.2c-4.55,0.12-9.1,0.82-13.6,1.53c-1.25,0.2-2.85,1.05-3.43,2.08c-2.65,4.7-4.88,9.64-7.48,14.36
				c-3,5.449-3.96,12.029-9.46,16.1c-7.13,5.28-14.04,10.85-21.1,16.22c-6.7,5.11-13.65,9.92-20.16,15.261
				c-3.91,3.21-7.17,7.22-10.79,10.8c-3.61,3.58-8.21,6.53-10.75,10.74c-4.93,8.199-8.88,17.01-12.91,25.71
				c-1.77,3.819-3.05,7.939-4.01,12.05c-1.141,4.899,1.63,7.28,6.52,5.58c3.42-1.19,6.63-3.05,9.87-4.73
				c5.391-2.79,8.78-8.99,15.71-9.22c0.55-0.01,1.09-0.71,1.601-1.14c2.12-1.801,4.229-3.61,6.569-5.61c-1.01-4-2.5-8.2,1.57-11.96
				c1.74-1.62,2.52-4.24,3.93-6.28c0.49-0.71,1.54-1.46,2.351-1.479c3.39-0.091,7.42-1.03,10.05,0.439
				c4.18,2.34,5.88,1.26,7.729-2.34c0.73-1.43,2.16-2.49,3.24-3.74c3.09-3.6,6.16-7.22,9.19-10.779
				c-3.98-4.2-8.48-7.591-6.391-13.91c0.051-0.15,0.141-0.38,0.07-0.48c-3.5-5.319,1.57-9.29,2.99-13.35
				c1.31-3.74,7.109-4.75,11.52-3.44c3.351,1,7.75,1.641,7.17,7.101c-0.109,0.979,0.841,2.109,1.4,3.12
				c3.59,6.39-0.04,15.579-7.04,18.14c-1.57,0.58-2.89,1.88-5.01,3.32c2.06,0.47,3.22,0.729,3.84,0.869
				c0.16,2.811-0.63,5.96,0.6,7.46c4.86,5.94,5.311,13.391,7.82,20.11c1.45,3.89,2.48,7.93,3.71,11.91
				c0.55,0.17,1.11,0.35,1.66,0.52c8.63-7.97,17.39-15.8,25.81-23.979c3.28-3.19,5.511-7.43,8.69-10.75
				c5.18-5.42,8.96-5.43,13.84,0.07c3.44,3.869,5.93,8.59,9.36,12.47c6.26,7.07,12.38,14.399,19.52,20.5
				c9.601,8.189,20.17,15.229,30.181,22.939c2.689,2.07,4.8,4.87,7.319,7.171c1.62,1.46,3.51,2.619,5.431,4.029
				c9.159-2.229,14.38-9.37,19.56-17.21c3.86-5.819,9.37-10.64,14.58-15.42C311.372,153.126,316.191,150.236,320.491,146.746z"/>
			<path fill="#FFED66" d="M291.972,142.986c4.13,5.45,1.16,10.16-0.22,15.08c-0.601,2.141-1.391,5.271-2.931,5.9
				c-4.819,1.979-9.58,6.42-15.069-0.471c-3.301-4.14-3.94-8.01-3.681-12.52c0.29-4.89,0.66-9.93,4.28-13.78
				c1.6-1.7,3.62-3,5.71-4.689c3.12,1.479,5.64,2.85,8.28,3.88C291.651,137.676,290.642,141.236,291.972,142.986z"/>
			<path fill="#FFED66" d="M287.321,687.596c1.66,10.891-0.81,14.131-13.05,13.17c-3.6,11.881-8,23.66-6.95,36.461
				c0.29,3.459-0.1,5.779-4.069,6.5c-1.011,0.189-1.771,1.789-3.011,3.139c-6.989-3.369-14.59-5.789-20.689-10.26
				c-8.311-6.08-15.94-13.27-22.99-20.809c-7.39-7.91-13.88-16.691-20.47-25.311c-2.33-3.041-3.99-6.65-5.53-10.189
				c-0.41-0.971,0.73-2.631,1.19-3.951c0.87-2.5,1.76-4.99,2.64-7.48c-0.44-0.279-0.88-0.559-1.33-0.85
				c1.311-0.609,2.57-1.4,3.94-1.789c4.71-1.35,9.449-2.58,14.189-3.82c3.75-0.98,7.26-0.779,11.03,0.689
				c2.26,0.881,5.35-0.609,7.86-0.08c5.909,1.24,11.649,3.25,17.54,4.551c2.79,0.609,4.729,1.379,7.04,3.57
				c5.359,5.08,12.619,6.959,19.979,6.74C280.111,677.717,286.502,682.236,287.321,687.596z M240.132,708.926
				c4.29-4.77,9.7-8.15,10.34-14.219c-4.6-2.24-8.7-4.422-12.95-6.25c-4.81-2.061-9.649-4.352-15.7-3.531
				C224.852,695.627,232.882,701.467,240.132,708.926z"/>
			<path fill="#FFED66" d="M251.552,88.106c3.5,3.99,4.36,12.37,2.22,17.41c-0.899,2.11-1.01,4.61-1.25,6.95
				c-0.439,4.24,0.5,9.189-1.399,12.58c-1.971,3.51-6.521,5.67-10.16,8.109c-0.95,0.641-2.681,0.101-4.05,0.101
				c-3.33-0.08-6.37,0.12-8.5-3.681c-2.37-4.22-6.2-7.64-8.461-11.899c-1.109-2.11-0.27-5.351-0.02-8.05
				c0.27-2.91,0.67-5.83,1.42-8.641c0.83-3.069,1.43-6.609,3.38-8.859c2.771-3.2,6.38-6.07,10.19-7.9
				C240.392,81.586,247.741,83.766,251.552,88.106z"/>
			<path fill="#FFED66" d="M133.102,503.785c3.6,7.48,3.05,15.361,1.79,23.051c-0.44,2.711-3.37,5.199-5.56,7.4
				c-2.36,2.35-5.12,1.709-8.25,0.811c-4.48-1.281-9.381-1.031-13.92-2.17c-12.181-3.041-24.29-6.4-36.381-9.781
				c-8.22-2.311-16.399-4.799-24.55-7.34c-3.96-1.23-6.91-5.029-6.67-8.16c-1.04,0.15-2.81,0.721-2.99,0.4
				c-1.71-3.02-4.449-6.25-4.33-9.32c0.16-3.75,2.03-8.04,4.48-10.981c9.56-11.459,22.93-17.17,36.32-22.719
				c3.699-1.531,8.199,0.359,11.54-3.01c0.47-0.471,2.899,0.869,4.33,1.549c0.869,0.41,1.569,1.16,2.34,1.76
				c0.239-0.289,0.47-0.568,0.699-0.859c-2.97-4.42-3.25-8.119,0.801-10.119c3.529-1.74,8.26-1.5,12.42-1.352
				c2.13,0.08,4.43,1.58,6.229,2.98c2.25,1.74,4.57,3.76,5.98,6.17c5.58,9.561,10.229,19.461,11.51,30.75
				C129.321,496.605,131.401,500.256,133.102,503.785z M100.932,508.186c2.95,0.781,4.47-0.6,4.23-3.68
				c-0.15-1.971-0.211-3.99-0.69-5.91c-1.98-7.95-4.06-15.889-6.21-23.799c-0.35-1.301-1.25-2.451-1.89-3.682
				c-0.351,0.16-0.7,0.32-1.051,0.48c0,0.939-0.01,1.891,0.011,2.83c0.09,7.561-2.67,11.93-8.78,13.41
				c-2.01,0.48-4.37-0.16-6.21,0.59c-5.75,2.33-11.33,5.08-16.98,7.66c-0.02,0.65-0.04,1.301-0.06,1.961
				C75.842,501.436,88.372,504.865,100.932,508.186z"/>
			<path fill="#FFED66" d="M55.222,356.116c2.4,5.08-0.48,8.94-1.521,13.16c-0.619,2.561-7.329,2.72-10.489,0.87
				c-1.761-1.02-3.69-1.83-5.641-2.439c-5.72-1.801-15.38-13.431-15.62-19.48c-0.05-1.21,1.351-2.88,2.521-3.66
				c2.42-1.6,2.84-1.37,4.84,0.23c1.86-0.971,3.28-2.351,4.62-2.28c2.75,0.13,5.81,0.43,8.11,1.76
				C47.191,347.236,52.382,350.096,55.222,356.116z"/>
		</g>
	</g>
</g>
</svg>
