<?xml version="1.0" encoding="utf-8"?>
<!-- Generator: Adobe Illustrator 16.0.0, SVG Export Plug-In . SVG Version: 6.00 Build 0)  -->
<!DOCTYPE svg PUBLIC "-//W3C//DTD SVG 1.0//EN" "http://www.w3.org/TR/2001/REC-SVG-20010904/DTD/svg10.dtd">
<svg version="1.0" id="Layer_1" xmlns="http://www.w3.org/2000/svg" xmlns:xlink="http://www.w3.org/1999/xlink" x="0px" y="0px"
	 width="1000px" height="450px" viewBox="0 0 1000 450" enable-background="new 0 0 1000 450" xml:space="preserve">
<g>
	<g id="XMLID_1_">
		<g>
			<path fill="#FFED66" d="M975.76,217.801c0.24,6.25,3.33,9.191,8.41,12.361c-2.09,1.76-3.97,3.34-6.57,5.52
				c0.24,4.859,0.23,10.82,0.891,16.699c1.279,11.281,0.89,22.341-2.601,33.23c-2.05,6.42-3.81,12.93-5.8,19.37
				c-4.07,13.14-12.33,23.569-22.33,32.49c-7.59,6.771-15.939,12.72-24.3,18.56c-8.72,6.09-17.74,11.78-26.83,17.311
				c-4.18,2.55-8.95,4.09-13.26,6.449c-8.39,4.59-16.8,9.181-24.91,14.24c-5.24,3.27-11.08,3.79-16.76,5.25
				c-12.8,3.28-25.54,6.801-38.34,10.08c-5.95,1.52-11.99,2.689-17.98,4.061c-5.77,1.33-12.03,1.729-17.2,4.3
				c-8.34,4.14-17.26,5.079-26.06,6.81c-3.7,0.73-7.62,0.35-11.43,0.59c-18.2,1.17-36.051-1.16-53.71-5.39
				c-1.461-0.34-2.921-0.88-4.391-0.94c-14.31-0.539-25.84-8.26-38.07-14.359c-7.939-3.95-16.329-7.061-24.64-10.23
				c-6.81-2.609-13.66-5.41-20.75-6.949c-11.52-2.49-22.8-7.221-35.07-4.59c-2.97,0.639-6.189,0.049-9.29,0.06
				c-12.899,0.04-25.84-0.47-38.68,0.38c-6.93,0.46-13.92,2.689-20.5,5.16c-6.57,2.47-13.09,4-20.09,3.96
				c-1.33,0-2.58,1.7-4.01,2.239c-4.311,1.631-8.601,3.391-13.05,4.48c-2.4,0.58-5.25-0.68-7.66-0.1
				c-6.36,1.529-12.521,3.939-18.9,5.369c-6.21,1.381-12.6,1.931-18.89,2.92c-5.76,0.91-11.431,1.25-17.271,0.021
				c-5.25-1.101-10.68-1.39-16.05-1.81c-1.729-0.131-3.61,0.17-5.25,0.74c-10.02,3.469-19.9,7.379-30.82,6.81
				c-1.05-0.06-2.21,0.601-3.199,1.14c-9.36,5.15-19.04,8.721-30.061,7.18c-9.01-1.25-17.49,2.541-26.31,3.16
				c-4.55,0.311-9.16-0.39-13.73-0.149c-17,0.88-31.6-7.979-47.38-11.931c-13.87-3.47-26.82-10.58-40.17-16.119
				c-13.12-5.45-26.06-11.24-39.679-15.61c-14.96-4.8-29.391-11.12-40.04-23.851c-7.7-9.209-16.471-17.53-24.45-26.51
				c-3.6-4.06-7.2-7.9-9.49-13.369c-3.63-8.69-9.939-16.221-14.21-24.69c-4.22-8.39-7.71-17.22-10.81-26.101
				c-3.101-8.89-5.65-18.02-7.801-27.189c-1.539-6.54-1.68-13.41-3.06-20c-1.11-5.27-3.26-10.32-4.72-15.53
				c-0.561-2.021-1.46-4.94-0.53-6.19c2.39-3.189,1.26-6.119,0.93-9.34c-0.649-6.22-0.05-12.68-1.52-18.66
				c-3.7-15-0.43-28.34,6.52-41.75c6.561-12.639,16.971-21.479,26.841-31c3.189-3.08,6.39-6.149,9.439-9.359
				c5.61-5.9,11.88-10.48,19.76-13.221c6.78-2.35,13.021-6.209,19.641-9.09c3.609-1.56,7.56-2.319,11.26-3.699
				c5.91-2.221,12.35-3.04,17.21-7.99c1.67-1.7,5.32-1.32,7.92-2.27c6.809-2.48,13.49-5.291,20.32-7.69
				c1.77-0.62,3.89-0.25,5.96-0.34c1.43-1.101,2.77-2.81,4.45-3.271c5.22-1.449,10.8-1.85,15.85-3.699
				c13.29-4.881,27.17-4.791,40.96-5.91c6.38-0.521,12.67-2.26,19.05-2.94c9.771-1.06,19.58-2.09,29.391-2.319
				c4.829-0.11,9.689,1.66,14.55,2.449c2.05,0.34,4.17,0.311,6.25,0.52c5.56,0.57,11.109,1.451,16.689,1.701
				c8.41,0.379,16.84,0.069,25.24,0.51c8.47,0.439,16.9,1.529,25.36,2.16c7.51,0.56,15.76-0.92,22.38,1.75
				c10.109,4.08,20.37,3.31,30.56,4.629c3.74,0.48,7.721-0.319,11.34,0.531c6.08,1.449,12.061,3.469,17.891,5.75
				c10.16,3.989,21.02,7.049,29.979,12.949c8.41,5.54,17.32,8.23,26.601,10.16c5.3,1.1,11.1-0.15,16.67-0.311
				c1.95-0.049,3.89-0.01,6.29-0.01c1.79-5.08,6.96-2.72,10.72-3.199c7.19-0.92,14.58-0.211,21.75-1.19
				c7.6-1.04,15.021-3.34,22.55-4.95c11.12-2.38,22.28-4.57,33.4-6.98c3.359-0.719,6.66-1.799,9.939-2.85
				c8.11-2.609,16.5-2.449,24.86-3.02c6.75-0.45,13.39-2.17,20.13-2.95c3.41-0.399,6.92,0.149,10.391,0.09
				c12.76-0.2,25.52-0.78,38.27-0.63c13.26,0.16,26.53,1,39.33,4.891c6.71,2.039,13.31,4.459,19.84,7.029
				c6.771,2.67,13.26,6.061,20.1,8.53c5.74,2.08,11.79,3.351,17.73,4.89c9.46,2.45,18.58,5.44,27.13,10.561
				c5.86,3.5,12.86,5.039,19.271,7.66c2.979,1.22,5.85,2.789,8.64,4.42c7.14,4.16,14.56,7.959,21.18,12.85
				c4.391,3.25,9.311,4.35,14.03,6.391c8.28,3.59,16.72,7.6,21.75,15.439c2.83,4.41,6.15,8.93,5.09,15.46
				c-0.43,2.61,3.86,6.771,6.91,8.92c2.5,1.771,4.4,3.53,5.9,6.11c5.069,8.689,12.21,15.89,18.01,23.91
				c4.64,6.43,11.91,11.859,12.25,21.529C971.111,206.172,975.531,211.913,975.76,217.801z M953.02,282.182
				c3.4-8.76,5.65-17.62,4.301-27.12c-0.9-6.37-2.69-12.819-2.29-19.12c0.64-9.8-3.28-18.42-5.3-27.52
				c-0.921-4.121-2.301-8.28-4.311-11.98c-3.7-6.8-7.75-13.33-13.8-18.59c-7.601-6.6-14.58-13.92-21.771-20.98
				c-0.92-0.899-1.529-2.109-2.239-3.199c-2.61-4.041-4.511-8.881-7.99-11.91c-4.12-3.59-9.54-5.76-14.521-8.29
				c-5.149-2.61-10.609-4.63-15.659-7.41c-7.931-4.38-15.391-9.66-23.471-13.7c-10.01-4.98-20.37-9.279-30.72-13.52
				c-7.88-3.211-15.97-5.93-24.02-8.74c-6.73-2.35-13.74-4.02-20.261-6.84c-12.96-5.61-25.81-11.26-40.12-12.53
				c-1.79-0.16-3.449-1.78-5.35-2.83c-1.69,0.3-3.79,0.99-5.89,1c-6.23,0.021-12.46-0.46-18.681-0.319
				c-12.899,0.299-25.79,0.869-38.68,1.319c-2.97,0.101-5.99-0.17-8.91,0.261c-6.63,0.949-13.22,2.18-19.81,3.399
				c-4.71,0.87-9.4,1.86-14.09,2.88c-6.61,1.439-13.19,3.04-19.82,4.439c-11.99,2.531-23.98,5.091-36.01,7.391
				c-7.96,1.52-15.98,2.7-24,3.859c-6.37,0.92-12.771,1.721-19.181,2.33c-6.529,0.61-13.09,1.131-19.64,1.301
				c-8.17,0.21-15.96-1.34-23.83-3.98c-7.27-2.449-14.16-5.039-20.14-9.869c-1.25-1.021-2.67-1.931-4.15-2.561
				c-6.21-2.67-12.79-4.641-18.64-7.91c-11.4-6.391-24.28-3.79-36.25-6.79c-8.82-2.22-18.48-0.8-26.851-5.69
				c-0.92-0.529-2.25-0.479-3.39-0.469c-7.67,0.029-15.35,0.319-23.021,0.129c-7.239-0.18-14.46-0.869-21.689-1.31
				c-7-0.42-14.01-0.66-20.99-1.25c-3.79-0.33-7.51-1.45-11.29-1.83c-6.689-0.681-13.41-1.069-20.109-1.55
				c-4.881-0.35-9.87-1.439-14.62-0.82c-9.101,1.189-18.03,3.561-27.09,5.08c-8.351,1.4-16.771,2.35-25.171,3.45
				c-13.17,1.729-25.739,5.771-38.279,9.94c-6.761,2.25-13.7,4.039-20.32,6.649c-8.299,3.261-16.19,7.601-24.559,10.649
				c-12.25,4.471-24.58,8.221-36.181,14.75c-15.81,8.891-27.46,21.94-39.109,34.971c-6.38,7.13-10.091,16.279-6.92,26.65
				c0.71,2.31,0.13,4.99,0.489,7.439c0.48,3.27,1.24,6.5,2,9.721c0.561,2.389,2.09,4.859,1.761,7.1c-0.49,3.39,1.409,3.82,3.63,4.76
				c6.84,2.93,13.699,5.83,20.37,9.109c4.479,2.201,7.14,9.591,5.899,14.881c-0.82,3.5-4.76,5.89-9.979,6.25
				c-1.69,0.119-3.36,0.63-5.03,1.029c-1.59,0.391-3.2,1.371-4.72,1.24c-4.4-0.4-5.65,0.391-4.771,4.76
				c1.17,5.83,2.71,11.621,4.55,17.28c3.07,9.44,5.44,19.341,10.061,28c6.26,11.771,9.79,25.55,22.71,33.101
				c9.68,5.66,15.28,15.699,22.88,23.6c5.63,5.87,12.16,11.25,19.21,15.25c7.83,4.45,16.73,7.01,25.11,10.52
				c13.689,5.721,27.26,11.73,41.02,17.271c11.9,4.79,23.97,9.16,36.021,13.58c8.189,3.01,16.33,6.229,25.34,6.12
				c7.27-0.09,14.569,0.58,21.819,0.26c5.551-0.24,11.03-2,16.58-2.221c9.9-0.399,19.87,0.611,29.53-2.819
				c2.17-0.771,4.85-0.11,6.84-0.11c5.021-1.449,9.76-2.82,14.34-4.14c-2.22-5.271-4.279-10.17-6.649-15.819
				c3.13-1.92,6.5-3.931,9.8-6.061c1.03-0.67,2.39-1.51,2.7-2.54c3.37-11.19,13.22-14.649,22.439-18.44
				c10.82-4.44,22.19-1.78,33.301-1.04c10.27,0.69,16.909,6.7,21.29,15.7c2.949,6.04,2.789,11.1-1.961,15.99
				c-3.77,3.87-8.31,6.99-12.539,10.391c-1.65,1.319-3.41,2.51-5.12,3.75c0.239,0.42,0.479,0.84,0.729,1.26
				c1.32-0.42,2.7-0.68,3.94-1.26c4.319-2.031,8.45-4.5,12.899-6.17c6.53-2.441,13.34-4.15,19.891-6.551
				c3.069-1.12,5.689-3.46,8.76-4.641c2.74-1.059,5.96-0.859,8.689-1.93c7.12-2.81,13.87-6.619,21.73-7.31
				c0.89-0.08,1.75-0.59,2.61-1.11c0.02,0.021,0.029,0.03,0.04,0.051c0.399-0.25,0.81-0.5,1.22-0.75
				c-0.42,0.199-0.84,0.449-1.26,0.699c-1.73-2.34-3.45-4.709-5.221-7.02c-5.1-6.721-4.64-10.391,1.88-15.42
				c0.631-0.48,1.141-1.2,1.54-1.91c3-5.21,8.011-6.77,13.5-7.26c5.671-0.51,9.54,3.07,11.671,7.359
				c1.489,2.99,0.869,7.211,0.619,10.84c-0.17,2.5-1.34,4.92-2.02,7.391c-0.36,1.32-0.64,2.66-1.1,4.619
				c7-2.84,15.89-2.43,18.06,0.361c1.17-2.381,2.67-3.541,5.68-2.9c6.32,1.369,12-0.03,17.771-2.51
				c5.979-2.58,12.33-1.961,18.56-0.871c5.53,0.971,11.03,2.111,16.5,3.351c2.57,0.58,5.59,0.931,7.48,2.511
				c4.819,4.029,10.6,5.43,16.319,6.899c12.141,3.13,23.53,8.19,34.5,13.92c8.73,4.56,17.75,7.11,27.29,8.739
				c6.5,1.121,12.88,2.941,19.33,4.381c0.33,0.08,0.78-0.391,2.261-1.189c-4.181-1.921-7.57-3.601-11.07-5.031
				c-1.73-0.699-3.8-0.619-5.46-1.43c-6.53-3.199-12.69-7.42-19.5-9.75c-8.44-2.88-14.811-8.33-20.36-14.539
				c-3.85-4.32-6.53-10.07-8.35-15.631c-1-3.05,0.71-7.071,1.51-10.581c1.35-5.97,7.96-11.56,14.03-12.42
				c3.609-0.51,7.17-1.35,10.739-2.119c5.591-1.221,11.091-4.15,16.94-1.75c6.7,2.739,13.5,5.42,19.81,8.939
				c6.45,3.609,12.521,7.97,18.44,12.42c6.93,5.21,7.68,9.901,3.54,17.51c-0.53,0.971-1.09,1.93-1.64,2.9c-0.07,0-0.141,0-0.221,0
				c0.011,0.039,0.021,0.08,0.04,0.119c-3.08-0.449-6.34-1.719-9.18-1.09c-4.68,1.041-7.58-1.699-10.85-3.629
				c-5.101-3-9.75-6.811-14.98-9.561c-4.14-2.189-8.78-3.5-13.33-4.781c-1.62-0.46-3.59,0.33-5.46,0.55
				c1.12,1.84,1.71,3.17,2.62,4.221c1.03,1.18,2.47,3.1,3.52,2.97c4.101-0.5,7.87-1.03,10.171,3.51c0.149,0.29,1.22,0.05,1.819,0.21
				c1.91,0.5,4.01,0.721,5.65,1.711c2.68,1.619,4.84,4.229,7.63,5.539c3.42,1.61,7.22,2.961,10.95,3.23
				c3.109,0.23,6.359-1.25,9.51-1.961c0.95,1.73,1.7,3.101,2.46,4.461c0.31-0.15,0.63-0.311,0.94-0.471
				c-0.49-1.629-0.99-3.27-1.471-4.91c0.03,0.011,0.07,0.021,0.101,0.021c0.029-0.05,0.05-0.09,0.08-0.14
				c6.199-0.061,8.85,4.98,12.14,8.88c2.75,3.271-0.77,6.59-0.63,9.62c0.26,5.779-3.45,6.65-7.16,8.25
				c-4.27,1.85-8.49,3.81-13.42,6.029c4.71,2.451,10.61-0.68,13.26,5.121c-0.12-1.091-0.25-2.19-0.39-3.48
				c6.56,0,12.78,0.29,18.97-0.1c4.76-0.291,9.47-1.511,14.22-2.17c6.511-0.92,13.11-1.311,19.53-2.65
				c6.61-1.37,13-3.811,19.57-5.42c10.93-2.67,21.91-5.12,32.899-7.53c6.881-1.511,14.021-2.12,20.641-4.319
				c5.88-1.951,11.17-5.65,16.81-8.371c8.271-3.99,16.57-7.89,24.97-11.58c1.711-0.75,3.9-0.42,6.19-0.619
				c-0.32-1.24-0.77-2.971-1.19-4.711c-1.39-5.67,7.341-14.67,12.62-12.45c5.53,2.33,8.5-0.52,12.78-4.26
				c-4.02-0.5-7.27-0.311-10.04-1.36c-9.01-3.42-14.91-9.41-15.29-19.79c-0.2-5.73,2.34-9.221,6.97-12.41
				c5.431-3.74,10.71-3,16.381-2c10.989,1.939,21.189,5.03,25.21,17.561c1.109-0.48,2.359-0.681,3.109-1.41
				c2.271-2.221,4.69-4.42,6.431-7.03c2.229-3.33,4.159-6.94,5.659-10.66C951.26,289.642,951.651,285.722,953.02,282.182z
				 M389.041,365.673c-0.3-0.66-0.6-1.32-0.91-1.971c-4.1,1.74-8.81,2.721-12.149,5.41c-4.221,3.4-7.32,8.189-11.62,13.21
				c3.27,0.511,6.17,0.96,9.96,1.55c-1.96-6.72,4.01-8.479,5.649-12.529c0.44-1.07,1.53-2.061,2.57-2.65
				C384.621,367.522,386.861,366.663,389.041,365.673z"/>
			<path fill="#FFED66" d="M925.031,179.472c0.17,2.64,0.76,4.72,0.34,6.569c-0.83,3.65-1.811,7.381-3.5,10.681
				c-1.95,3.81-14.08,8.1-18.101,6.72c-1.21-0.42-2.369-1.68-3.039-2.85c-3.08-5.4-6.04-10.881-8.87-16.42
				c-0.33-0.641,0.229-1.881,0.62-2.721c0.56-1.189,1.649-2.199,1.97-3.43c1.189-4.62,3.5-6.98,8.63-8.37
				c5.53-1.5,9.68-0.95,13.76,2.44C919.88,174.612,922.72,177.372,925.031,179.472z"/>
			<path fill="#FFED66" d="M886.63,239.211c-2.11,6.66,0.47,13.641-4.899,19.301c-3.82,4.029-11.141,4.15-15.711,0.9
				c-6.579-4.681-8.27-11.021-7.399-18.131c0.35-2.83,2.95-5.619,5.06-7.939c1.551-1.7,4.141-2.4,5.98-3.9
				c3.3-2.68,5.24-2.59,10.109,1.04c2.08,1.54,2.851,6.021,0.99,9.3C882.93,239.572,884.321,239.432,886.63,239.211z"/>
			<path fill="#FFED66" d="M868.72,147.652c2.29,2.29,4.42,3.979,3.98,7.8c-0.8,6.971-1.49,14-8.811,17.271
				c-2.659,1.18-6.17,1.11-9.18,0.739c-5.6-0.709-11.46,0.42-16.66-3.42c-5.3-3.92-11.01-7.149-12.31-14.39
				c-0.25-1.44-0.44-3.069-1.26-4.19c-2.29-3.149-0.69-6.129,0.899-8.31c1.93-2.64,5.021-4.43,7.601-6.601
				c0.859-0.719,2.399-1.42,2.439-2.199c0.29-5.16,4.03-6.391,7.96-7.76c2.11-0.73,3.99-2.12,6.19-3.34
				c5.55,3.979,9.52,9.189,12.55,15.379C863.741,141.942,866.111,145.042,868.72,147.652z"/>
			<path fill="#FFED66" d="M831.59,349.802c6.34,1.631,8.91,8.291,5.26,13.58c-1.119,1.631-1.77,3.591-2.63,5.4
				c0.261,0.43,0.521,0.87,0.771,1.311c-4.8,0.66-9.681,2.189-14.391,1.77c-9.069-0.79-17.52,0.32-25.81,4.07
				c-4.8,2.16-9.88,3.84-14.98,5.189c-6.899,1.83-12.439-3.17-12.02-10.379c0.04-0.601-0.22-1.24-0.42-1.841
				c-1.39-4.239-0.29-6.53,3.38-8.39c1.91-0.971,3.49-2.62,5.13-4.07c0.601-0.529,0.84-1.859,1.4-1.96
				c7.62-1.351,12.89-8.45,21-8.51c0.81-0.011,1.779,0.1,2.42-0.29c8.93-5.35,17.01-0.189,25.31,2
				C827.92,348.192,829.67,349.313,831.59,349.802z"/>
			<path fill="#FFED66" d="M833.72,310.663c0.34,4.34,0.8,8.709,0.521,13.029c-0.181,2.78-10.83,8.66-13.851,8.189
				c-7.38-1.129-14.64-2.449-21.54-5.659c-2.85-1.32-6.43-1.011-9.67-1.55c-10.5-1.78-21.13-3.08-31.42-5.711
				c-3.479-0.89-6.59-4.83-8.939-8.049c-1.811-2.471-3.41-4.16-6.46-4.761c-2.25-0.43-4.41-1.479-6.5-2.479
				c-3.83-1.82-4.41-4.53-0.96-8.7c-5.891,0.739-5.061-2.65-4.82-5.66c0.18-2.31-0.061-4.771,0.67-6.89
				c0.78-2.271,2.05-4.771,3.86-6.211c3.83-3.049,7.21-7.459,13.489-3.129c5.101,3.51,6.641,8.42,8.42,13.529
				c0.53,1.51,0.73,3.141,0.87,3.801c10.48,0.819,20.301,1.51,30.11,2.369c5.08,0.44,10.48,0.24,15.11,1.98
				c5.199,1.96,10.33,0.439,15.279,1.56c2.88,0.66,5.511,2.63,8.101,4.261C829.77,302.961,833.331,305.702,833.72,310.663z"/>
			<path fill="#FFED66" d="M817.67,228.022c0.03,4.9,1.43,10.05-3.67,13.55c-0.63,0.431-1.35,1.271-1.38,1.94
				c-0.29,6.71-6.351,7.859-10.49,10.539c-3.6,2.341-7.86,3.75-11.95,5.23c-1.77,0.641-3.859,0.4-6.43,0.61
				c-1.03,4.08-5.09,1.13-7.22,1.18c-4.8,0.11-9.761-1.12-14.46-2.479c-4.91-1.42-9.53-3.84-14.4-5.461
				c-6.26-2.08-12.7-3.609-18.93-5.77c-2.45-0.85-4.391-3.699-6.78-4.029c-6.25-0.84-10.05-7.48-16.25-7.07
				c-5.24,0.35-5.72-3.79-7.84-6.301c-1.3-1.539-1.73-3.899-2.26-5.959c-0.891-3.42,0.71-5.61,3.68-7.28
				c3.05-1.729,7.38-2.271,7.55-7.15c0.021-0.399,0.84-1,0.74-1.14c-3.811-5.75,1.14-10.83,1.28-16.29
				c0.14-5.54,5.689-5.36,9.18-6.95c2.38-1.08,5.33-0.57,6.49,2.79c0.189,0.58,0.729,1.34,1.239,1.47
				c5.75,1.43,6.461,6.99,7.931,11.07c1.52,4.18,4.3,8.68,2,13.811c-0.46,1.02,0.859,3.92,2.01,4.399
				c13.08,5.5,26.16,11.021,41.01,7.46c7.88-1.891,9.971-5.99,6.03-13.48c-1.93-3.66,1.36-10.039,5.39-10.439
				c8.471-0.85,17.19,4.471,21.051,12.12C813.46,218.892,817.621,222.392,817.67,228.022z"/>
			<path fill="#FFED66" d="M772.64,152.083c0.11,3.199,1.5,6.26-0.449,9.56c-5.37,9.13-13.061,15.3-24.49,12.87
				c-6.9-1.471-13.9-2.58-20.91-3.381c-12.04-1.359-23.79-3.709-35.18-7.969c-5.061-1.891-10.53-2.66-15.761-4.15
				c-1.88-0.53-3.68-1.53-5.34-2.59c-1.08-0.69-1.67-2.291-2.79-2.771c-7.27-3.17-4.55-9.62-4.85-14.899
				c-0.271-4.801,4.53-5.951,7.54-7.391c3.189-1.529,7.34-1.54,11.04-1.38c3.229,0.14,6.399,1.45,9.609,2.21
				c2.421,0.561,3.99-0.37,4.181-2.891c0.189-2.609-0.141-5.279,0.18-7.879c0.32-2.551,1.16-5.03,1.92-8.18
				c-2.79-0.98-1.87-4.111-1.41-7.391c0.67-4.811,0.891-9.91,6.62-11.43c3.45-0.91,7.24-1.49,10.72-1.021
				c4.36,0.591,5.2,4.28,5.341,8.341c0.229,6.709,1.17,13.399,1.3,20.109c0.03,2.12-1.351,4.41-2.521,6.359
				c-4.05,6.75-2.699,9.291,4.94,10.051c6.42,0.63,12.82,1.71,19.14,3.039c6.04,1.281,7.53,0.611,11.36-4.469
				c2.22-2.961,5.35-5.291,8.32-7.601c1.869-1.46,3.77-1.08,4.72,1.46c0.18,0.471,0.37,0.95,0.68,1.33
				c4.29,5.24,4.3,5.24,0.29,10.37c1.79-0.3,3.13-0.521,5.771-0.96C772.611,145.112,772.52,148.602,772.64,152.083z"/>
			<path fill="#FFED66" d="M677.951,298.792c0.7,3.61-1.24,8.66-3.71,11.61c-1.48,1.75-6.351,1.11-9.63,0.8
				c-7.71-0.729-15.36-2.49-23.07-2.75c-7.18-0.24-13.96-0.83-20.6-3.97c-2.271-1.069-5.69,0.431-8.591,0.56
				c-6.54,0.301-13.1,0.871-19.619,0.57c-4.04-0.189-8.04-1.71-12.03-2.76c-4.601-1.21-9.32-2.189-13.69-3.99
				c-2.13-0.88-5.1-3.439-5.05-5.18c0.1-4.41-2.78-10.03,4.01-12.85c2.86-1.19,4.45-5.141,8.521-4.281
				c1.08,0.23,2.21,0.23,3.3,0.431c2.38,0.44,4.729,1.14,7.12,1.36c2.77,0.26,5.74-0.49,8.32,0.27c5.619,1.65,10.649,0.45,15.17-2.6
				c5.81-3.92,12.01-3.16,18.279-2.42c8.69,1.02,17.37,2.14,26.04,3.31c2.45,0.33,4.851,1.04,7.28,1.49
				c2.18,0.409,4.38,0.71,6.56,1.06C673.93,283.631,676.5,291.232,677.951,298.792z"/>
			<path fill="#FFED66" d="M604.741,122.502c4.3,4.84,7.859,10.629,7.04,17.689c-0.25,2.18-1.15,4.51-2.41,6.311
				c-2.58,3.699-5.47,7.22-8.521,10.56c-1.63,1.79-3.869,3.021-5.79,4.58c-2.5,2.03-5.21,3.89-7.359,6.25
				c-2.73,2.989-6.11,3.71-9.54,2.819c-8.2-2.129-16.66-1.539-24.87-2.799c-8.45-1.291-17.4-2.91-23.1-10.57
				c-4.011-5.391-6.37-11.25-3.641-18.16c0.49-1.24,0.09-2.99-0.3-4.391c-0.6-2.229-1.67-4.319-2.32-6.539
				c-1.3-4.471-0.529-5.461,4.19-5.69c0-0.92,0-1.84,0-2.67c4-2.55,10.12,0.31,14.92,7.08c-1.3,1.489-2.67,3.069-4.55,5.229
				c1.569,0.76,2.859,1.811,4.25,1.98c9.14,1.14,18.29,2.16,27.45,3.01c1.55,0.141,3.43-0.34,4.729-1.18
				c4.39-2.85,10.14-3.95,12.47-9.551c0.431-1.039,1.36-1.869,2.04-2.81C594.981,116.072,598.51,115.493,604.741,122.502z"/>
			<path fill="#FFED66" d="M596.75,224.092c4.52,1.99,6.97,9,3.82,12.32c-6.021,6.34-12.28,12.709-21.19,14.939
				c-2.47,0.62-5.229,0.05-7.85,0.16c-6.24,0.25-12.62,1.51-18.69,0.609c-5.1-0.75-9.88-3.859-14.66-6.199
				c-0.8-0.391-1.51-2.36-1.229-3.291c1.28-4.189-1.87-4.989-4.37-6.58c-3.22-2.029-6.26-4.35-9.28-6.68
				c-0.55-0.43-0.78-1.5-0.84-2.3c-0.85-11.03-1.21-22.04,0.87-33.021c1.5-7.959,10.45-12.01,17.26-8.949
				c1.061,0.48,1.12,3.17,1.86,5.561c0.97-0.051,3.62-1.641,2.72,2.58c-0.36,1.68,0.45,3.909,1.38,5.52
				c4.811,8.359,3.26,16.51-0.6,24.67c5.59,5.109,11.609,1.92,17.27,0.92c6.59-1.17,12.681-3.939,18.851-6.68
				c5.18-2.301,11.739-2.76,16.01,3.81C597.75,222.142,597.25,223.112,596.75,224.092z"/>
			<path fill="#FFED66" d="M484.56,280.042c9.07,1.711,13.21,7.131,12.311,16.42c-0.15,1.531,0.61,3.141,0.92,4.61
				c-7.63,6.479-16.4,3.22-24.58,4.06c-2.24,0.23-4.5,1.08-6.68,0.891c-5.74-0.5-11.55-0.971-17.08-2.391
				c-2.021-0.52-3.71-3.52-4.88-5.739c-1.09-2.04-3.49-4.681,0.3-6.729c0.13-0.07,0.3-0.25,0.3-0.381
				c-0.13-8.25,6.58-8.699,12.05-10.689c2.471-0.9,4.87-2.11,7.13-3.471c3.391-2.05,6.551-1.209,9.891,0.07
				C477.621,277.993,481.041,279.381,484.56,280.042z"/>
			<path fill="#FFED66" d="M463.43,138.392c1.391,9.08-9.17,27.04-21.359,27.94c-8.24,0.609-14.91-1.91-21.94-4.49
				c-10.29-3.78-20.76-7.271-30.57-12.07c-9.34-4.57-19.88-8.95-22.22-20.88c-1.12-5.71-0.41-11.78-0.59-17.69
				c-0.1-3.459,0.01-6.97-0.58-10.359c-0.58-3.34,1.05-3.59,3.49-3.42c-4.62-6.541,2.67-17.271,8.13-19.73
				c1.36-0.609,3.55,0.23,5.229,0.79c1.53,0.511,2.801,1.86,4.341,2.271c4.79,1.279,6.729,4.74,8.189,9.1
				c2.15,6.4,0.41,11.84-2.67,17.439c-1.37,2.49-1.6,5.721-1.88,8.66c-0.21,2.18,0.74,3.811,3.16,4.94
				c5.359,2.489,10.26,6.06,15.729,8.239c6.21,2.471,12.811,3.99,19.28,5.771c2.64,0.729,5.39,1.07,8.48,1.66
				c0.489-1.431,0.949-2.819,1.439-4.2c1.22-3.43-0.33-5.46-3.45-6.5c-1.569-0.529-3.26-0.65-4.89-1.02
				c-2.24-0.51-4.17-1.221-3.54-4.271c0.18-0.88-0.1-2.22-0.69-2.84c-3.689-3.81-2.81-8.26,0.11-11.12
				c2.28-2.23,6.59-3.43,9.93-3.311c9.16,0.351,16.53,3.511,20.87,12.98C460.72,123.482,462.281,130.881,463.43,138.392z"/>
			<path fill="#FFED66" d="M440.701,224.801c4.76,5.83,7.3,12.82,3.83,19.811c-1.471,2.971-6.07,5.02-9.67,6.17
				c-5.46,1.74-11.271,3-16.98,3.221c-5.79,0.229-11.82-0.371-17.43-1.83c-7.181-1.871-13.8-5.641-19.97-9.7
				c-9.811-6.44-9.62-6.729-16.341-18c0.86-1.271,1.75-2.61,3.04-4.54c-5.18-1.561-4.189,3.9-7.12,5.16
				c-0.829-0.9-1.609-2.23-2.77-2.86c-1-0.55-2.43-0.319-3.79-0.44c-1.14-2.879-1.15-6.689-5.58-7.119
				c-0.57-0.061-1.28-1.51-1.46-2.41c-2.25-11.551-2.63-23.061,2.37-34.051c3.29-7.229,8.2-12.879,16.83-13.819
				c5.45-0.601,9.72,2.87,10.979,8.29c1.641,7.05-1.12,13.52-2.09,20.22c-0.16,1.05-0.939,2.3-1.819,2.89
				c-5.03,3.42-5.461,8.15-4.171,13.48c0.421,1.76,0.771,3.529,1.04,4.811c10.891,3.25,21.391,6.819,32.11,9.449
				c7.6,1.87,15.38,2.061,22.79-1.9C428.661,219.413,437.75,221.192,440.701,224.801z"/>
			<path fill="#FFED66" d="M415.791,294.102c2.93,1.449,4,8.061,2.43,11.08c-0.52,1.01-1.5,2.279-1.239,3.109
				c0.75,2.44,3.09,4.91-1.4,6.121c-2.43,0.649-4.79,1.77-7.26,2.119c-7.99,1.141-16.03,1.98-24.04,3.03
				c-3.311,0.44-6.261,0.51-9.11-2c-1.85-1.62-4.66-2.11-6.99-3.22c-2.699-1.28-3.479-3.541-3.39-6.45
				c0.19-5.899,7.89-18.05,16.44-15.83c0.609-0.06,2.17,0.229,3.14-0.39C395.5,284.493,405.72,289.092,415.791,294.102z"/>
			<path fill="#FFED66" d="M365.531,274.012c1.18,5.699-4.83,14.109-11.15,14.17c-3.45-0.1-7.58-1.939-9.57-6.43
				c-1.819-4.121-3.189-8.19-0.04-13.051c2.641-4.07,5.28-6.67,9.811-5.15C359.64,265.252,364.331,268.182,365.531,274.012z"/>
			<path fill="#FFED66" d="M326.76,117.402c2.01,3.761,0.51,13.79-3.05,16.271c-5.03,3.49-10.11,6.99-15.51,9.83
				c-1.88,0.979-5.101,0.699-7.181-0.201c-12.21-5.309-25.489-5.109-38.17-7.869c-7.979-1.73-16.529-2.04-23.13-7.9
				c-5.8-5.15-6.84-12.789,0.08-19.51c1.91-1.84,5.44-1.971,8.17-3.02c1.521-0.58,2.94-1.431,4.561-2.25
				c-0.511-3.07-0.92-5.641-4.42-6.541c-0.95-0.239-2.12-1.819-2.21-2.869c-0.4-4.75-0.431-9.53-0.641-14.301
				c-0.029-0.59-0.34-1.17-0.58-1.74c-3.75-8.859,3.2-18.369,12.96-17.699c0.61,0.04,1.53,0.18,1.771,0.59
				c3.3,5.58,7.29,10.93,9.54,16.92c3.359,8.939,0.84,17.34-5.101,24.73c-0.569,0.72-0.76,1.76-1.14,2.68
				c12.72,2.82,25.19,5.59,38.22,8.48c-3.81-4.271-7.5-8.211-10.899-12.381c-0.7-0.85-0.91-2.91-0.37-3.82
				c1.689-2.789,3.66-5.459,5.92-7.799c0.78-0.801,2.93-1.021,4.1-0.57c4.811,1.83,9.67,3.71,14.141,6.24
				c1.949,1.1,3.27,3.66,4.41,5.8C321.201,106.051,323.781,111.833,326.76,117.402z"/>
			<path fill="#FFED66" d="M321.47,360.853c2.931,1.76,7.07,2.21,4.53,7.37c-0.27,0.56,1.3,2.03,1.55,2.39
				c-1.43,2.391-2.62,4.24-3.66,6.18c-1.649,3.041-10.3,6.15-13.189,4.041c-6.15-4.511-13-3.92-19.94-3.99
				c-7.069-0.07-14.25-0.07-21.17-1.311c-4.93-0.88-9.49-3.8-14.24-5.74c-7.3-2.979-14.63-5.859-21.909-8.869
				c-1-0.42-1.931-1.23-2.65-2.061c-2.91-3.38-5.75-6.83-8.59-10.27c-2.34-2.82-5.63-5.36-6.681-8.611
				c-0.939-2.899-0.039-6.88,1.23-9.89c2.03-4.811,4.97-9.25,7.7-13.73c0.53-0.869,1.819-1.47,2.88-1.8
				c10.12-3.13,20.5-4.03,31.05-3.681c10.23,0.341,19.13,4.25,27.79,9.301c4.98,2.91,10.63,4.74,15.46,7.859
				c4.23,2.73,8.72,5.391,10.311,11.19c0.97,3.541,4.029,6.511,6.149,9.741c0.61-0.16,1.22-0.31,1.83-0.47
				c-0.61,2.539-1.78,5.1-1.65,7.59C318.361,357.772,319.941,359.933,321.47,360.853z M296.77,349.263
				c0.011-0.54,0.011-1.07,0.011-1.61c-0.91-0.2-1.87-0.26-2.71-0.61c-11.271-4.729-22.521-9.52-33.79-14.241
				c-0.54-0.229-1.271-0.029-1.91,0.031c-2.061,0.16-4.12,0.459-6.19,0.51c-3.729,0.08-7.46,0.02-11.189,0.02
				c-0.21,0.48-0.41,0.96-0.61,1.439c1.68,1.301,3.26,2.771,5.07,3.871c2.819,1.689,5.72,3.289,8.71,4.64
				c7.04,3.16,13.82,7.17,22.06,6.44c4.5-0.41,9.04-0.371,13.57-0.48C292.121,349.212,294.451,349.263,296.77,349.263z"/>
			<path fill="#FFED66" d="M311.611,283.202c3.5,7.36,8.81,14.24,5.84,23.271c-1.9,5.771-5.58,8.489-11.69,7.35
				c-9.26-1.72-18.5-3.19-27.06-7.979c-5.98-3.35-13.36-4.131-19.55-7.18c-7.07-3.48-13.53-8.201-20.23-12.42
				c-4.31-2.711-8.76-5.24-12.83-8.271c-5.51-4.12-9.24-9.58-8.45-16.78c0.311-2.79,2.011-5.57,3.53-8.08
				c3.82-6.34,8.04-11.71,16.71-12.15c12.09-0.619,23.22,2.771,34.45,6.201c0.79,0.239,1.63,0.569,2.22,1.1
				c4.11,3.8,8.2,7.6,12.21,11.5c4.54,4.43,3.471,9.699-2.42,12.18c-1.35,0.561-2.76,0.99-4.14,1.48c-0.12,0.58-0.24,1.16-0.37,1.75
				c5.87,1.99,11.65,4.33,17.64,5.85c4,1.02,8.311,0.859,12.471,1.3C310.541,282.381,311.39,282.743,311.611,283.202z"/>
			<path fill="#FFED66" d="M316.5,209.702c1.77,3.42,2.25,8.791,0.83,12.26c-1.72,4.181-5.63,7.91-9.46,10.59
				c-2.39,1.671-6.53,1.791-9.64,1.25c-9.66-1.68-19.431-3.309-28.141-8.229c-1.08-0.61-1.56-2.29-2.62-3.94
				c-1.8,4.99-5.729,3.99-8.67,3.221c-12.12-3.2-23.47-8.141-31.99-17.77c-1.859-2.11-2.6-5.24-3.739-7.94
				c-0.88-2.08-1.431-4.3-2.42-6.31c-0.33-0.681-1.54-1.291-2.37-1.311c-5.12-0.141-7.101-1.641-8.09-6.48
				c-1.83-8.869-1.21-12.47,2.85-16.479c-2.62-4.2-0.61-16.681,3.17-18.04c-0.15-1.279-0.3-2.641-0.44-3.859
				c2.171-2.281,7.591-2.201,10.391-0.32c7.47,4.99,10.6,12.699,12.07,20.88c0.6,3.3-0.601,8.17-2.87,10.46
				c-3.471,3.51-2.63,5.369,0.56,8.02c4.23-2.17,7.51-1.01,9.79,3.45c0.45,0.89,1.69,1.66,2.71,1.91
				c11.26,2.72,22.54,5.399,33.87,7.86c1.12,0.25,3.16-0.61,3.77-1.59c4.671-7.48,5.841-7.33,14.07-5.221
				C309.741,194.562,312.791,202.522,316.5,209.702z"/>
			<path fill="#FFED66" d="M188.481,103.672c3.09,6.14-0.521,15.959-7.33,18.649c-6.101,2.4-12.601,3.86-19.011,5.36
				c-5.62,1.32-11.33,2.67-17.06,3c-5.62,0.33-11.33-0.439-16.969-1.03c-5.71-0.59-11.37-1.61-17.07-2.34
				c-2.88-0.37-5.97,0.239-6.53-4.229c-0.21-1.74-2.899-3.061-3.529-4.9c-1.16-3.381,1.399-9.57,4.859-11.11
				c5.23-2.329,10.76-3.97,16.15-5.909c0.12,0.26,0.229,0.51,0.35,0.77c1.8,0.29,3.62,0.88,5.41,0.79c2.54-0.12,5.05-0.78,7.58-1.13
				c1.939-0.26,3.91-0.33,5.86-0.6c3.179-0.451,6.349-1.031,9.54-1.471c2.119-0.3,4.239-0.51,6.369-0.68
				c3.53-0.28,6.45-0.82,6.71-5.521c0.25-4.36,7.351-9.69,11.45-8.59c1.91,0.511,3.75,2.54,4.9,4.351
				C183.161,93.801,185.97,98.672,188.481,103.672z"/>
			<path fill="#FFED66" d="M170.01,186.592c1.54,2.189,0.15,12.529-2.08,14.75c-3.58,3.57-7.47,6.27-13.08,6.109
				c-5.729-0.17-11.84-0.479-17.139,1.24c-8,2.609-15.59,1.76-23.27,0.03c-7.421-1.671-14.86-3.54-22-6.15
				c-3.891-1.42-7.19-4.51-10.71-6.92c-0.66-0.44-1.62-1.351-1.521-1.86c1.08-5.6-4.84-7.729-5.04-12.569
				c0.4-2.64,0.71-5.3,1.271-7.9c0.18-0.84,0.88-2.01,1.579-2.229c4.891-1.521,9.75-2.43,13.631,2.32
				c4.55,5.549,10.649,7.449,17.619,7.729c3.221,0.13,6.471,2.05,9.57,1.739c6.46-0.649,12.84-2.229,19.24-3.449
				c2.52-0.48,4.309-1.311,5.019-4.42c1.131-4.92,6.521-8.221,11.511-7.641c0.989,0.11,2.149,0.9,2.76,1.721
				C161.661,174.872,165.871,180.702,170.01,186.592z"/>
			<path fill="#FFED66" d="M165.67,263.583c1.021,5.119,0,10.81-1.04,16.069c-0.39,2.021-2.96,4.08-5.04,5.19
				c-6.08,3.26-12.24,6.539-18.719,8.81c-2.76,0.979-6.38-0.5-9.62-0.88c-2.96-0.35-6.11-0.189-8.84-1.189
				c-4.88-1.771-9.92-3.65-14.07-6.631c-2.51-1.8-3.77-5.34-1.55-9.33c1.62-2.92,1.54-6.789,2.37-10.979
				c-8.8,1.86-21.351-1.45-24.07-9.78c-1.03-3.18-3.56-5.92-4.29-9.119c-0.859-3.761,4.78-8.451,8.66-8.061
				c12.15,1.21,24.38,1.82,36.44,3.609c11.63,1.73,22.799,5.57,32.299,12.771C161.371,256.472,164.96,260.022,165.67,263.583z"/>
			<path fill="#FFED66" d="M141.111,312.243c6.139,6.139,6.649,12.85-1.78,18.75c-0.66,0.459-0.63,1.889-0.93,2.889
				c-10.931,0.67-19.48-4.039-27.44-10.219c-3.22-2.5-8.27-3.44-7.72-9.181c0.21-2.19-0.74-5.14,0.37-6.47
				c4.01-4.82,6.939-11.62,13.399-12.961c3.431-0.719,8.311,1.721,11.41,4.15C133.161,302.913,136.821,307.952,141.111,312.243z"/>
			<path fill="#FFED66" d="M93.821,139.051c7.92,2.08,16.569,11.271,14.54,19.051c-1.181,4.51-6.63,9.48-10.561,9.3
				c-6.3-0.3-12.609-5.33-14.56-11.46c-0.431-1.35-1.5-2.5-1.98-3.85c-1.399-3.95,1.74-12.391,5.69-13.82
				C88.901,137.572,91.581,138.461,93.821,139.051z"/>
		</g>
	</g>
</g>
</svg>
