<svg width="512" height="512" xmlns="http://www.w3.org/2000/svg">

 <!-- <g>
  <title>background</title>
  <rect fill="none" id="canvas_background" height="402" width="582" y="-1" x="-1"/>
 </g> -->
 <g>
  <title>Layer 1</title>
  <path fill="#ffffff" id="svg_1" d="m443.600006,387.100006l-131.200012,-131.700012l131.5,-130.000008c5.399994,-5.399994 5.399994,-14.199997 0,-19.599998l-37.399994,-37.599991c-2.600006,-2.599998 -6.100006,-4 -9.800018,-4c-3.699982,0 -7.199982,1.5 -9.799988,4l-130.899994,129.600006l-131.099998,-129.5c-2.599998,-2.600006 -6.099998,-4 -9.800003,-4c-3.699997,0 -7.199997,1.5 -9.799995,4l-37.300003,37.599998c-5.400002,5.400002 -5.400002,14.199997 0,19.599998l131.5,130l-131.099998,131.600006c-2.599998,2.600006 -4.099998,6.100006 -4.099998,9.800018c0,3.699982 1.399994,7.199982 4.099998,9.799988l37.400002,37.599976c2.699997,2.700012 6.199997,4.100006 9.799995,4.100006c3.5,0 7.099998,-1.299988 9.800003,-4.100006l130.599998,-131.199982l130.700012,131.100006c2.699982,2.700012 6.199982,4.100006 9.799988,4.100006c3.5,0 7.100006,-1.300018 9.799988,-4.100006l37.400024,-37.600006c2.599976,-2.600006 4.099976,-6.100006 4.099976,-9.799988c-0.099976,-3.600006 -1.599976,-7.100006 -4.199982,-9.700012z"/>
 </g>
</svg>